<mxfile host="Electron" modified="2024-02-03T23:29:41.400Z" agent="Mozilla/5.0 (Windows NT 10.0; Win64; x64) AppleWebKit/537.36 (KHTML, like Gecko) draw.io/23.0.2 Chrome/120.0.6099.109 Electron/28.1.0 Safari/537.36" etag="tJoKSFxeQwyOBCgBf0dv" version="23.0.2" type="device">
  <diagram name="Страница — 1" id="vMOuFKkEuXLlpbRrpP1L">
    <mxGraphModel dx="3899" dy="3166" grid="1" gridSize="10" guides="1" tooltips="1" connect="1" arrows="1" fold="1" page="1" pageScale="1" pageWidth="827" pageHeight="1169" math="0" shadow="0">
      <root>
        <mxCell id="0" />
        <mxCell id="1" parent="0" />
        <mxCell id="_SnUvuW7pjR6wicyARaL-2" value="&lt;font color=&quot;#f00505&quot;&gt;Я&lt;/font&gt;&lt;font color=&quot;#0d0d0d&quot;&gt;&lt;b&gt;ндекс&lt;/b&gt;&lt;/font&gt; Самокат" style="rounded=1;whiteSpace=wrap;html=1;arcSize=22;labelBackgroundColor=none;fillColor=#fff2cc;strokeColor=#d6b656;gradientColor=#ffd966;" parent="1" vertex="1">
          <mxGeometry x="354" y="280" width="120" height="40" as="geometry" />
        </mxCell>
        <mxCell id="_SnUvuW7pjR6wicyARaL-3" value="&lt;font color=&quot;#0d0d0d&quot;&gt;Интерфейс экрана &quot;Сделать заказ&quot;&lt;/font&gt;" style="rounded=1;whiteSpace=wrap;html=1;arcSize=22;labelBackgroundColor=none;fillColor=#dae8fc;gradientColor=#7ea6e0;strokeColor=#6c8ebf;" parent="1" vertex="1">
          <mxGeometry x="190" y="280" width="120" height="40" as="geometry" />
        </mxCell>
        <mxCell id="_SnUvuW7pjR6wicyARaL-4" value="&lt;font color=&quot;#050505&quot;&gt;Логика&amp;nbsp;&lt;/font&gt;экрана &quot;Сделать заказ&quot;" style="rounded=1;whiteSpace=wrap;html=1;arcSize=22;labelBackgroundColor=none;fillColor=#f5f5f5;gradientColor=#b3b3b3;strokeColor=#666666;" parent="1" vertex="1">
          <mxGeometry x="520" y="280" width="120" height="40" as="geometry" />
        </mxCell>
        <mxCell id="_SnUvuW7pjR6wicyARaL-5" value="" style="endArrow=classic;html=1;rounded=0;exitX=0;exitY=0.5;exitDx=0;exitDy=0;entryX=1;entryY=0.5;entryDx=0;entryDy=0;edgeStyle=orthogonalEdgeStyle;curved=1;" parent="1" source="_SnUvuW7pjR6wicyARaL-2" target="_SnUvuW7pjR6wicyARaL-3" edge="1">
          <mxGeometry width="50" height="50" relative="1" as="geometry">
            <mxPoint x="310" y="390" as="sourcePoint" />
            <mxPoint x="360" y="340" as="targetPoint" />
          </mxGeometry>
        </mxCell>
        <mxCell id="_SnUvuW7pjR6wicyARaL-6" value="" style="endArrow=classic;html=1;rounded=0;exitX=1;exitY=0.5;exitDx=0;exitDy=0;entryX=0;entryY=0.5;entryDx=0;entryDy=0;edgeStyle=orthogonalEdgeStyle;curved=1;" parent="1" source="_SnUvuW7pjR6wicyARaL-2" target="_SnUvuW7pjR6wicyARaL-4" edge="1">
          <mxGeometry width="50" height="50" relative="1" as="geometry">
            <mxPoint x="450" y="400" as="sourcePoint" />
            <mxPoint x="500" y="350" as="targetPoint" />
          </mxGeometry>
        </mxCell>
        <mxCell id="_SnUvuW7pjR6wicyARaL-8" value="&lt;font color=&quot;#0d0d0d&quot;&gt;Левая часть&amp;nbsp;&lt;/font&gt;" style="rounded=1;whiteSpace=wrap;html=1;arcSize=22;labelBackgroundColor=none;fillColor=#dae8fc;gradientColor=#7ea6e0;strokeColor=#6c8ebf;" parent="1" vertex="1">
          <mxGeometry x="-340" y="-480" width="120" height="40" as="geometry" />
        </mxCell>
        <mxCell id="_SnUvuW7pjR6wicyARaL-9" value="&lt;font color=&quot;#0d0d0d&quot;&gt;Шапка&lt;/font&gt;" style="rounded=1;whiteSpace=wrap;html=1;arcSize=22;labelBackgroundColor=none;fillColor=#dae8fc;gradientColor=#7ea6e0;strokeColor=#6c8ebf;" parent="1" vertex="1">
          <mxGeometry x="-170" y="-590" width="120" height="40" as="geometry" />
        </mxCell>
        <mxCell id="_SnUvuW7pjR6wicyARaL-11" value="" style="endArrow=classic;html=1;rounded=0;exitX=0;exitY=0.5;exitDx=0;exitDy=0;entryX=1;entryY=0.5;entryDx=0;entryDy=0;edgeStyle=orthogonalEdgeStyle;curved=1;" parent="1" source="_SnUvuW7pjR6wicyARaL-3" target="_SnUvuW7pjR6wicyARaL-9" edge="1">
          <mxGeometry width="50" height="50" relative="1" as="geometry">
            <mxPoint x="160" y="290" as="sourcePoint" />
            <mxPoint x="210" y="240" as="targetPoint" />
          </mxGeometry>
        </mxCell>
        <mxCell id="_SnUvuW7pjR6wicyARaL-12" value="&lt;font color=&quot;#0d0d0d&quot;&gt;Правая часть&lt;/font&gt;" style="rounded=1;whiteSpace=wrap;html=1;arcSize=22;labelBackgroundColor=none;fillColor=#dae8fc;gradientColor=#7ea6e0;strokeColor=#6c8ebf;" parent="1" vertex="1">
          <mxGeometry x="-340" y="-1120" width="120" height="40" as="geometry" />
        </mxCell>
        <mxCell id="_SnUvuW7pjR6wicyARaL-13" value="&lt;font style=&quot;border-color: var(--border-color);&quot; color=&quot;#0d0d0d&quot;&gt;Кнопка &quot;Заказать&quot;&lt;/font&gt;" style="rounded=1;whiteSpace=wrap;html=1;arcSize=22;labelBackgroundColor=none;fillColor=#dae8fc;gradientColor=#7ea6e0;strokeColor=#6c8ebf;" parent="1" vertex="1">
          <mxGeometry x="-600" y="-1330" width="187" height="40" as="geometry" />
        </mxCell>
        <mxCell id="_SnUvuW7pjR6wicyARaL-14" value="&lt;font color=&quot;#0d0d0d&quot;&gt;Кнопка &quot;Статус заказа&quot;&lt;br&gt;&lt;/font&gt;Чорные буквы в белом прямоугольнике&lt;font color=&quot;#0d0d0d&quot;&gt;&lt;br&gt;&lt;/font&gt;" style="rounded=1;whiteSpace=wrap;html=1;arcSize=22;labelBackgroundColor=none;fillColor=#dae8fc;gradientColor=#7ea6e0;strokeColor=#6c8ebf;" parent="1" vertex="1">
          <mxGeometry x="-700" y="-900" width="240" height="40" as="geometry" />
        </mxCell>
        <mxCell id="_SnUvuW7pjR6wicyARaL-15" value="" style="endArrow=classic;html=1;rounded=0;exitX=0;exitY=0.5;exitDx=0;exitDy=0;entryX=1;entryY=0.5;entryDx=0;entryDy=0;edgeStyle=orthogonalEdgeStyle;curved=1;" parent="1" source="_SnUvuW7pjR6wicyARaL-9" target="_SnUvuW7pjR6wicyARaL-12" edge="1">
          <mxGeometry width="50" height="50" relative="1" as="geometry">
            <mxPoint x="-200" y="-540" as="sourcePoint" />
            <mxPoint x="-150" y="-590" as="targetPoint" />
          </mxGeometry>
        </mxCell>
        <mxCell id="_SnUvuW7pjR6wicyARaL-16" value="" style="endArrow=classic;html=1;rounded=0;exitX=0;exitY=0.5;exitDx=0;exitDy=0;entryX=1;entryY=0.5;entryDx=0;entryDy=0;edgeStyle=orthogonalEdgeStyle;curved=1;" parent="1" source="_SnUvuW7pjR6wicyARaL-9" target="_SnUvuW7pjR6wicyARaL-8" edge="1">
          <mxGeometry width="50" height="50" relative="1" as="geometry">
            <mxPoint x="-240" y="-500" as="sourcePoint" />
            <mxPoint x="-190" y="-550" as="targetPoint" />
          </mxGeometry>
        </mxCell>
        <mxCell id="_SnUvuW7pjR6wicyARaL-17" value="" style="endArrow=classic;html=1;rounded=0;exitX=0;exitY=0.5;exitDx=0;exitDy=0;entryX=1;entryY=0.5;entryDx=0;entryDy=0;edgeStyle=orthogonalEdgeStyle;curved=1;" parent="1" source="_SnUvuW7pjR6wicyARaL-12" target="_SnUvuW7pjR6wicyARaL-13" edge="1">
          <mxGeometry width="50" height="50" relative="1" as="geometry">
            <mxPoint x="-310" y="-940" as="sourcePoint" />
            <mxPoint x="-260" y="-990" as="targetPoint" />
          </mxGeometry>
        </mxCell>
        <mxCell id="_SnUvuW7pjR6wicyARaL-18" value="" style="endArrow=classic;html=1;rounded=0;exitX=0;exitY=0.5;exitDx=0;exitDy=0;entryX=1;entryY=0.5;entryDx=0;entryDy=0;edgeStyle=orthogonalEdgeStyle;curved=1;" parent="1" source="_SnUvuW7pjR6wicyARaL-12" target="_SnUvuW7pjR6wicyARaL-14" edge="1">
          <mxGeometry width="50" height="50" relative="1" as="geometry">
            <mxPoint x="-370" y="-740" as="sourcePoint" />
            <mxPoint x="-320" y="-790" as="targetPoint" />
          </mxGeometry>
        </mxCell>
        <mxCell id="_SnUvuW7pjR6wicyARaL-19" value="&lt;font color=&quot;#0d0d0d&quot;&gt;Надпись &quot;Учебный тренажер&quot;&lt;/font&gt;" style="rounded=1;whiteSpace=wrap;html=1;arcSize=22;labelBackgroundColor=none;fillColor=#dae8fc;gradientColor=#7ea6e0;strokeColor=#6c8ebf;" parent="1" vertex="1">
          <mxGeometry x="-520" y="-420" width="120" height="40" as="geometry" />
        </mxCell>
        <mxCell id="_SnUvuW7pjR6wicyARaL-20" value="&lt;font color=&quot;#0d0d0d&quot;&gt;Логотип&amp;nbsp;&lt;br&gt;&quot;Яндекс Самокат&quot;&lt;br&gt;&lt;/font&gt;" style="rounded=1;whiteSpace=wrap;html=1;arcSize=22;labelBackgroundColor=none;fillColor=#dae8fc;gradientColor=#7ea6e0;strokeColor=#6c8ebf;" parent="1" vertex="1">
          <mxGeometry x="-520" y="-540" width="120" height="40" as="geometry" />
        </mxCell>
        <mxCell id="_SnUvuW7pjR6wicyARaL-23" value="" style="endArrow=classic;html=1;rounded=0;exitX=0;exitY=0.5;exitDx=0;exitDy=0;entryX=1;entryY=0.5;entryDx=0;entryDy=0;edgeStyle=orthogonalEdgeStyle;curved=1;" parent="1" source="_SnUvuW7pjR6wicyARaL-8" target="_SnUvuW7pjR6wicyARaL-20" edge="1">
          <mxGeometry width="50" height="50" relative="1" as="geometry">
            <mxPoint x="-320" y="-350" as="sourcePoint" />
            <mxPoint x="-270" y="-400" as="targetPoint" />
          </mxGeometry>
        </mxCell>
        <mxCell id="_SnUvuW7pjR6wicyARaL-24" value="" style="endArrow=classic;html=1;rounded=0;exitX=0;exitY=0.5;exitDx=0;exitDy=0;entryX=1;entryY=0.5;entryDx=0;entryDy=0;edgeStyle=orthogonalEdgeStyle;curved=1;" parent="1" source="_SnUvuW7pjR6wicyARaL-8" target="_SnUvuW7pjR6wicyARaL-19" edge="1">
          <mxGeometry width="50" height="50" relative="1" as="geometry">
            <mxPoint x="-360" y="-340" as="sourcePoint" />
            <mxPoint x="-310" y="-390" as="targetPoint" />
          </mxGeometry>
        </mxCell>
        <mxCell id="_SnUvuW7pjR6wicyARaL-25" value="&lt;font color=&quot;#0d0d0d&quot;&gt;&quot;Самокат&quot;&lt;/font&gt;" style="rounded=1;whiteSpace=wrap;html=1;arcSize=22;labelBackgroundColor=none;fillColor=#dae8fc;gradientColor=#7ea6e0;strokeColor=#6c8ebf;" parent="1" vertex="1">
          <mxGeometry x="-700" y="-490" width="120" height="40" as="geometry" />
        </mxCell>
        <mxCell id="_SnUvuW7pjR6wicyARaL-26" value="&lt;font color=&quot;#0d0d0d&quot;&gt;&quot;Яндекс&quot;&lt;/font&gt;" style="rounded=1;whiteSpace=wrap;html=1;arcSize=22;labelBackgroundColor=none;fillColor=#dae8fc;gradientColor=#7ea6e0;strokeColor=#6c8ebf;" parent="1" vertex="1">
          <mxGeometry x="-700" y="-590" width="120" height="40" as="geometry" />
        </mxCell>
        <mxCell id="_SnUvuW7pjR6wicyARaL-28" value="" style="endArrow=classic;html=1;rounded=0;exitX=0;exitY=0.5;exitDx=0;exitDy=0;entryX=1;entryY=0.5;entryDx=0;entryDy=0;edgeStyle=orthogonalEdgeStyle;curved=1;" parent="1" source="_SnUvuW7pjR6wicyARaL-20" target="_SnUvuW7pjR6wicyARaL-26" edge="1">
          <mxGeometry width="50" height="50" relative="1" as="geometry">
            <mxPoint x="-690" y="-380" as="sourcePoint" />
            <mxPoint x="-640" y="-430" as="targetPoint" />
          </mxGeometry>
        </mxCell>
        <mxCell id="_SnUvuW7pjR6wicyARaL-29" value="" style="endArrow=classic;html=1;rounded=0;exitX=0;exitY=0.5;exitDx=0;exitDy=0;entryX=1;entryY=0.5;entryDx=0;entryDy=0;edgeStyle=orthogonalEdgeStyle;curved=1;" parent="1" source="_SnUvuW7pjR6wicyARaL-20" target="_SnUvuW7pjR6wicyARaL-25" edge="1">
          <mxGeometry width="50" height="50" relative="1" as="geometry">
            <mxPoint x="-670" y="-360" as="sourcePoint" />
            <mxPoint x="-620" y="-410" as="targetPoint" />
          </mxGeometry>
        </mxCell>
        <mxCell id="_SnUvuW7pjR6wicyARaL-30" value="&lt;font color=&quot;#050505&quot;&gt;Шапка&lt;/font&gt;" style="rounded=1;whiteSpace=wrap;html=1;arcSize=22;labelBackgroundColor=none;fillColor=#f5f5f5;gradientColor=#b3b3b3;strokeColor=#666666;" parent="1" vertex="1">
          <mxGeometry x="890" y="-540" width="120" height="40" as="geometry" />
        </mxCell>
        <mxCell id="_SnUvuW7pjR6wicyARaL-31" value="&lt;font color=&quot;#050505&quot;&gt;Правая часть&lt;/font&gt;" style="rounded=1;whiteSpace=wrap;html=1;arcSize=22;labelBackgroundColor=none;fillColor=#f5f5f5;gradientColor=#b3b3b3;strokeColor=#666666;" parent="1" vertex="1">
          <mxGeometry x="1100" y="-710" width="120" height="40" as="geometry" />
        </mxCell>
        <mxCell id="_SnUvuW7pjR6wicyARaL-32" value="" style="endArrow=classic;html=1;rounded=0;exitX=1;exitY=0.5;exitDx=0;exitDy=0;entryX=0;entryY=0.5;entryDx=0;entryDy=0;edgeStyle=entityRelationEdgeStyle;" parent="1" source="_SnUvuW7pjR6wicyARaL-4" target="_SnUvuW7pjR6wicyARaL-30" edge="1">
          <mxGeometry width="50" height="50" relative="1" as="geometry">
            <mxPoint x="710" y="240" as="sourcePoint" />
            <mxPoint x="760" y="190" as="targetPoint" />
          </mxGeometry>
        </mxCell>
        <mxCell id="_SnUvuW7pjR6wicyARaL-34" value="&lt;font color=&quot;#050505&quot;&gt;Кнопка&amp;nbsp;&lt;/font&gt;&quot;Статус заказа&quot;&lt;font color=&quot;#050505&quot;&gt;&amp;nbsp;&lt;/font&gt;" style="rounded=1;whiteSpace=wrap;html=1;arcSize=22;labelBackgroundColor=none;fillColor=#f5f5f5;gradientColor=#b3b3b3;strokeColor=#666666;" parent="1" vertex="1">
          <mxGeometry x="1310" y="-660" width="140" height="40" as="geometry" />
        </mxCell>
        <mxCell id="_SnUvuW7pjR6wicyARaL-35" value="&lt;font color=&quot;#050505&quot;&gt;Кнопка&amp;nbsp;&lt;/font&gt;&quot;Заказать&quot;" style="rounded=1;whiteSpace=wrap;html=1;arcSize=22;labelBackgroundColor=none;fillColor=#f5f5f5;gradientColor=#b3b3b3;strokeColor=#666666;" parent="1" vertex="1">
          <mxGeometry x="1310" y="-760" width="140" height="40" as="geometry" />
        </mxCell>
        <mxCell id="_SnUvuW7pjR6wicyARaL-36" value="&lt;font color=&quot;#050505&quot;&gt;Левая часть&lt;/font&gt;" style="rounded=1;whiteSpace=wrap;html=1;arcSize=22;labelBackgroundColor=none;fillColor=#f5f5f5;gradientColor=#b3b3b3;strokeColor=#666666;" parent="1" vertex="1">
          <mxGeometry x="1100" y="-430" width="120" height="40" as="geometry" />
        </mxCell>
        <mxCell id="_SnUvuW7pjR6wicyARaL-37" value="" style="endArrow=classic;html=1;rounded=0;exitX=1;exitY=0.5;exitDx=0;exitDy=0;entryX=0;entryY=0.5;entryDx=0;entryDy=0;edgeStyle=entityRelationEdgeStyle;" parent="1" source="_SnUvuW7pjR6wicyARaL-30" target="_SnUvuW7pjR6wicyARaL-31" edge="1">
          <mxGeometry width="50" height="50" relative="1" as="geometry">
            <mxPoint x="980" y="-580" as="sourcePoint" />
            <mxPoint x="1030" y="-630" as="targetPoint" />
          </mxGeometry>
        </mxCell>
        <mxCell id="_SnUvuW7pjR6wicyARaL-38" value="" style="endArrow=classic;html=1;rounded=0;exitX=1;exitY=0.5;exitDx=0;exitDy=0;entryX=0;entryY=0.5;entryDx=0;entryDy=0;edgeStyle=entityRelationEdgeStyle;" parent="1" source="_SnUvuW7pjR6wicyARaL-30" target="_SnUvuW7pjR6wicyARaL-36" edge="1">
          <mxGeometry width="50" height="50" relative="1" as="geometry">
            <mxPoint x="990" y="-400" as="sourcePoint" />
            <mxPoint x="1040" y="-450" as="targetPoint" />
          </mxGeometry>
        </mxCell>
        <mxCell id="_SnUvuW7pjR6wicyARaL-39" value="" style="endArrow=classic;html=1;rounded=0;exitX=1;exitY=0.5;exitDx=0;exitDy=0;entryX=0;entryY=0.5;entryDx=0;entryDy=0;edgeStyle=entityRelationEdgeStyle;" parent="1" source="_SnUvuW7pjR6wicyARaL-31" target="_SnUvuW7pjR6wicyARaL-35" edge="1">
          <mxGeometry width="50" height="50" relative="1" as="geometry">
            <mxPoint x="1270" y="-780" as="sourcePoint" />
            <mxPoint x="1320" y="-830" as="targetPoint" />
          </mxGeometry>
        </mxCell>
        <mxCell id="_SnUvuW7pjR6wicyARaL-40" value="" style="endArrow=classic;html=1;rounded=0;exitX=1;exitY=0.5;exitDx=0;exitDy=0;entryX=0;entryY=0.5;entryDx=0;entryDy=0;edgeStyle=entityRelationEdgeStyle;" parent="1" source="_SnUvuW7pjR6wicyARaL-31" target="_SnUvuW7pjR6wicyARaL-34" edge="1">
          <mxGeometry width="50" height="50" relative="1" as="geometry">
            <mxPoint x="1220" y="-520" as="sourcePoint" />
            <mxPoint x="1270" y="-570" as="targetPoint" />
          </mxGeometry>
        </mxCell>
        <mxCell id="_SnUvuW7pjR6wicyARaL-42" value="&lt;font color=&quot;#050505&quot;&gt;Клик по кнопке &quot;Заказать&quot; переход на&amp;nbsp; экран &quot;Сделать заказ&quot;&lt;/font&gt;" style="rounded=1;whiteSpace=wrap;html=1;arcSize=22;labelBackgroundColor=none;fillColor=#f5f5f5;gradientColor=#b3b3b3;strokeColor=#666666;" parent="1" vertex="1">
          <mxGeometry x="1520" y="-760" width="240" height="40" as="geometry" />
        </mxCell>
        <mxCell id="_SnUvuW7pjR6wicyARaL-43" value="&lt;font color=&quot;#050505&quot;&gt;Клик по кнопке &quot;&lt;/font&gt;Статус заказа&quot;&lt;font color=&quot;#050505&quot;&gt;&amp;nbsp;переход на&amp;nbsp; экран &quot;&lt;/font&gt;Номер заказа&quot;" style="rounded=1;whiteSpace=wrap;html=1;arcSize=22;labelBackgroundColor=none;fillColor=#f5f5f5;gradientColor=#b3b3b3;strokeColor=#666666;" parent="1" vertex="1">
          <mxGeometry x="1520" y="-660" width="240" height="40" as="geometry" />
        </mxCell>
        <mxCell id="_SnUvuW7pjR6wicyARaL-44" value="" style="endArrow=classic;html=1;rounded=0;exitX=1;exitY=0.5;exitDx=0;exitDy=0;entryX=0;entryY=0.5;entryDx=0;entryDy=0;edgeStyle=entityRelationEdgeStyle;" parent="1" source="_SnUvuW7pjR6wicyARaL-35" target="_SnUvuW7pjR6wicyARaL-42" edge="1">
          <mxGeometry width="50" height="50" relative="1" as="geometry">
            <mxPoint x="1480" y="-670" as="sourcePoint" />
            <mxPoint x="1530" y="-720" as="targetPoint" />
          </mxGeometry>
        </mxCell>
        <mxCell id="_SnUvuW7pjR6wicyARaL-45" value="" style="endArrow=classic;html=1;rounded=0;exitX=1;exitY=0.5;exitDx=0;exitDy=0;entryX=0;entryY=0.5;entryDx=0;entryDy=0;edgeStyle=entityRelationEdgeStyle;" parent="1" source="_SnUvuW7pjR6wicyARaL-34" target="_SnUvuW7pjR6wicyARaL-43" edge="1">
          <mxGeometry width="50" height="50" relative="1" as="geometry">
            <mxPoint x="1490" y="-510" as="sourcePoint" />
            <mxPoint x="1540" y="-560" as="targetPoint" />
          </mxGeometry>
        </mxCell>
        <mxCell id="_SnUvuW7pjR6wicyARaL-47" value="Надпись &quot;Учебный тренажер&quot;" style="rounded=1;whiteSpace=wrap;html=1;arcSize=22;labelBackgroundColor=none;fillColor=#f5f5f5;gradientColor=#b3b3b3;strokeColor=#666666;" parent="1" vertex="1">
          <mxGeometry x="1310" y="-380" width="140" height="40" as="geometry" />
        </mxCell>
        <mxCell id="_SnUvuW7pjR6wicyARaL-48" value="Логотип&amp;nbsp;&lt;br style=&quot;border-color: var(--border-color); color: rgb(13, 13, 13);&quot;&gt;&lt;span style=&quot;color: rgb(13, 13, 13);&quot;&gt;&quot;Яндекс Самокат&quot;&lt;/span&gt;" style="rounded=1;whiteSpace=wrap;html=1;arcSize=22;labelBackgroundColor=none;fillColor=#f5f5f5;gradientColor=#b3b3b3;strokeColor=#666666;" parent="1" vertex="1">
          <mxGeometry x="1310" y="-490" width="140" height="40" as="geometry" />
        </mxCell>
        <mxCell id="_SnUvuW7pjR6wicyARaL-49" value="" style="endArrow=classic;html=1;rounded=0;exitX=1;exitY=0.5;exitDx=0;exitDy=0;entryX=0;entryY=0.5;entryDx=0;entryDy=0;edgeStyle=entityRelationEdgeStyle;" parent="1" source="_SnUvuW7pjR6wicyARaL-36" target="_SnUvuW7pjR6wicyARaL-48" edge="1">
          <mxGeometry width="50" height="50" relative="1" as="geometry">
            <mxPoint x="1260" y="-270" as="sourcePoint" />
            <mxPoint x="1310" y="-320" as="targetPoint" />
          </mxGeometry>
        </mxCell>
        <mxCell id="_SnUvuW7pjR6wicyARaL-50" value="" style="endArrow=classic;html=1;rounded=0;exitX=1;exitY=0.5;exitDx=0;exitDy=0;entryX=0;entryY=0.5;entryDx=0;entryDy=0;edgeStyle=entityRelationEdgeStyle;" parent="1" source="_SnUvuW7pjR6wicyARaL-36" target="_SnUvuW7pjR6wicyARaL-47" edge="1">
          <mxGeometry width="50" height="50" relative="1" as="geometry">
            <mxPoint x="1250" y="-230" as="sourcePoint" />
            <mxPoint x="1300" y="-280" as="targetPoint" />
          </mxGeometry>
        </mxCell>
        <mxCell id="_SnUvuW7pjR6wicyARaL-52" value="&lt;font color=&quot;#050505&quot;&gt;Клик по кнопке &quot;Яндекс&lt;/font&gt;&quot;&lt;font color=&quot;#050505&quot;&gt;&amp;nbsp;переход на&amp;nbsp; главную страницу Яндекс&lt;/font&gt;" style="rounded=1;whiteSpace=wrap;html=1;arcSize=22;labelBackgroundColor=none;fillColor=#f5f5f5;gradientColor=#b3b3b3;strokeColor=#666666;" parent="1" vertex="1">
          <mxGeometry x="1520" y="-540" width="240" height="40" as="geometry" />
        </mxCell>
        <mxCell id="_SnUvuW7pjR6wicyARaL-54" value="&lt;font color=&quot;#050505&quot;&gt;Клик по кнопке&amp;nbsp;&lt;/font&gt;&quot;Яндекс Самокат&quot;&lt;font color=&quot;#050505&quot;&gt;&amp;nbsp;переход на&amp;nbsp; главную страницу Самокат&lt;/font&gt;" style="rounded=1;whiteSpace=wrap;html=1;arcSize=22;labelBackgroundColor=none;fillColor=#f5f5f5;gradientColor=#b3b3b3;strokeColor=#666666;" parent="1" vertex="1">
          <mxGeometry x="1520" y="-450" width="240" height="40" as="geometry" />
        </mxCell>
        <mxCell id="_SnUvuW7pjR6wicyARaL-55" value="" style="endArrow=classic;html=1;rounded=0;exitX=1;exitY=0.5;exitDx=0;exitDy=0;entryX=0;entryY=0.5;entryDx=0;entryDy=0;edgeStyle=entityRelationEdgeStyle;" parent="1" source="_SnUvuW7pjR6wicyARaL-48" target="_SnUvuW7pjR6wicyARaL-52" edge="1">
          <mxGeometry width="50" height="50" relative="1" as="geometry">
            <mxPoint x="1440" y="-520" as="sourcePoint" />
            <mxPoint x="1490" y="-570" as="targetPoint" />
          </mxGeometry>
        </mxCell>
        <mxCell id="_SnUvuW7pjR6wicyARaL-56" value="" style="endArrow=classic;html=1;rounded=0;exitX=1;exitY=0.5;exitDx=0;exitDy=0;entryX=0;entryY=0.5;entryDx=0;entryDy=0;edgeStyle=entityRelationEdgeStyle;" parent="1" source="_SnUvuW7pjR6wicyARaL-48" target="_SnUvuW7pjR6wicyARaL-54" edge="1">
          <mxGeometry width="50" height="50" relative="1" as="geometry">
            <mxPoint x="1540" y="-330" as="sourcePoint" />
            <mxPoint x="1590" y="-380" as="targetPoint" />
          </mxGeometry>
        </mxCell>
        <mxCell id="_SnUvuW7pjR6wicyARaL-57" value="&lt;font color=&quot;#0d0d0d&quot;&gt;Форма &quot;Про аренду&quot;&lt;/font&gt;" style="rounded=1;whiteSpace=wrap;html=1;arcSize=22;labelBackgroundColor=none;fillColor=#dae8fc;gradientColor=#7ea6e0;strokeColor=#6c8ebf;" parent="1" vertex="1">
          <mxGeometry x="-180" y="1940" width="150" height="40" as="geometry" />
        </mxCell>
        <mxCell id="_SnUvuW7pjR6wicyARaL-58" value="&lt;font color=&quot;#0d0d0d&quot;&gt;Форма &quot;Для кого самокат&quot;&lt;/font&gt;" style="rounded=1;whiteSpace=wrap;html=1;arcSize=22;labelBackgroundColor=none;fillColor=#dae8fc;gradientColor=#7ea6e0;strokeColor=#6c8ebf;" parent="1" vertex="1">
          <mxGeometry x="-150" y="280" width="150" height="40" as="geometry" />
        </mxCell>
        <mxCell id="_SnUvuW7pjR6wicyARaL-59" value="" style="endArrow=classic;html=1;rounded=0;entryX=1;entryY=0.5;entryDx=0;entryDy=0;" parent="1" target="_SnUvuW7pjR6wicyARaL-58" edge="1">
          <mxGeometry width="50" height="50" relative="1" as="geometry">
            <mxPoint x="190" y="300" as="sourcePoint" />
            <mxPoint x="90" y="240" as="targetPoint" />
          </mxGeometry>
        </mxCell>
        <mxCell id="_SnUvuW7pjR6wicyARaL-60" value="&lt;font color=&quot;#0d0d0d&quot;&gt;Заголовок формы &quot;Для кого самокат&quot;&lt;/font&gt;" style="rounded=1;whiteSpace=wrap;html=1;arcSize=22;labelBackgroundColor=none;fillColor=#dae8fc;gradientColor=#7ea6e0;strokeColor=#6c8ebf;" parent="1" vertex="1">
          <mxGeometry x="-700" y="-220" width="220" height="40" as="geometry" />
        </mxCell>
        <mxCell id="_SnUvuW7pjR6wicyARaL-61" value="&lt;font color=&quot;#0d0d0d&quot;&gt;Поле &quot;Имя&quot;&lt;br&gt;(обязательное текстовое поле для заполнения, отмечено&amp;nbsp; *,&lt;/font&gt;при клике мышкой&lt;font color=&quot;#0d0d0d&quot;&gt;&amp;nbsp;подсвечивается синим цветом)&lt;br&gt;&lt;/font&gt;" style="rounded=1;whiteSpace=wrap;html=1;arcSize=22;labelBackgroundColor=none;fillColor=#dae8fc;gradientColor=#7ea6e0;strokeColor=#6c8ebf;" parent="1" vertex="1">
          <mxGeometry x="-695" y="-40" width="220" height="70" as="geometry" />
        </mxCell>
        <mxCell id="_SnUvuW7pjR6wicyARaL-62" value="&lt;font color=&quot;#0d0d0d&quot;&gt;Поле &quot;Фамилия&quot;&lt;br&gt;&lt;/font&gt;(обязательное текстовое поле для заполнения, отмечено&amp;nbsp; *,при клике мышкой&amp;nbsp;подсвечивается синим цветом)&lt;font color=&quot;#0d0d0d&quot;&gt;&lt;br&gt;&lt;/font&gt;" style="rounded=1;whiteSpace=wrap;html=1;arcSize=22;labelBackgroundColor=none;fillColor=#dae8fc;gradientColor=#7ea6e0;strokeColor=#6c8ebf;" parent="1" vertex="1">
          <mxGeometry x="-715" y="230" width="220" height="70" as="geometry" />
        </mxCell>
        <mxCell id="_SnUvuW7pjR6wicyARaL-63" value="&lt;font color=&quot;#0d0d0d&quot;&gt;Поле &quot;&lt;/font&gt;Адрес: куда привезти самокат&quot;&amp;nbsp;&lt;br&gt;(обязательное текстовое поле для заполнения, отмечено&amp;nbsp; *,при клике мышкой&lt;font style=&quot;border-color: var(--border-color);&quot; color=&quot;#0d0d0d&quot;&gt;&amp;nbsp;подсвечивается синим цветом)&lt;/font&gt;" style="rounded=1;whiteSpace=wrap;html=1;arcSize=22;labelBackgroundColor=none;fillColor=#dae8fc;gradientColor=#7ea6e0;strokeColor=#6c8ebf;" parent="1" vertex="1">
          <mxGeometry x="-715" y="550" width="220" height="70" as="geometry" />
        </mxCell>
        <mxCell id="_SnUvuW7pjR6wicyARaL-64" value="&lt;font color=&quot;#0d0d0d&quot;&gt;Поле &quot;&lt;/font&gt;Станция метро&quot;&lt;br&gt;(обязательное текстовое поле для заполнения, отмечено&amp;nbsp; *,при клике мышкой&lt;font style=&quot;border-color: var(--border-color);&quot; color=&quot;#0d0d0d&quot;&gt;&amp;nbsp;подсвечивается синим цветом)&lt;/font&gt;" style="rounded=1;whiteSpace=wrap;html=1;arcSize=22;labelBackgroundColor=none;fillColor=#dae8fc;gradientColor=#7ea6e0;strokeColor=#6c8ebf;" parent="1" vertex="1">
          <mxGeometry x="-720" y="820" width="220" height="70" as="geometry" />
        </mxCell>
        <mxCell id="_SnUvuW7pjR6wicyARaL-65" value="&lt;font color=&quot;#0d0d0d&quot;&gt;Поле &quot;&lt;/font&gt;Телефон: на него позвонит курьер&quot;&lt;br&gt;(обязательное текстовое поле для заполнения, отмечено&amp;nbsp; *,при клике мышкой&lt;font style=&quot;border-color: var(--border-color);&quot; color=&quot;#0d0d0d&quot;&gt;&amp;nbsp;подсвечивается синим цветом)&lt;/font&gt;" style="rounded=1;whiteSpace=wrap;html=1;arcSize=22;labelBackgroundColor=none;fillColor=#dae8fc;gradientColor=#7ea6e0;strokeColor=#6c8ebf;" parent="1" vertex="1">
          <mxGeometry x="-720" y="1120" width="220" height="85" as="geometry" />
        </mxCell>
        <mxCell id="_SnUvuW7pjR6wicyARaL-66" value="&lt;font color=&quot;#0d0d0d&quot;&gt;Кнопка &quot;Дальше&quot; &lt;br&gt;Белые буквы в черном прямоугольнике&lt;/font&gt;" style="rounded=1;whiteSpace=wrap;html=1;arcSize=22;labelBackgroundColor=none;fillColor=#dae8fc;gradientColor=#7ea6e0;strokeColor=#6c8ebf;" parent="1" vertex="1">
          <mxGeometry x="-715" y="1310" width="220" height="50" as="geometry" />
        </mxCell>
        <mxCell id="_SnUvuW7pjR6wicyARaL-67" value="" style="endArrow=classic;html=1;rounded=0;entryX=1;entryY=0.5;entryDx=0;entryDy=0;exitX=0;exitY=0.5;exitDx=0;exitDy=0;edgeStyle=orthogonalEdgeStyle;curved=1;" parent="1" source="_SnUvuW7pjR6wicyARaL-3" target="_SnUvuW7pjR6wicyARaL-57" edge="1">
          <mxGeometry width="50" height="50" relative="1" as="geometry">
            <mxPoint x="190" y="300" as="sourcePoint" />
            <mxPoint x="150" y="670" as="targetPoint" />
          </mxGeometry>
        </mxCell>
        <mxCell id="_SnUvuW7pjR6wicyARaL-73" value="" style="endArrow=classic;html=1;rounded=0;exitX=0;exitY=0.5;exitDx=0;exitDy=0;entryX=1;entryY=0.5;entryDx=0;entryDy=0;edgeStyle=orthogonalEdgeStyle;curved=1;" parent="1" source="_SnUvuW7pjR6wicyARaL-58" target="_SnUvuW7pjR6wicyARaL-62" edge="1">
          <mxGeometry width="50" height="50" relative="1" as="geometry">
            <mxPoint x="-340" y="420" as="sourcePoint" />
            <mxPoint x="-290" y="370" as="targetPoint" />
          </mxGeometry>
        </mxCell>
        <mxCell id="_SnUvuW7pjR6wicyARaL-74" value="" style="endArrow=classic;html=1;rounded=0;exitX=0;exitY=0.5;exitDx=0;exitDy=0;entryX=1;entryY=0.5;entryDx=0;entryDy=0;edgeStyle=orthogonalEdgeStyle;curved=1;" parent="1" source="_SnUvuW7pjR6wicyARaL-58" target="_SnUvuW7pjR6wicyARaL-63" edge="1">
          <mxGeometry width="50" height="50" relative="1" as="geometry">
            <mxPoint x="-290" y="420" as="sourcePoint" />
            <mxPoint x="-240" y="370" as="targetPoint" />
          </mxGeometry>
        </mxCell>
        <mxCell id="_SnUvuW7pjR6wicyARaL-78" value="&lt;font color=&quot;#0d0d0d&quot;&gt;Текст выровнен по левому краю&lt;/font&gt;" style="rounded=1;whiteSpace=wrap;html=1;arcSize=22;labelBackgroundColor=none;fillColor=#dae8fc;gradientColor=#7ea6e0;strokeColor=#6c8ebf;" parent="1" vertex="1">
          <mxGeometry x="-960" y="-270" width="180" height="40" as="geometry" />
        </mxCell>
        <mxCell id="_SnUvuW7pjR6wicyARaL-79" value="&lt;font color=&quot;#0d0d0d&quot;&gt;Текст выровнен по левому краю&lt;/font&gt;" style="rounded=1;whiteSpace=wrap;html=1;arcSize=22;labelBackgroundColor=none;fillColor=#dae8fc;gradientColor=#7ea6e0;strokeColor=#6c8ebf;" parent="1" vertex="1">
          <mxGeometry x="-955" y="-70" width="180" height="40" as="geometry" />
        </mxCell>
        <mxCell id="_SnUvuW7pjR6wicyARaL-80" value="&lt;font color=&quot;#0d0d0d&quot;&gt;Текст выровнен по левому краю&lt;/font&gt;" style="rounded=1;whiteSpace=wrap;html=1;arcSize=22;labelBackgroundColor=none;fillColor=#dae8fc;gradientColor=#7ea6e0;strokeColor=#6c8ebf;" parent="1" vertex="1">
          <mxGeometry x="-955" y="170" width="180" height="40" as="geometry" />
        </mxCell>
        <mxCell id="_SnUvuW7pjR6wicyARaL-81" value="&lt;font color=&quot;#0d0d0d&quot;&gt;Текст выровнен по левому краю&lt;/font&gt;" style="rounded=1;whiteSpace=wrap;html=1;arcSize=22;labelBackgroundColor=none;fillColor=#dae8fc;gradientColor=#7ea6e0;strokeColor=#6c8ebf;" parent="1" vertex="1">
          <mxGeometry x="-960" y="470" width="180" height="40" as="geometry" />
        </mxCell>
        <mxCell id="_SnUvuW7pjR6wicyARaL-82" value="&lt;font color=&quot;#0d0d0d&quot;&gt;Текст выровнен по левому краю&lt;/font&gt;" style="rounded=1;whiteSpace=wrap;html=1;arcSize=22;labelBackgroundColor=none;fillColor=#dae8fc;gradientColor=#7ea6e0;strokeColor=#6c8ebf;" parent="1" vertex="1">
          <mxGeometry x="-955" y="720" width="180" height="40" as="geometry" />
        </mxCell>
        <mxCell id="_SnUvuW7pjR6wicyARaL-83" value="&lt;font color=&quot;#0d0d0d&quot;&gt;Текст выровнен по левому краю&lt;/font&gt;" style="rounded=1;whiteSpace=wrap;html=1;arcSize=22;labelBackgroundColor=none;fillColor=#dae8fc;gradientColor=#7ea6e0;strokeColor=#6c8ebf;" parent="1" vertex="1">
          <mxGeometry x="-955" y="1080" width="180" height="40" as="geometry" />
        </mxCell>
        <mxCell id="_SnUvuW7pjR6wicyARaL-84" value="&lt;font color=&quot;#0d0d0d&quot;&gt;Расположена справа под фомой &quot;Для кого самокат&quot;&lt;/font&gt;" style="rounded=1;whiteSpace=wrap;html=1;arcSize=22;labelBackgroundColor=none;fillColor=#dae8fc;gradientColor=#7ea6e0;strokeColor=#6c8ebf;" parent="1" vertex="1">
          <mxGeometry x="-955" y="1315" width="180" height="40" as="geometry" />
        </mxCell>
        <mxCell id="_SnUvuW7pjR6wicyARaL-85" value="&lt;font color=&quot;#0d0d0d&quot;&gt;При вводе&amp;nbsp; названия станции,появляется выпадающий список станций&amp;nbsp;&lt;/font&gt;" style="rounded=1;whiteSpace=wrap;html=1;arcSize=22;labelBackgroundColor=none;fillColor=#dae8fc;gradientColor=#7ea6e0;strokeColor=#6c8ebf;" parent="1" vertex="1">
          <mxGeometry x="-960" y="930" width="180" height="50" as="geometry" />
        </mxCell>
        <mxCell id="_SnUvuW7pjR6wicyARaL-86" value="&lt;font color=&quot;#0d0d0d&quot;&gt;Слева от названия станции круглая точка согласно цвету ее линии&lt;/font&gt;" style="rounded=1;whiteSpace=wrap;html=1;arcSize=22;labelBackgroundColor=none;fillColor=#dae8fc;gradientColor=#7ea6e0;strokeColor=#6c8ebf;" parent="1" vertex="1">
          <mxGeometry x="-960" y="790" width="180" height="40" as="geometry" />
        </mxCell>
        <mxCell id="_SnUvuW7pjR6wicyARaL-90" value="" style="endArrow=classic;html=1;rounded=0;exitX=0;exitY=0.5;exitDx=0;exitDy=0;entryX=1;entryY=0.5;entryDx=0;entryDy=0;edgeStyle=orthogonalEdgeStyle;curved=1;" parent="1" source="_SnUvuW7pjR6wicyARaL-65" target="_SnUvuW7pjR6wicyARaL-83" edge="1">
          <mxGeometry width="50" height="50" relative="1" as="geometry">
            <mxPoint x="-730" y="1127.5" as="sourcePoint" />
            <mxPoint x="-680" y="1077.5" as="targetPoint" />
          </mxGeometry>
        </mxCell>
        <mxCell id="_SnUvuW7pjR6wicyARaL-91" value="" style="endArrow=classic;html=1;rounded=0;exitX=0;exitY=0.5;exitDx=0;exitDy=0;entryX=1;entryY=0.5;entryDx=0;entryDy=0;edgeStyle=orthogonalEdgeStyle;curved=1;" parent="1" source="_SnUvuW7pjR6wicyARaL-66" target="_SnUvuW7pjR6wicyARaL-84" edge="1">
          <mxGeometry width="50" height="50" relative="1" as="geometry">
            <mxPoint x="-755" y="1450" as="sourcePoint" />
            <mxPoint x="-705" y="1400" as="targetPoint" />
          </mxGeometry>
        </mxCell>
        <mxCell id="_SnUvuW7pjR6wicyARaL-92" value="" style="endArrow=classic;html=1;rounded=0;exitX=0;exitY=0.5;exitDx=0;exitDy=0;entryX=1;entryY=0.5;entryDx=0;entryDy=0;edgeStyle=orthogonalEdgeStyle;curved=1;" parent="1" source="_SnUvuW7pjR6wicyARaL-60" target="_SnUvuW7pjR6wicyARaL-78" edge="1">
          <mxGeometry width="50" height="50" relative="1" as="geometry">
            <mxPoint x="-720" y="-210" as="sourcePoint" />
            <mxPoint x="-670" y="-260" as="targetPoint" />
          </mxGeometry>
        </mxCell>
        <mxCell id="_SnUvuW7pjR6wicyARaL-93" value="" style="endArrow=classic;html=1;rounded=0;exitX=0;exitY=0.5;exitDx=0;exitDy=0;entryX=1;entryY=0.5;entryDx=0;entryDy=0;edgeStyle=orthogonalEdgeStyle;curved=1;" parent="1" source="_SnUvuW7pjR6wicyARaL-61" target="_SnUvuW7pjR6wicyARaL-79" edge="1">
          <mxGeometry width="50" height="50" relative="1" as="geometry">
            <mxPoint x="-1035" y="70" as="sourcePoint" />
            <mxPoint x="-985" y="20" as="targetPoint" />
          </mxGeometry>
        </mxCell>
        <mxCell id="_SnUvuW7pjR6wicyARaL-94" value="" style="endArrow=classic;html=1;rounded=0;exitX=0;exitY=0.5;exitDx=0;exitDy=0;entryX=1;entryY=0.5;entryDx=0;entryDy=0;edgeStyle=orthogonalEdgeStyle;curved=1;" parent="1" source="_SnUvuW7pjR6wicyARaL-62" target="_SnUvuW7pjR6wicyARaL-80" edge="1">
          <mxGeometry width="50" height="50" relative="1" as="geometry">
            <mxPoint x="-1065" y="330" as="sourcePoint" />
            <mxPoint x="-755" y="290" as="targetPoint" />
          </mxGeometry>
        </mxCell>
        <mxCell id="_SnUvuW7pjR6wicyARaL-95" value="" style="endArrow=classic;html=1;rounded=0;exitX=0;exitY=0.5;exitDx=0;exitDy=0;entryX=1;entryY=0.5;entryDx=0;entryDy=0;edgeStyle=orthogonalEdgeStyle;curved=1;" parent="1" source="_SnUvuW7pjR6wicyARaL-63" target="_SnUvuW7pjR6wicyARaL-81" edge="1">
          <mxGeometry width="50" height="50" relative="1" as="geometry">
            <mxPoint x="-790" y="540" as="sourcePoint" />
            <mxPoint x="-740" y="490" as="targetPoint" />
          </mxGeometry>
        </mxCell>
        <mxCell id="_SnUvuW7pjR6wicyARaL-97" value="Форма &quot;Для кого самокат&quot;" style="rounded=1;whiteSpace=wrap;html=1;arcSize=22;labelBackgroundColor=none;fillColor=#f5f5f5;gradientColor=#b3b3b3;strokeColor=#666666;" parent="1" vertex="1">
          <mxGeometry x="830" y="280" width="150" height="40" as="geometry" />
        </mxCell>
        <mxCell id="_SnUvuW7pjR6wicyARaL-98" value="" style="endArrow=classic;html=1;rounded=0;exitX=1;exitY=0.5;exitDx=0;exitDy=0;entryX=0;entryY=0.5;entryDx=0;entryDy=0;edgeStyle=entityRelationEdgeStyle;" parent="1" source="_SnUvuW7pjR6wicyARaL-4" target="_SnUvuW7pjR6wicyARaL-97" edge="1">
          <mxGeometry width="50" height="50" relative="1" as="geometry">
            <mxPoint x="700" y="460" as="sourcePoint" />
            <mxPoint x="750" y="410" as="targetPoint" />
            <Array as="points">
              <mxPoint x="640" y="300" />
            </Array>
          </mxGeometry>
        </mxCell>
        <mxCell id="_SnUvuW7pjR6wicyARaL-99" value="&lt;font color=&quot;#050505&quot;&gt;Поле &quot;Имя&quot;&lt;br&gt;(текстовое поле)&lt;br&gt;&lt;/font&gt;" style="rounded=1;whiteSpace=wrap;html=1;arcSize=22;labelBackgroundColor=none;fillColor=#f5f5f5;gradientColor=#b3b3b3;strokeColor=#666666;" parent="1" vertex="1">
          <mxGeometry x="1070" y="-20" width="160" height="40" as="geometry" />
        </mxCell>
        <mxCell id="_SnUvuW7pjR6wicyARaL-100" value="" style="endArrow=classic;html=1;rounded=0;exitX=1;exitY=0.5;exitDx=0;exitDy=0;entryX=0;entryY=0.5;entryDx=0;entryDy=0;edgeStyle=entityRelationEdgeStyle;" parent="1" source="_SnUvuW7pjR6wicyARaL-97" target="_SnUvuW7pjR6wicyARaL-99" edge="1">
          <mxGeometry width="50" height="50" relative="1" as="geometry">
            <mxPoint x="1030" y="140" as="sourcePoint" />
            <mxPoint x="1070" y="40" as="targetPoint" />
          </mxGeometry>
        </mxCell>
        <mxCell id="_SnUvuW7pjR6wicyARaL-101" value="&lt;font color=&quot;#050505&quot;&gt;Обязательное поле для заполнения&lt;/font&gt;" style="rounded=1;whiteSpace=wrap;html=1;arcSize=22;labelBackgroundColor=none;fillColor=#f5f5f5;gradientColor=#b3b3b3;strokeColor=#666666;" parent="1" vertex="1">
          <mxGeometry x="1390" y="-230" width="200" height="40" as="geometry" />
        </mxCell>
        <mxCell id="_SnUvuW7pjR6wicyARaL-102" value="&lt;font color=&quot;#050505&quot;&gt;Только русский алфовит&lt;/font&gt;" style="rounded=1;whiteSpace=wrap;html=1;arcSize=22;labelBackgroundColor=none;fillColor=#f5f5f5;gradientColor=#b3b3b3;strokeColor=#666666;" parent="1" vertex="1">
          <mxGeometry x="1390" y="-150" width="200" height="40" as="geometry" />
        </mxCell>
        <mxCell id="_SnUvuW7pjR6wicyARaL-103" value="&lt;font color=&quot;#050505&quot;&gt;Пробел&lt;/font&gt;" style="rounded=1;whiteSpace=wrap;html=1;arcSize=22;labelBackgroundColor=none;fillColor=#f5f5f5;gradientColor=#b3b3b3;strokeColor=#666666;" parent="1" vertex="1">
          <mxGeometry x="1390" y="-70" width="200" height="40" as="geometry" />
        </mxCell>
        <mxCell id="_SnUvuW7pjR6wicyARaL-104" value="&lt;font color=&quot;#050505&quot;&gt;Тире&lt;/font&gt;" style="rounded=1;whiteSpace=wrap;html=1;arcSize=22;labelBackgroundColor=none;fillColor=#f5f5f5;gradientColor=#b3b3b3;strokeColor=#666666;" parent="1" vertex="1">
          <mxGeometry x="1390" y="10" width="200" height="40" as="geometry" />
        </mxCell>
        <mxCell id="_SnUvuW7pjR6wicyARaL-105" value="&lt;font color=&quot;#050505&quot;&gt;Длинна от 2 до 15 символов&lt;/font&gt;" style="rounded=1;whiteSpace=wrap;html=1;arcSize=22;labelBackgroundColor=none;fillColor=#f5f5f5;gradientColor=#b3b3b3;strokeColor=#666666;" parent="1" vertex="1">
          <mxGeometry x="1390" y="80" width="200" height="40" as="geometry" />
        </mxCell>
        <mxCell id="_SnUvuW7pjR6wicyARaL-106" value="При некорректном вводе&amp;nbsp; (неправильном заполнении поля или оставлении поля не заполненным)" style="rounded=1;whiteSpace=wrap;html=1;arcSize=22;labelBackgroundColor=none;fillColor=#f5f5f5;gradientColor=#b3b3b3;strokeColor=#666666;" parent="1" vertex="1">
          <mxGeometry x="1390" y="170" width="200" height="60" as="geometry" />
        </mxCell>
        <mxCell id="_SnUvuW7pjR6wicyARaL-107" value="&lt;font color=&quot;#050505&quot;&gt;Поле подсвечивается красным цветом&lt;/font&gt;" style="rounded=1;whiteSpace=wrap;html=1;arcSize=22;labelBackgroundColor=none;fillColor=#f5f5f5;gradientColor=#b3b3b3;strokeColor=#666666;" parent="1" vertex="1">
          <mxGeometry x="1660" y="120" width="270" height="40" as="geometry" />
        </mxCell>
        <mxCell id="_SnUvuW7pjR6wicyARaL-108" value="&lt;font color=&quot;#050505&quot;&gt;Текст ошибки &quot;Введите корректное имя&quot;&lt;br&gt;цвет текста красный&lt;/font&gt;" style="rounded=1;whiteSpace=wrap;html=1;arcSize=22;labelBackgroundColor=none;fillColor=#f5f5f5;gradientColor=#b3b3b3;strokeColor=#666666;" parent="1" vertex="1">
          <mxGeometry x="1660" y="220" width="270" height="40" as="geometry" />
        </mxCell>
        <mxCell id="_SnUvuW7pjR6wicyARaL-110" value="" style="endArrow=classic;html=1;rounded=0;exitX=1;exitY=0.5;exitDx=0;exitDy=0;entryX=0;entryY=0.5;entryDx=0;entryDy=0;edgeStyle=entityRelationEdgeStyle;" parent="1" source="_SnUvuW7pjR6wicyARaL-106" target="_SnUvuW7pjR6wicyARaL-107" edge="1">
          <mxGeometry width="50" height="50" relative="1" as="geometry">
            <mxPoint x="1590" y="310" as="sourcePoint" />
            <mxPoint x="1640" y="260" as="targetPoint" />
          </mxGeometry>
        </mxCell>
        <mxCell id="_SnUvuW7pjR6wicyARaL-111" value="" style="endArrow=classic;html=1;rounded=0;exitX=1;exitY=0.5;exitDx=0;exitDy=0;entryX=0;entryY=0.5;entryDx=0;entryDy=0;edgeStyle=entityRelationEdgeStyle;" parent="1" source="_SnUvuW7pjR6wicyARaL-106" target="_SnUvuW7pjR6wicyARaL-108" edge="1">
          <mxGeometry width="50" height="50" relative="1" as="geometry">
            <mxPoint x="1510" y="340" as="sourcePoint" />
            <mxPoint x="1560" y="290" as="targetPoint" />
          </mxGeometry>
        </mxCell>
        <mxCell id="_SnUvuW7pjR6wicyARaL-112" value="" style="endArrow=classic;html=1;rounded=0;exitX=1;exitY=0.5;exitDx=0;exitDy=0;entryX=0;entryY=0.5;entryDx=0;entryDy=0;edgeStyle=entityRelationEdgeStyle;" parent="1" source="_SnUvuW7pjR6wicyARaL-99" target="_SnUvuW7pjR6wicyARaL-101" edge="1">
          <mxGeometry width="50" height="50" relative="1" as="geometry">
            <mxPoint x="1240" y="-130" as="sourcePoint" />
            <mxPoint x="1290" y="-180" as="targetPoint" />
          </mxGeometry>
        </mxCell>
        <mxCell id="_SnUvuW7pjR6wicyARaL-113" value="" style="endArrow=classic;html=1;rounded=0;exitX=1;exitY=0.5;exitDx=0;exitDy=0;entryX=0;entryY=0.5;entryDx=0;entryDy=0;edgeStyle=entityRelationEdgeStyle;" parent="1" source="_SnUvuW7pjR6wicyARaL-99" target="_SnUvuW7pjR6wicyARaL-102" edge="1">
          <mxGeometry width="50" height="50" relative="1" as="geometry">
            <mxPoint x="1240" y="90" as="sourcePoint" />
            <mxPoint x="1290" y="40" as="targetPoint" />
          </mxGeometry>
        </mxCell>
        <mxCell id="_SnUvuW7pjR6wicyARaL-114" value="" style="endArrow=classic;html=1;rounded=0;exitX=1;exitY=0.5;exitDx=0;exitDy=0;entryX=0;entryY=0.5;entryDx=0;entryDy=0;edgeStyle=entityRelationEdgeStyle;" parent="1" source="_SnUvuW7pjR6wicyARaL-99" target="_SnUvuW7pjR6wicyARaL-103" edge="1">
          <mxGeometry width="50" height="50" relative="1" as="geometry">
            <mxPoint x="1250" y="90" as="sourcePoint" />
            <mxPoint x="1300" y="40" as="targetPoint" />
          </mxGeometry>
        </mxCell>
        <mxCell id="_SnUvuW7pjR6wicyARaL-115" value="" style="endArrow=classic;html=1;rounded=0;exitX=1;exitY=0.5;exitDx=0;exitDy=0;entryX=0;entryY=0.5;entryDx=0;entryDy=0;edgeStyle=entityRelationEdgeStyle;" parent="1" source="_SnUvuW7pjR6wicyARaL-99" target="_SnUvuW7pjR6wicyARaL-104" edge="1">
          <mxGeometry width="50" height="50" relative="1" as="geometry">
            <mxPoint x="1240" y="110" as="sourcePoint" />
            <mxPoint x="1290" y="60" as="targetPoint" />
          </mxGeometry>
        </mxCell>
        <mxCell id="_SnUvuW7pjR6wicyARaL-116" value="" style="endArrow=classic;html=1;rounded=0;exitX=1;exitY=0.5;exitDx=0;exitDy=0;entryX=0;entryY=0.5;entryDx=0;entryDy=0;edgeStyle=entityRelationEdgeStyle;" parent="1" source="_SnUvuW7pjR6wicyARaL-99" target="_SnUvuW7pjR6wicyARaL-105" edge="1">
          <mxGeometry width="50" height="50" relative="1" as="geometry">
            <mxPoint x="1250" y="120" as="sourcePoint" />
            <mxPoint x="1300" y="70" as="targetPoint" />
          </mxGeometry>
        </mxCell>
        <mxCell id="_SnUvuW7pjR6wicyARaL-117" value="" style="endArrow=classic;html=1;rounded=0;exitX=1;exitY=0.5;exitDx=0;exitDy=0;entryX=0;entryY=0.5;entryDx=0;entryDy=0;edgeStyle=entityRelationEdgeStyle;" parent="1" source="_SnUvuW7pjR6wicyARaL-99" target="_SnUvuW7pjR6wicyARaL-106" edge="1">
          <mxGeometry width="50" height="50" relative="1" as="geometry">
            <mxPoint x="1260" y="210" as="sourcePoint" />
            <mxPoint x="1310" y="160" as="targetPoint" />
          </mxGeometry>
        </mxCell>
        <mxCell id="_SnUvuW7pjR6wicyARaL-121" value="&lt;font color=&quot;#050505&quot;&gt;Поле &quot;Фамилия&quot;&lt;br&gt;(текстовое поле)&lt;br&gt;&lt;/font&gt;" style="rounded=1;whiteSpace=wrap;html=1;arcSize=22;labelBackgroundColor=none;fillColor=#f5f5f5;gradientColor=#b3b3b3;strokeColor=#666666;" parent="1" vertex="1">
          <mxGeometry x="1140" y="535" width="160" height="40" as="geometry" />
        </mxCell>
        <mxCell id="_SnUvuW7pjR6wicyARaL-122" value="Обязательное поле для заполнения" style="rounded=1;whiteSpace=wrap;html=1;arcSize=22;labelBackgroundColor=none;fillColor=#f5f5f5;gradientColor=#b3b3b3;strokeColor=#666666;" parent="1" vertex="1">
          <mxGeometry x="1460" y="320" width="200" height="40" as="geometry" />
        </mxCell>
        <mxCell id="_SnUvuW7pjR6wicyARaL-123" value="&lt;font color=&quot;#050505&quot;&gt;Только русский алфовит&lt;/font&gt;" style="rounded=1;whiteSpace=wrap;html=1;arcSize=22;labelBackgroundColor=none;fillColor=#f5f5f5;gradientColor=#b3b3b3;strokeColor=#666666;" parent="1" vertex="1">
          <mxGeometry x="1460" y="400" width="200" height="40" as="geometry" />
        </mxCell>
        <mxCell id="_SnUvuW7pjR6wicyARaL-126" value="&lt;font color=&quot;#050505&quot;&gt;Длинна от 2 до 15 символов&lt;/font&gt;" style="rounded=1;whiteSpace=wrap;html=1;arcSize=22;labelBackgroundColor=none;fillColor=#f5f5f5;gradientColor=#b3b3b3;strokeColor=#666666;" parent="1" vertex="1">
          <mxGeometry x="1460" y="490" width="200" height="40" as="geometry" />
        </mxCell>
        <mxCell id="_SnUvuW7pjR6wicyARaL-127" value="При некорректном вводе&amp;nbsp; (неправильном заполнении поля или оставлении поля не заполненным)" style="rounded=1;whiteSpace=wrap;html=1;arcSize=22;labelBackgroundColor=none;fillColor=#f5f5f5;gradientColor=#b3b3b3;strokeColor=#666666;" parent="1" vertex="1">
          <mxGeometry x="1460" y="570" width="200" height="60" as="geometry" />
        </mxCell>
        <mxCell id="_SnUvuW7pjR6wicyARaL-128" value="&lt;font color=&quot;#050505&quot;&gt;Поле подсвечивается красным цветом&lt;/font&gt;" style="rounded=1;whiteSpace=wrap;html=1;arcSize=22;labelBackgroundColor=none;fillColor=#f5f5f5;gradientColor=#b3b3b3;strokeColor=#666666;" parent="1" vertex="1">
          <mxGeometry x="1730" y="535" width="270" height="40" as="geometry" />
        </mxCell>
        <mxCell id="_SnUvuW7pjR6wicyARaL-129" value="&lt;font color=&quot;#050505&quot;&gt;Текст ошибки &quot;Введите корректную фамилию&quot;&lt;br&gt;цвет текста красный&lt;/font&gt;" style="rounded=1;whiteSpace=wrap;html=1;arcSize=22;labelBackgroundColor=none;fillColor=#f5f5f5;gradientColor=#b3b3b3;strokeColor=#666666;" parent="1" vertex="1">
          <mxGeometry x="1730" y="630" width="270" height="40" as="geometry" />
        </mxCell>
        <mxCell id="_SnUvuW7pjR6wicyARaL-130" value="" style="endArrow=classic;html=1;rounded=0;exitX=1;exitY=0.5;exitDx=0;exitDy=0;entryX=0;entryY=0.5;entryDx=0;entryDy=0;edgeStyle=entityRelationEdgeStyle;" parent="1" source="_SnUvuW7pjR6wicyARaL-127" target="_SnUvuW7pjR6wicyARaL-128" edge="1">
          <mxGeometry width="50" height="50" relative="1" as="geometry">
            <mxPoint x="1660" y="860" as="sourcePoint" />
            <mxPoint x="1710" y="810" as="targetPoint" />
          </mxGeometry>
        </mxCell>
        <mxCell id="_SnUvuW7pjR6wicyARaL-131" value="" style="endArrow=classic;html=1;rounded=0;exitX=1;exitY=0.5;exitDx=0;exitDy=0;entryX=0;entryY=0.5;entryDx=0;entryDy=0;edgeStyle=entityRelationEdgeStyle;" parent="1" source="_SnUvuW7pjR6wicyARaL-127" target="_SnUvuW7pjR6wicyARaL-129" edge="1">
          <mxGeometry width="50" height="50" relative="1" as="geometry">
            <mxPoint x="1580" y="890" as="sourcePoint" />
            <mxPoint x="1730" y="635" as="targetPoint" />
          </mxGeometry>
        </mxCell>
        <mxCell id="_SnUvuW7pjR6wicyARaL-132" value="" style="endArrow=classic;html=1;rounded=0;exitX=1;exitY=0.5;exitDx=0;exitDy=0;entryX=0;entryY=0.5;entryDx=0;entryDy=0;edgeStyle=entityRelationEdgeStyle;" parent="1" source="_SnUvuW7pjR6wicyARaL-121" target="_SnUvuW7pjR6wicyARaL-122" edge="1">
          <mxGeometry width="50" height="50" relative="1" as="geometry">
            <mxPoint x="1310" y="420" as="sourcePoint" />
            <mxPoint x="1360" y="370" as="targetPoint" />
          </mxGeometry>
        </mxCell>
        <mxCell id="_SnUvuW7pjR6wicyARaL-133" value="" style="endArrow=classic;html=1;rounded=0;exitX=1;exitY=0.5;exitDx=0;exitDy=0;entryX=0;entryY=0.5;entryDx=0;entryDy=0;edgeStyle=entityRelationEdgeStyle;" parent="1" source="_SnUvuW7pjR6wicyARaL-121" target="_SnUvuW7pjR6wicyARaL-123" edge="1">
          <mxGeometry width="50" height="50" relative="1" as="geometry">
            <mxPoint x="1310" y="640" as="sourcePoint" />
            <mxPoint x="1360" y="590" as="targetPoint" />
          </mxGeometry>
        </mxCell>
        <mxCell id="_SnUvuW7pjR6wicyARaL-136" value="" style="endArrow=classic;html=1;rounded=0;exitX=1;exitY=0.5;exitDx=0;exitDy=0;entryX=0;entryY=0.5;entryDx=0;entryDy=0;edgeStyle=entityRelationEdgeStyle;" parent="1" source="_SnUvuW7pjR6wicyARaL-121" target="_SnUvuW7pjR6wicyARaL-126" edge="1">
          <mxGeometry width="50" height="50" relative="1" as="geometry">
            <mxPoint x="1320" y="670" as="sourcePoint" />
            <mxPoint x="1370" y="620" as="targetPoint" />
          </mxGeometry>
        </mxCell>
        <mxCell id="_SnUvuW7pjR6wicyARaL-137" value="" style="endArrow=classic;html=1;rounded=0;exitX=1;exitY=0.5;exitDx=0;exitDy=0;entryX=0;entryY=0.5;entryDx=0;entryDy=0;edgeStyle=entityRelationEdgeStyle;" parent="1" source="_SnUvuW7pjR6wicyARaL-121" target="_SnUvuW7pjR6wicyARaL-127" edge="1">
          <mxGeometry width="50" height="50" relative="1" as="geometry">
            <mxPoint x="1330" y="760" as="sourcePoint" />
            <mxPoint x="1380" y="710" as="targetPoint" />
          </mxGeometry>
        </mxCell>
        <mxCell id="_SnUvuW7pjR6wicyARaL-138" value="" style="endArrow=classic;html=1;rounded=0;exitX=1;exitY=0.5;exitDx=0;exitDy=0;entryX=0;entryY=0.5;entryDx=0;entryDy=0;edgeStyle=entityRelationEdgeStyle;" parent="1" source="_SnUvuW7pjR6wicyARaL-97" target="_SnUvuW7pjR6wicyARaL-121" edge="1">
          <mxGeometry width="50" height="50" relative="1" as="geometry">
            <mxPoint x="1020" y="520" as="sourcePoint" />
            <mxPoint x="1070" y="470" as="targetPoint" />
          </mxGeometry>
        </mxCell>
        <mxCell id="_SnUvuW7pjR6wicyARaL-139" value="&lt;font style=&quot;border-color: var(--border-color);&quot; color=&quot;#0d0d0d&quot;&gt;Поле &quot;&lt;/font&gt;Адрес: куда привезти самокат&quot;&lt;font color=&quot;#050505&quot;&gt;&lt;br&gt;(текстовое поле)&lt;br&gt;&lt;/font&gt;" style="rounded=1;whiteSpace=wrap;html=1;arcSize=22;labelBackgroundColor=none;fillColor=#f5f5f5;gradientColor=#b3b3b3;strokeColor=#666666;" parent="1" vertex="1">
          <mxGeometry x="1160" y="900" width="160" height="70" as="geometry" />
        </mxCell>
        <mxCell id="_SnUvuW7pjR6wicyARaL-140" value="&lt;font color=&quot;#050505&quot;&gt;Обязательное поле для заполнения&lt;/font&gt;" style="rounded=1;whiteSpace=wrap;html=1;arcSize=22;labelBackgroundColor=none;fillColor=#f5f5f5;gradientColor=#b3b3b3;strokeColor=#666666;" parent="1" vertex="1">
          <mxGeometry x="1460" y="730" width="200" height="40" as="geometry" />
        </mxCell>
        <mxCell id="_SnUvuW7pjR6wicyARaL-141" value="&lt;font color=&quot;#050505&quot;&gt;Только русский алфовит&lt;/font&gt;" style="rounded=1;whiteSpace=wrap;html=1;arcSize=22;labelBackgroundColor=none;fillColor=#f5f5f5;gradientColor=#b3b3b3;strokeColor=#666666;" parent="1" vertex="1">
          <mxGeometry x="1460" y="810" width="200" height="40" as="geometry" />
        </mxCell>
        <mxCell id="_SnUvuW7pjR6wicyARaL-142" value="Длинна от 5 до 50 символов" style="rounded=1;whiteSpace=wrap;html=1;arcSize=22;labelBackgroundColor=none;fillColor=#f5f5f5;gradientColor=#b3b3b3;strokeColor=#666666;" parent="1" vertex="1">
          <mxGeometry x="1460" y="970" width="200" height="40" as="geometry" />
        </mxCell>
        <mxCell id="_SnUvuW7pjR6wicyARaL-143" value="&lt;font color=&quot;#050505&quot;&gt;Тире&lt;/font&gt;" style="rounded=1;whiteSpace=wrap;html=1;arcSize=22;labelBackgroundColor=none;fillColor=#f5f5f5;gradientColor=#b3b3b3;strokeColor=#666666;" parent="1" vertex="1">
          <mxGeometry x="1460" y="1050" width="200" height="40" as="geometry" />
        </mxCell>
        <mxCell id="_SnUvuW7pjR6wicyARaL-144" value="Пробел" style="rounded=1;whiteSpace=wrap;html=1;arcSize=22;labelBackgroundColor=none;fillColor=#f5f5f5;gradientColor=#b3b3b3;strokeColor=#666666;" parent="1" vertex="1">
          <mxGeometry x="1460" y="1290" width="200" height="40" as="geometry" />
        </mxCell>
        <mxCell id="_SnUvuW7pjR6wicyARaL-145" value="При некорректном вводе&amp;nbsp; (неправильном заполнении поля или оставлении поля не заполненным)" style="rounded=1;whiteSpace=wrap;html=1;arcSize=22;labelBackgroundColor=none;fillColor=#f5f5f5;gradientColor=#b3b3b3;strokeColor=#666666;" parent="1" vertex="1">
          <mxGeometry x="1460" y="1450" width="200" height="60" as="geometry" />
        </mxCell>
        <mxCell id="_SnUvuW7pjR6wicyARaL-146" value="&lt;font color=&quot;#050505&quot;&gt;Поле подсвечивается красным цветом&lt;/font&gt;" style="rounded=1;whiteSpace=wrap;html=1;arcSize=22;labelBackgroundColor=none;fillColor=#f5f5f5;gradientColor=#b3b3b3;strokeColor=#666666;" parent="1" vertex="1">
          <mxGeometry x="1740" y="1410" width="270" height="40" as="geometry" />
        </mxCell>
        <mxCell id="_SnUvuW7pjR6wicyARaL-147" value="&lt;font color=&quot;#050505&quot;&gt;Текст ошибки &quot;Введите корректный адрес&quot;&lt;br&gt;цвет текста красный&lt;/font&gt;" style="rounded=1;whiteSpace=wrap;html=1;arcSize=22;labelBackgroundColor=none;fillColor=#f5f5f5;gradientColor=#b3b3b3;strokeColor=#666666;" parent="1" vertex="1">
          <mxGeometry x="1740" y="1520" width="270" height="40" as="geometry" />
        </mxCell>
        <mxCell id="_SnUvuW7pjR6wicyARaL-148" value="" style="endArrow=classic;html=1;rounded=0;exitX=1;exitY=0.5;exitDx=0;exitDy=0;entryX=0;entryY=0.5;entryDx=0;entryDy=0;edgeStyle=entityRelationEdgeStyle;" parent="1" source="_SnUvuW7pjR6wicyARaL-145" target="_SnUvuW7pjR6wicyARaL-146" edge="1">
          <mxGeometry width="50" height="50" relative="1" as="geometry">
            <mxPoint x="1660" y="1590" as="sourcePoint" />
            <mxPoint x="1730" y="1420" as="targetPoint" />
          </mxGeometry>
        </mxCell>
        <mxCell id="_SnUvuW7pjR6wicyARaL-149" value="" style="endArrow=classic;html=1;rounded=0;exitX=1;exitY=0.5;exitDx=0;exitDy=0;entryX=0;entryY=0.5;entryDx=0;entryDy=0;edgeStyle=entityRelationEdgeStyle;" parent="1" source="_SnUvuW7pjR6wicyARaL-145" target="_SnUvuW7pjR6wicyARaL-147" edge="1">
          <mxGeometry width="50" height="50" relative="1" as="geometry">
            <mxPoint x="1580" y="1620" as="sourcePoint" />
            <mxPoint x="1730" y="1520" as="targetPoint" />
          </mxGeometry>
        </mxCell>
        <mxCell id="_SnUvuW7pjR6wicyARaL-150" value="" style="endArrow=classic;html=1;rounded=0;exitX=1;exitY=0.5;exitDx=0;exitDy=0;entryX=0;entryY=0.5;entryDx=0;entryDy=0;edgeStyle=entityRelationEdgeStyle;" parent="1" source="_SnUvuW7pjR6wicyARaL-139" target="_SnUvuW7pjR6wicyARaL-140" edge="1">
          <mxGeometry width="50" height="50" relative="1" as="geometry">
            <mxPoint x="1310" y="820" as="sourcePoint" />
            <mxPoint x="1360" y="770" as="targetPoint" />
          </mxGeometry>
        </mxCell>
        <mxCell id="_SnUvuW7pjR6wicyARaL-151" value="" style="endArrow=classic;html=1;rounded=0;exitX=1;exitY=0.5;exitDx=0;exitDy=0;entryX=0;entryY=0.5;entryDx=0;entryDy=0;edgeStyle=entityRelationEdgeStyle;" parent="1" source="_SnUvuW7pjR6wicyARaL-139" target="_SnUvuW7pjR6wicyARaL-141" edge="1">
          <mxGeometry width="50" height="50" relative="1" as="geometry">
            <mxPoint x="1310" y="1040" as="sourcePoint" />
            <mxPoint x="1360" y="990" as="targetPoint" />
          </mxGeometry>
        </mxCell>
        <mxCell id="_SnUvuW7pjR6wicyARaL-152" value="" style="endArrow=classic;html=1;rounded=0;exitX=1;exitY=0.5;exitDx=0;exitDy=0;entryX=0;entryY=0.5;entryDx=0;entryDy=0;edgeStyle=entityRelationEdgeStyle;" parent="1" source="_SnUvuW7pjR6wicyARaL-139" target="_SnUvuW7pjR6wicyARaL-142" edge="1">
          <mxGeometry width="50" height="50" relative="1" as="geometry">
            <mxPoint x="1320" y="1040" as="sourcePoint" />
            <mxPoint x="1370" y="990" as="targetPoint" />
          </mxGeometry>
        </mxCell>
        <mxCell id="_SnUvuW7pjR6wicyARaL-153" value="" style="endArrow=classic;html=1;rounded=0;exitX=1;exitY=0.5;exitDx=0;exitDy=0;entryX=0;entryY=0.5;entryDx=0;entryDy=0;edgeStyle=entityRelationEdgeStyle;" parent="1" source="_SnUvuW7pjR6wicyARaL-139" target="_SnUvuW7pjR6wicyARaL-143" edge="1">
          <mxGeometry width="50" height="50" relative="1" as="geometry">
            <mxPoint x="1310" y="1060" as="sourcePoint" />
            <mxPoint x="1360" y="1010" as="targetPoint" />
          </mxGeometry>
        </mxCell>
        <mxCell id="_SnUvuW7pjR6wicyARaL-154" value="" style="endArrow=classic;html=1;rounded=0;exitX=1;exitY=0.5;exitDx=0;exitDy=0;entryX=0;entryY=0.5;entryDx=0;entryDy=0;edgeStyle=entityRelationEdgeStyle;" parent="1" source="_SnUvuW7pjR6wicyARaL-139" target="_SnUvuW7pjR6wicyARaL-144" edge="1">
          <mxGeometry width="50" height="50" relative="1" as="geometry">
            <mxPoint x="1320" y="1070" as="sourcePoint" />
            <mxPoint x="1370" y="1020" as="targetPoint" />
          </mxGeometry>
        </mxCell>
        <mxCell id="_SnUvuW7pjR6wicyARaL-155" value="" style="endArrow=classic;html=1;rounded=0;exitX=1;exitY=0.5;exitDx=0;exitDy=0;entryX=0;entryY=0.5;entryDx=0;entryDy=0;edgeStyle=entityRelationEdgeStyle;" parent="1" source="_SnUvuW7pjR6wicyARaL-139" target="_SnUvuW7pjR6wicyARaL-145" edge="1">
          <mxGeometry width="50" height="50" relative="1" as="geometry">
            <mxPoint x="1330" y="1160" as="sourcePoint" />
            <mxPoint x="1380" y="1110" as="targetPoint" />
          </mxGeometry>
        </mxCell>
        <mxCell id="_SnUvuW7pjR6wicyARaL-157" value="&lt;font color=&quot;#050505&quot;&gt;Точка&lt;/font&gt;" style="rounded=1;whiteSpace=wrap;html=1;arcSize=22;labelBackgroundColor=none;fillColor=#f5f5f5;gradientColor=#b3b3b3;strokeColor=#666666;" parent="1" vertex="1">
          <mxGeometry x="1460" y="1130" width="200" height="40" as="geometry" />
        </mxCell>
        <mxCell id="_SnUvuW7pjR6wicyARaL-158" value="&lt;font color=&quot;#050505&quot;&gt;Запятая&lt;/font&gt;" style="rounded=1;whiteSpace=wrap;html=1;arcSize=22;labelBackgroundColor=none;fillColor=#f5f5f5;gradientColor=#b3b3b3;strokeColor=#666666;" parent="1" vertex="1">
          <mxGeometry x="1460" y="1210" width="200" height="40" as="geometry" />
        </mxCell>
        <mxCell id="_SnUvuW7pjR6wicyARaL-159" value="&lt;font color=&quot;#050505&quot;&gt;Цифры&lt;/font&gt;" style="rounded=1;whiteSpace=wrap;html=1;arcSize=22;labelBackgroundColor=none;fillColor=#f5f5f5;gradientColor=#b3b3b3;strokeColor=#666666;" parent="1" vertex="1">
          <mxGeometry x="1460" y="890" width="200" height="40" as="geometry" />
        </mxCell>
        <mxCell id="_SnUvuW7pjR6wicyARaL-160" value="" style="endArrow=classic;html=1;rounded=0;exitX=1;exitY=0.5;exitDx=0;exitDy=0;entryX=0;entryY=0.5;entryDx=0;entryDy=0;edgeStyle=entityRelationEdgeStyle;" parent="1" source="_SnUvuW7pjR6wicyARaL-139" target="_SnUvuW7pjR6wicyARaL-159" edge="1">
          <mxGeometry width="50" height="50" relative="1" as="geometry">
            <mxPoint x="1430" y="920" as="sourcePoint" />
            <mxPoint x="1480" y="870" as="targetPoint" />
          </mxGeometry>
        </mxCell>
        <mxCell id="_SnUvuW7pjR6wicyARaL-162" value="Пробелы до и после&amp;nbsp; адреса удаляются при снятии фокуса" style="rounded=1;whiteSpace=wrap;html=1;arcSize=22;labelBackgroundColor=none;fillColor=#f5f5f5;gradientColor=#b3b3b3;strokeColor=#666666;" parent="1" vertex="1">
          <mxGeometry x="1460" y="1370" width="200" height="40" as="geometry" />
        </mxCell>
        <mxCell id="_SnUvuW7pjR6wicyARaL-163" value="" style="endArrow=classic;html=1;rounded=0;exitX=1;exitY=0.5;exitDx=0;exitDy=0;entryX=0;entryY=0.5;entryDx=0;entryDy=0;edgeStyle=entityRelationEdgeStyle;" parent="1" source="_SnUvuW7pjR6wicyARaL-139" target="_SnUvuW7pjR6wicyARaL-162" edge="1">
          <mxGeometry width="50" height="50" relative="1" as="geometry">
            <mxPoint x="1260" y="1360" as="sourcePoint" />
            <mxPoint x="1450" y="1380" as="targetPoint" />
          </mxGeometry>
        </mxCell>
        <mxCell id="_SnUvuW7pjR6wicyARaL-164" value="" style="endArrow=classic;html=1;rounded=0;exitX=1;exitY=0.5;exitDx=0;exitDy=0;entryX=0;entryY=0.5;entryDx=0;entryDy=0;edgeStyle=entityRelationEdgeStyle;" parent="1" source="_SnUvuW7pjR6wicyARaL-139" target="_SnUvuW7pjR6wicyARaL-157" edge="1">
          <mxGeometry width="50" height="50" relative="1" as="geometry">
            <mxPoint x="1420" y="1120" as="sourcePoint" />
            <mxPoint x="1470" y="1070" as="targetPoint" />
          </mxGeometry>
        </mxCell>
        <mxCell id="_SnUvuW7pjR6wicyARaL-165" value="" style="endArrow=classic;html=1;rounded=0;exitX=1;exitY=0.5;exitDx=0;exitDy=0;entryX=0;entryY=0.5;entryDx=0;entryDy=0;edgeStyle=entityRelationEdgeStyle;" parent="1" source="_SnUvuW7pjR6wicyARaL-139" target="_SnUvuW7pjR6wicyARaL-158" edge="1">
          <mxGeometry width="50" height="50" relative="1" as="geometry">
            <mxPoint x="1720" y="1170" as="sourcePoint" />
            <mxPoint x="1770" y="1120" as="targetPoint" />
          </mxGeometry>
        </mxCell>
        <mxCell id="_SnUvuW7pjR6wicyARaL-166" value="" style="endArrow=classic;html=1;rounded=0;exitX=1;exitY=0.5;exitDx=0;exitDy=0;entryX=0;entryY=0.5;entryDx=0;entryDy=0;edgeStyle=entityRelationEdgeStyle;" parent="1" source="_SnUvuW7pjR6wicyARaL-97" target="_SnUvuW7pjR6wicyARaL-139" edge="1">
          <mxGeometry width="50" height="50" relative="1" as="geometry">
            <mxPoint x="1020" y="860" as="sourcePoint" />
            <mxPoint x="1070" y="810" as="targetPoint" />
          </mxGeometry>
        </mxCell>
        <mxCell id="_SnUvuW7pjR6wicyARaL-167" value="&lt;font color=&quot;#050505&quot;&gt;Поле &quot;Станция метро&quot;&lt;br&gt;(текстовое поле с саджестом)&lt;br&gt;&lt;/font&gt;" style="rounded=1;whiteSpace=wrap;html=1;arcSize=22;labelBackgroundColor=none;fillColor=#f5f5f5;gradientColor=#b3b3b3;strokeColor=#666666;" parent="1" vertex="1">
          <mxGeometry x="1210" y="1610" width="180" height="60" as="geometry" />
        </mxCell>
        <mxCell id="_SnUvuW7pjR6wicyARaL-168" value="Станции метро Москвы&amp;nbsp;&lt;br&gt;(список метро зашит на стороне бэкенда в API)" style="rounded=1;whiteSpace=wrap;html=1;arcSize=22;labelBackgroundColor=none;fillColor=#f5f5f5;gradientColor=#b3b3b3;strokeColor=#666666;" parent="1" vertex="1">
          <mxGeometry x="1480" y="1610" width="270" height="60" as="geometry" />
        </mxCell>
        <mxCell id="_SnUvuW7pjR6wicyARaL-169" value="" style="endArrow=classic;html=1;rounded=0;exitX=1;exitY=0.5;exitDx=0;exitDy=0;entryX=0;entryY=0.5;entryDx=0;entryDy=0;edgeStyle=entityRelationEdgeStyle;" parent="1" source="_SnUvuW7pjR6wicyARaL-97" target="_SnUvuW7pjR6wicyARaL-167" edge="1">
          <mxGeometry width="50" height="50" relative="1" as="geometry">
            <mxPoint x="730" y="780" as="sourcePoint" />
            <mxPoint x="780" y="730" as="targetPoint" />
          </mxGeometry>
        </mxCell>
        <mxCell id="_SnUvuW7pjR6wicyARaL-170" value="" style="endArrow=classic;html=1;rounded=0;exitX=1;exitY=0.5;exitDx=0;exitDy=0;entryX=0;entryY=0.5;entryDx=0;entryDy=0;" parent="1" source="_SnUvuW7pjR6wicyARaL-167" target="_SnUvuW7pjR6wicyARaL-168" edge="1">
          <mxGeometry width="50" height="50" relative="1" as="geometry">
            <mxPoint x="1330" y="1780" as="sourcePoint" />
            <mxPoint x="1380" y="1730" as="targetPoint" />
          </mxGeometry>
        </mxCell>
        <mxCell id="_SnUvuW7pjR6wicyARaL-171" value="&lt;font style=&quot;border-color: var(--border-color);&quot; color=&quot;#0d0d0d&quot;&gt;Поле &quot;&lt;/font&gt;Телефон: на него позвонит курьер&lt;font color=&quot;#050505&quot;&gt;&lt;br&gt;(текстовое поле)&lt;br&gt;&lt;/font&gt;" style="rounded=1;whiteSpace=wrap;html=1;arcSize=22;labelBackgroundColor=none;fillColor=#f5f5f5;gradientColor=#b3b3b3;strokeColor=#666666;" parent="1" vertex="1">
          <mxGeometry x="1185" y="1934" width="230" height="50" as="geometry" />
        </mxCell>
        <mxCell id="_SnUvuW7pjR6wicyARaL-172" value="" style="endArrow=classic;html=1;rounded=0;entryX=0;entryY=0.5;entryDx=0;entryDy=0;exitX=1;exitY=0.5;exitDx=0;exitDy=0;edgeStyle=entityRelationEdgeStyle;" parent="1" source="_SnUvuW7pjR6wicyARaL-97" target="_SnUvuW7pjR6wicyARaL-171" edge="1">
          <mxGeometry width="50" height="50" relative="1" as="geometry">
            <mxPoint x="900" y="1870" as="sourcePoint" />
            <mxPoint x="950" y="1820" as="targetPoint" />
          </mxGeometry>
        </mxCell>
        <mxCell id="_SnUvuW7pjR6wicyARaL-173" value="Обязательное поле для заполнения" style="rounded=1;whiteSpace=wrap;html=1;arcSize=22;labelBackgroundColor=none;fillColor=#f5f5f5;gradientColor=#b3b3b3;strokeColor=#666666;" parent="1" vertex="1">
          <mxGeometry x="1495" y="1754" width="200" height="40" as="geometry" />
        </mxCell>
        <mxCell id="_SnUvuW7pjR6wicyARaL-174" value="Цифры" style="rounded=1;whiteSpace=wrap;html=1;arcSize=22;labelBackgroundColor=none;fillColor=#f5f5f5;gradientColor=#b3b3b3;strokeColor=#666666;" parent="1" vertex="1">
          <mxGeometry x="1495" y="1844" width="200" height="40" as="geometry" />
        </mxCell>
        <mxCell id="_SnUvuW7pjR6wicyARaL-175" value="&lt;font color=&quot;#050505&quot;&gt;Знак &quot;+&quot;&lt;/font&gt;" style="rounded=1;whiteSpace=wrap;html=1;arcSize=22;labelBackgroundColor=none;fillColor=#f5f5f5;gradientColor=#b3b3b3;strokeColor=#666666;" parent="1" vertex="1">
          <mxGeometry x="1495" y="1939" width="200" height="40" as="geometry" />
        </mxCell>
        <mxCell id="_SnUvuW7pjR6wicyARaL-176" value="Длинна от 10 до 12 символов" style="rounded=1;whiteSpace=wrap;html=1;arcSize=22;labelBackgroundColor=none;fillColor=#f5f5f5;gradientColor=#b3b3b3;strokeColor=#666666;" parent="1" vertex="1">
          <mxGeometry x="1495" y="2044" width="200" height="40" as="geometry" />
        </mxCell>
        <mxCell id="_SnUvuW7pjR6wicyARaL-177" value="При некорректном вводе&amp;nbsp; (неправильном заполнении поля или оставлении поля не заполненным)" style="rounded=1;whiteSpace=wrap;html=1;arcSize=22;labelBackgroundColor=none;fillColor=#f5f5f5;gradientColor=#b3b3b3;strokeColor=#666666;" parent="1" vertex="1">
          <mxGeometry x="1495" y="2154" width="200" height="60" as="geometry" />
        </mxCell>
        <mxCell id="_SnUvuW7pjR6wicyARaL-178" value="&lt;font color=&quot;#050505&quot;&gt;Поле подсвечивается красным цветом&lt;/font&gt;" style="rounded=1;whiteSpace=wrap;html=1;arcSize=22;labelBackgroundColor=none;fillColor=#f5f5f5;gradientColor=#b3b3b3;strokeColor=#666666;" parent="1" vertex="1">
          <mxGeometry x="1775" y="2114" width="270" height="40" as="geometry" />
        </mxCell>
        <mxCell id="_SnUvuW7pjR6wicyARaL-179" value="&lt;font color=&quot;#050505&quot;&gt;Текст ошибки &quot;Введите корректный телефон&quot;&lt;br&gt;цвет текста красный&lt;/font&gt;" style="rounded=1;whiteSpace=wrap;html=1;arcSize=22;labelBackgroundColor=none;fillColor=#f5f5f5;gradientColor=#b3b3b3;strokeColor=#666666;" parent="1" vertex="1">
          <mxGeometry x="1775" y="2224" width="270" height="40" as="geometry" />
        </mxCell>
        <mxCell id="_SnUvuW7pjR6wicyARaL-180" value="" style="endArrow=classic;html=1;rounded=0;exitX=1;exitY=0.5;exitDx=0;exitDy=0;entryX=0;entryY=0.5;entryDx=0;entryDy=0;edgeStyle=entityRelationEdgeStyle;" parent="1" source="_SnUvuW7pjR6wicyARaL-177" target="_SnUvuW7pjR6wicyARaL-178" edge="1">
          <mxGeometry width="50" height="50" relative="1" as="geometry">
            <mxPoint x="1592.5" y="2294" as="sourcePoint" />
            <mxPoint x="1662.5" y="2124" as="targetPoint" />
          </mxGeometry>
        </mxCell>
        <mxCell id="_SnUvuW7pjR6wicyARaL-181" value="" style="endArrow=classic;html=1;rounded=0;exitX=1;exitY=0.5;exitDx=0;exitDy=0;entryX=0;entryY=0.5;entryDx=0;entryDy=0;edgeStyle=entityRelationEdgeStyle;" parent="1" source="_SnUvuW7pjR6wicyARaL-177" target="_SnUvuW7pjR6wicyARaL-179" edge="1">
          <mxGeometry width="50" height="50" relative="1" as="geometry">
            <mxPoint x="1512.5" y="2324" as="sourcePoint" />
            <mxPoint x="1662.5" y="2224" as="targetPoint" />
          </mxGeometry>
        </mxCell>
        <mxCell id="_SnUvuW7pjR6wicyARaL-182" value="" style="endArrow=classic;html=1;rounded=0;entryX=0;entryY=0.5;entryDx=0;entryDy=0;exitX=1;exitY=0.5;exitDx=0;exitDy=0;edgeStyle=entityRelationEdgeStyle;" parent="1" source="_SnUvuW7pjR6wicyARaL-171" target="_SnUvuW7pjR6wicyARaL-173" edge="1">
          <mxGeometry width="50" height="50" relative="1" as="geometry">
            <mxPoint x="1415" y="1834" as="sourcePoint" />
            <mxPoint x="1465" y="1784" as="targetPoint" />
          </mxGeometry>
        </mxCell>
        <mxCell id="_SnUvuW7pjR6wicyARaL-183" value="" style="endArrow=classic;html=1;rounded=0;exitX=1;exitY=0.5;exitDx=0;exitDy=0;entryX=0;entryY=0.5;entryDx=0;entryDy=0;edgeStyle=entityRelationEdgeStyle;" parent="1" source="_SnUvuW7pjR6wicyARaL-171" target="_SnUvuW7pjR6wicyARaL-174" edge="1">
          <mxGeometry width="50" height="50" relative="1" as="geometry">
            <mxPoint x="1365" y="2084" as="sourcePoint" />
            <mxPoint x="1415" y="2034" as="targetPoint" />
          </mxGeometry>
        </mxCell>
        <mxCell id="_SnUvuW7pjR6wicyARaL-184" value="" style="endArrow=classic;html=1;rounded=0;exitX=1;exitY=0.5;exitDx=0;exitDy=0;entryX=0;entryY=0.5;entryDx=0;entryDy=0;edgeStyle=entityRelationEdgeStyle;" parent="1" source="_SnUvuW7pjR6wicyARaL-171" target="_SnUvuW7pjR6wicyARaL-175" edge="1">
          <mxGeometry width="50" height="50" relative="1" as="geometry">
            <mxPoint x="1405" y="2044" as="sourcePoint" />
            <mxPoint x="1455" y="1994" as="targetPoint" />
          </mxGeometry>
        </mxCell>
        <mxCell id="_SnUvuW7pjR6wicyARaL-185" value="" style="endArrow=classic;html=1;rounded=0;exitX=1;exitY=0.5;exitDx=0;exitDy=0;entryX=0;entryY=0.5;entryDx=0;entryDy=0;edgeStyle=entityRelationEdgeStyle;" parent="1" source="_SnUvuW7pjR6wicyARaL-171" target="_SnUvuW7pjR6wicyARaL-176" edge="1">
          <mxGeometry width="50" height="50" relative="1" as="geometry">
            <mxPoint x="1405" y="2124" as="sourcePoint" />
            <mxPoint x="1455" y="2074" as="targetPoint" />
          </mxGeometry>
        </mxCell>
        <mxCell id="_SnUvuW7pjR6wicyARaL-186" value="" style="endArrow=classic;html=1;rounded=0;exitX=1;exitY=0.5;exitDx=0;exitDy=0;entryX=0;entryY=0.5;entryDx=0;entryDy=0;edgeStyle=entityRelationEdgeStyle;" parent="1" source="_SnUvuW7pjR6wicyARaL-171" target="_SnUvuW7pjR6wicyARaL-177" edge="1">
          <mxGeometry width="50" height="50" relative="1" as="geometry">
            <mxPoint x="1312.5" y="2204" as="sourcePoint" />
            <mxPoint x="1362.5" y="2154" as="targetPoint" />
          </mxGeometry>
        </mxCell>
        <mxCell id="_SnUvuW7pjR6wicyARaL-187" value="Кнопка &quot;Дальше&quot;&lt;font color=&quot;#050505&quot;&gt;&lt;br&gt;&lt;/font&gt;" style="rounded=1;whiteSpace=wrap;html=1;arcSize=22;labelBackgroundColor=none;fillColor=#f5f5f5;gradientColor=#b3b3b3;strokeColor=#666666;" parent="1" vertex="1">
          <mxGeometry x="1185" y="2360" width="180" height="60" as="geometry" />
        </mxCell>
        <mxCell id="_SnUvuW7pjR6wicyARaL-188" value="" style="endArrow=classic;html=1;rounded=0;entryX=0;entryY=0.5;entryDx=0;entryDy=0;exitX=1;exitY=0.5;exitDx=0;exitDy=0;edgeStyle=entityRelationEdgeStyle;" parent="1" source="_SnUvuW7pjR6wicyARaL-97" target="_SnUvuW7pjR6wicyARaL-187" edge="1">
          <mxGeometry width="50" height="50" relative="1" as="geometry">
            <mxPoint x="770" y="2100" as="sourcePoint" />
            <mxPoint x="820" y="2050" as="targetPoint" />
          </mxGeometry>
        </mxCell>
        <mxCell id="_SnUvuW7pjR6wicyARaL-189" value="Клик по кнопке переводит на форму &quot;Про аренду&quot;&lt;br&gt;&lt;font color=&quot;#050505&quot;&gt;(если все поля формы &quot;Для кого самокат&quot; заполнены корректно)&lt;br&gt;&lt;/font&gt;" style="rounded=1;whiteSpace=wrap;html=1;arcSize=22;labelBackgroundColor=none;fillColor=#f5f5f5;gradientColor=#b3b3b3;strokeColor=#666666;" parent="1" vertex="1">
          <mxGeometry x="1465" y="2360" width="380" height="60" as="geometry" />
        </mxCell>
        <mxCell id="_SnUvuW7pjR6wicyARaL-190" value="" style="endArrow=classic;html=1;rounded=0;exitX=1;exitY=0.5;exitDx=0;exitDy=0;entryX=0;entryY=0.5;entryDx=0;entryDy=0;" parent="1" source="_SnUvuW7pjR6wicyARaL-187" target="_SnUvuW7pjR6wicyARaL-189" edge="1">
          <mxGeometry width="50" height="50" relative="1" as="geometry">
            <mxPoint x="1385" y="2360" as="sourcePoint" />
            <mxPoint x="1435" y="2310" as="targetPoint" />
          </mxGeometry>
        </mxCell>
        <mxCell id="_SnUvuW7pjR6wicyARaL-192" value="&lt;font color=&quot;#0d0d0d&quot;&gt;Заголовок формы &quot;Про аренду&quot;&lt;/font&gt;" style="rounded=1;whiteSpace=wrap;html=1;arcSize=22;labelBackgroundColor=none;fillColor=#dae8fc;gradientColor=#7ea6e0;strokeColor=#6c8ebf;" parent="1" vertex="1">
          <mxGeometry x="-795" y="1600" width="320" height="40" as="geometry" />
        </mxCell>
        <mxCell id="_SnUvuW7pjR6wicyARaL-193" value="" style="endArrow=classic;html=1;rounded=0;exitX=0;exitY=0.5;exitDx=0;exitDy=0;entryX=1;entryY=0.5;entryDx=0;entryDy=0;edgeStyle=orthogonalEdgeStyle;curved=1;" parent="1" source="_SnUvuW7pjR6wicyARaL-57" target="_SnUvuW7pjR6wicyARaL-192" edge="1">
          <mxGeometry width="50" height="50" relative="1" as="geometry">
            <mxPoint x="-290" y="1900" as="sourcePoint" />
            <mxPoint x="-240" y="1850" as="targetPoint" />
          </mxGeometry>
        </mxCell>
        <mxCell id="_SnUvuW7pjR6wicyARaL-194" value="&lt;font color=&quot;#0d0d0d&quot;&gt;Поле &quot;Когда привезти самокат&quot;&lt;br&gt;(выпадающий календарь)&lt;br&gt;&lt;/font&gt;(обязательное текстовое поле для заполнения, отмечено&amp;nbsp; *,при клике мышкой&lt;font style=&quot;border-color: var(--border-color);&quot; color=&quot;#0d0d0d&quot;&gt;&amp;nbsp;подсвечивается синим цветом)&lt;/font&gt;&lt;font color=&quot;#0d0d0d&quot;&gt;&lt;br&gt;&lt;/font&gt;" style="rounded=1;whiteSpace=wrap;html=1;arcSize=22;labelBackgroundColor=none;fillColor=#dae8fc;gradientColor=#7ea6e0;strokeColor=#6c8ebf;" parent="1" vertex="1">
          <mxGeometry x="-820" y="1920" width="320" height="72.5" as="geometry" />
        </mxCell>
        <mxCell id="_SnUvuW7pjR6wicyARaL-195" value="" style="endArrow=classic;html=1;rounded=0;exitX=0;exitY=0.5;exitDx=0;exitDy=0;entryX=1;entryY=0.5;entryDx=0;entryDy=0;edgeStyle=orthogonalEdgeStyle;curved=1;" parent="1" source="_SnUvuW7pjR6wicyARaL-57" target="_SnUvuW7pjR6wicyARaL-194" edge="1">
          <mxGeometry width="50" height="50" relative="1" as="geometry">
            <mxPoint x="-380" y="2030" as="sourcePoint" />
            <mxPoint x="-330" y="1980" as="targetPoint" />
          </mxGeometry>
        </mxCell>
        <mxCell id="_SnUvuW7pjR6wicyARaL-196" value="Поле &quot;Срок аренды&quot;&lt;br style=&quot;border-color: var(--border-color); color: rgb(13, 13, 13);&quot;&gt;(выпадающий список)&lt;br&gt;(обязательное текстовое поле для заполнения, отмечено&amp;nbsp; *,при клике мышкой&lt;font style=&quot;border-color: var(--border-color);&quot; color=&quot;#0d0d0d&quot;&gt;&amp;nbsp;подсвечивается синим цветом)&lt;/font&gt;&lt;span style=&quot;color: rgb(13, 13, 13);&quot;&gt;&lt;br&gt;&lt;/span&gt;" style="rounded=1;whiteSpace=wrap;html=1;arcSize=22;labelBackgroundColor=none;fillColor=#dae8fc;gradientColor=#7ea6e0;strokeColor=#6c8ebf;" parent="1" vertex="1">
          <mxGeometry x="-840" y="2545" width="330" height="70" as="geometry" />
        </mxCell>
        <mxCell id="_SnUvuW7pjR6wicyARaL-198" value="&lt;font color=&quot;#0d0d0d&quot;&gt;Поле &quot;Цвет самоката&quot;&lt;br&gt;(Чек-бокс)&lt;br&gt;&lt;/font&gt;" style="rounded=1;whiteSpace=wrap;html=1;arcSize=22;labelBackgroundColor=none;fillColor=#dae8fc;gradientColor=#7ea6e0;strokeColor=#6c8ebf;" parent="1" vertex="1">
          <mxGeometry x="-810" y="3250" width="330" height="40" as="geometry" />
        </mxCell>
        <mxCell id="_SnUvuW7pjR6wicyARaL-200" value="&lt;font color=&quot;#0d0d0d&quot;&gt;Календарь расположен&amp;nbsp; с правого края поля появляется при клике мышкой, по полю&amp;nbsp;&lt;/font&gt;&quot;Когда привезти самокат&quot;&lt;font color=&quot;#0d0d0d&quot;&gt;&lt;br&gt;&lt;/font&gt;" style="rounded=1;whiteSpace=wrap;html=1;arcSize=22;labelBackgroundColor=none;fillColor=#dae8fc;gradientColor=#7ea6e0;strokeColor=#6c8ebf;" parent="1" vertex="1">
          <mxGeometry x="-1310" y="2057.5" width="290" height="40" as="geometry" />
        </mxCell>
        <mxCell id="_SnUvuW7pjR6wicyARaL-202" value="Цвет &quot;серая безысходность&quot;&lt;font color=&quot;#0d0d0d&quot;&gt;&lt;br&gt;&lt;/font&gt;" style="rounded=1;whiteSpace=wrap;html=1;arcSize=22;labelBackgroundColor=none;fillColor=#dae8fc;gradientColor=#7ea6e0;strokeColor=#6c8ebf;" parent="1" vertex="1">
          <mxGeometry x="-1170" y="3310" width="290" height="40" as="geometry" />
        </mxCell>
        <mxCell id="_SnUvuW7pjR6wicyARaL-203" value="&lt;font color=&quot;#0d0d0d&quot;&gt;Цвет &quot;черный жемчуг&quot;&lt;br&gt;&lt;/font&gt;" style="rounded=1;whiteSpace=wrap;html=1;arcSize=22;labelBackgroundColor=none;fillColor=#dae8fc;gradientColor=#7ea6e0;strokeColor=#6c8ebf;" parent="1" vertex="1">
          <mxGeometry x="-1170" y="3210" width="290" height="40" as="geometry" />
        </mxCell>
        <mxCell id="_SnUvuW7pjR6wicyARaL-205" value="Выпадающий список&lt;br&gt;&lt;font style=&quot;border-color: var(--border-color);&quot; color=&quot;#0d0d0d&quot;&gt;появляется при клике мышкой, по полю&amp;nbsp;&lt;/font&gt;&quot;Срок аренды&quot;&lt;font color=&quot;#0d0d0d&quot;&gt;&lt;br&gt;&lt;/font&gt;" style="rounded=1;whiteSpace=wrap;html=1;arcSize=22;labelBackgroundColor=none;fillColor=#dae8fc;gradientColor=#7ea6e0;strokeColor=#6c8ebf;" parent="1" vertex="1">
          <mxGeometry x="-1250" y="2730" width="310" height="55" as="geometry" />
        </mxCell>
        <mxCell id="_SnUvuW7pjR6wicyARaL-208" value="" style="endArrow=classic;html=1;rounded=0;exitX=0;exitY=0.5;exitDx=0;exitDy=0;entryX=1;entryY=0.5;entryDx=0;entryDy=0;edgeStyle=orthogonalEdgeStyle;curved=1;" parent="1" source="_SnUvuW7pjR6wicyARaL-198" target="_SnUvuW7pjR6wicyARaL-203" edge="1">
          <mxGeometry width="50" height="50" relative="1" as="geometry">
            <mxPoint x="-820" y="3360" as="sourcePoint" />
            <mxPoint x="-770" y="3310" as="targetPoint" />
          </mxGeometry>
        </mxCell>
        <mxCell id="_SnUvuW7pjR6wicyARaL-209" value="" style="endArrow=classic;html=1;rounded=0;exitX=0;exitY=0.5;exitDx=0;exitDy=0;entryX=1;entryY=0.5;entryDx=0;entryDy=0;edgeStyle=orthogonalEdgeStyle;curved=1;" parent="1" source="_SnUvuW7pjR6wicyARaL-198" target="_SnUvuW7pjR6wicyARaL-202" edge="1">
          <mxGeometry width="50" height="50" relative="1" as="geometry">
            <mxPoint x="-830" y="3360" as="sourcePoint" />
            <mxPoint x="-780" y="3310" as="targetPoint" />
          </mxGeometry>
        </mxCell>
        <mxCell id="_SnUvuW7pjR6wicyARaL-210" value="&lt;font color=&quot;#0d0d0d&quot;&gt;Поле &quot;Комментари&quot;&lt;br&gt;(текстовое поле)&lt;/font&gt;при клике мышкой&lt;font style=&quot;border-color: var(--border-color);&quot; color=&quot;#0d0d0d&quot;&gt;&amp;nbsp;подсвечивается синим цветом)&lt;/font&gt;&lt;font color=&quot;#0d0d0d&quot;&gt;&lt;br&gt;&lt;/font&gt;" style="rounded=1;whiteSpace=wrap;html=1;arcSize=22;labelBackgroundColor=none;fillColor=#dae8fc;gradientColor=#7ea6e0;strokeColor=#6c8ebf;" parent="1" vertex="1">
          <mxGeometry x="-810" y="3560" width="330" height="40" as="geometry" />
        </mxCell>
        <mxCell id="_SnUvuW7pjR6wicyARaL-212" value="&lt;font color=&quot;#0d0d0d&quot;&gt;Кнопка &quot;Назад&quot;&lt;br&gt;&lt;/font&gt;" style="rounded=1;whiteSpace=wrap;html=1;arcSize=22;labelBackgroundColor=none;fillColor=#dae8fc;gradientColor=#7ea6e0;strokeColor=#6c8ebf;" parent="1" vertex="1">
          <mxGeometry x="-810" y="3872.5" width="200" height="37.5" as="geometry" />
        </mxCell>
        <mxCell id="_SnUvuW7pjR6wicyARaL-213" value="&lt;font color=&quot;#0d0d0d&quot;&gt;Кнопка &quot;Заказать&quot;&lt;/font&gt;&lt;font color=&quot;#0d0d0d&quot;&gt;&lt;br&gt;&lt;/font&gt;" style="rounded=1;whiteSpace=wrap;html=1;arcSize=22;labelBackgroundColor=none;fillColor=#dae8fc;gradientColor=#7ea6e0;strokeColor=#6c8ebf;" parent="1" vertex="1">
          <mxGeometry x="-800" y="4302" width="200" height="40" as="geometry" />
        </mxCell>
        <mxCell id="_SnUvuW7pjR6wicyARaL-216" value="&lt;font color=&quot;#0d0d0d&quot;&gt;Цвет текста белый&lt;br&gt;&lt;/font&gt;" style="rounded=1;whiteSpace=wrap;html=1;arcSize=22;labelBackgroundColor=none;fillColor=#dae8fc;gradientColor=#7ea6e0;strokeColor=#6c8ebf;" parent="1" vertex="1">
          <mxGeometry x="-1070" y="4173" width="180" height="40" as="geometry" />
        </mxCell>
        <mxCell id="_SnUvuW7pjR6wicyARaL-218" value="" style="endArrow=classic;html=1;rounded=0;exitX=0;exitY=0.5;exitDx=0;exitDy=0;entryX=1;entryY=0.5;entryDx=0;entryDy=0;edgeStyle=orthogonalEdgeStyle;curved=1;" parent="1" source="_SnUvuW7pjR6wicyARaL-213" target="_SnUvuW7pjR6wicyARaL-216" edge="1">
          <mxGeometry width="50" height="50" relative="1" as="geometry">
            <mxPoint x="-910" y="4444.5" as="sourcePoint" />
            <mxPoint x="-860" y="4394.5" as="targetPoint" />
          </mxGeometry>
        </mxCell>
        <mxCell id="6N-k74M5xbbgnaRkJVjt-1" value="&lt;font color=&quot;#0d0d0d&quot;&gt;Текст выровнен по левому краю&lt;/font&gt;" style="rounded=1;whiteSpace=wrap;html=1;arcSize=22;labelBackgroundColor=none;fillColor=#dae8fc;gradientColor=#7ea6e0;strokeColor=#6c8ebf;" parent="1" vertex="1">
          <mxGeometry x="-1090" y="1550" width="205" height="40" as="geometry" />
        </mxCell>
        <mxCell id="6N-k74M5xbbgnaRkJVjt-2" value="" style="endArrow=classic;html=1;rounded=0;exitX=0;exitY=0.5;exitDx=0;exitDy=0;entryX=1;entryY=0.5;entryDx=0;entryDy=0;edgeStyle=orthogonalEdgeStyle;curved=1;" parent="1" source="_SnUvuW7pjR6wicyARaL-192" target="6N-k74M5xbbgnaRkJVjt-1" edge="1">
          <mxGeometry width="50" height="50" relative="1" as="geometry">
            <mxPoint x="-885" y="1580" as="sourcePoint" />
            <mxPoint x="-835" y="1530" as="targetPoint" />
          </mxGeometry>
        </mxCell>
        <mxCell id="6N-k74M5xbbgnaRkJVjt-4" value="" style="endArrow=classic;html=1;rounded=0;exitX=0;exitY=0.5;exitDx=0;exitDy=0;entryX=1;entryY=0.5;entryDx=0;entryDy=0;edgeStyle=orthogonalEdgeStyle;curved=1;" parent="1" source="_SnUvuW7pjR6wicyARaL-210" target="8qORFBvdMXtc1hidTJIK-99" edge="1">
          <mxGeometry width="50" height="50" relative="1" as="geometry">
            <mxPoint x="-1010" y="3545" as="sourcePoint" />
            <mxPoint x="-960" y="3435" as="targetPoint" />
          </mxGeometry>
        </mxCell>
        <mxCell id="6N-k74M5xbbgnaRkJVjt-8" value="Форма &quot;Про аренду&quot;" style="rounded=1;whiteSpace=wrap;html=1;arcSize=22;labelBackgroundColor=none;fillColor=#f5f5f5;gradientColor=#b3b3b3;strokeColor=#666666;" parent="1" vertex="1">
          <mxGeometry x="830" y="2890" width="150" height="40" as="geometry" />
        </mxCell>
        <mxCell id="6N-k74M5xbbgnaRkJVjt-9" value="" style="endArrow=classic;html=1;rounded=0;exitX=1;exitY=0.5;exitDx=0;exitDy=0;edgeStyle=entityRelationEdgeStyle;entryX=0;entryY=0.5;entryDx=0;entryDy=0;" parent="1" source="_SnUvuW7pjR6wicyARaL-4" target="6N-k74M5xbbgnaRkJVjt-8" edge="1">
          <mxGeometry width="50" height="50" relative="1" as="geometry">
            <mxPoint x="620" y="290" as="sourcePoint" />
            <mxPoint x="810" y="2590" as="targetPoint" />
          </mxGeometry>
        </mxCell>
        <mxCell id="6N-k74M5xbbgnaRkJVjt-10" value="Поле &quot;Когда привезти самокатсамокат&quot;&lt;br&gt;(выпадающий календарь при клике на поле ввода)" style="rounded=1;whiteSpace=wrap;html=1;arcSize=22;labelBackgroundColor=none;fillColor=#f5f5f5;gradientColor=#b3b3b3;strokeColor=#666666;" parent="1" vertex="1">
          <mxGeometry x="1160" y="2770" width="235" height="60" as="geometry" />
        </mxCell>
        <mxCell id="6N-k74M5xbbgnaRkJVjt-12" value="&lt;font color=&quot;#050505&quot;&gt;Обязательное поле для заполнения&lt;/font&gt;" style="rounded=1;whiteSpace=wrap;html=1;arcSize=22;labelBackgroundColor=none;fillColor=#f5f5f5;gradientColor=#b3b3b3;strokeColor=#666666;" parent="1" vertex="1">
          <mxGeometry x="1555" y="2570" width="200" height="40" as="geometry" />
        </mxCell>
        <mxCell id="6N-k74M5xbbgnaRkJVjt-13" value="&lt;font color=&quot;#050505&quot;&gt;Выбрать дату можно только с завтрешнего дня&lt;/font&gt;" style="rounded=1;whiteSpace=wrap;html=1;arcSize=22;labelBackgroundColor=none;fillColor=#f5f5f5;gradientColor=#b3b3b3;strokeColor=#666666;" parent="1" vertex="1">
          <mxGeometry x="1555" y="2650" width="205" height="40" as="geometry" />
        </mxCell>
        <mxCell id="6N-k74M5xbbgnaRkJVjt-14" value="Вводить значения вручную в поле нельзя" style="rounded=1;whiteSpace=wrap;html=1;arcSize=22;labelBackgroundColor=none;fillColor=#f5f5f5;gradientColor=#b3b3b3;strokeColor=#666666;" parent="1" vertex="1">
          <mxGeometry x="1555" y="2810" width="200" height="40" as="geometry" />
        </mxCell>
        <mxCell id="6N-k74M5xbbgnaRkJVjt-15" value="&lt;font color=&quot;#050505&quot;&gt;Выбранная дата сразу подставляется в поле&lt;/font&gt;" style="rounded=1;whiteSpace=wrap;html=1;arcSize=22;labelBackgroundColor=none;fillColor=#f5f5f5;gradientColor=#b3b3b3;strokeColor=#666666;" parent="1" vertex="1">
          <mxGeometry x="1555" y="2890" width="200" height="40" as="geometry" />
        </mxCell>
        <mxCell id="6N-k74M5xbbgnaRkJVjt-16" value="" style="endArrow=classic;html=1;rounded=0;entryX=0;entryY=0.5;entryDx=0;entryDy=0;edgeStyle=entityRelationEdgeStyle;exitX=1;exitY=0.5;exitDx=0;exitDy=0;" parent="1" source="6N-k74M5xbbgnaRkJVjt-10" target="6N-k74M5xbbgnaRkJVjt-12" edge="1">
          <mxGeometry width="50" height="50" relative="1" as="geometry">
            <mxPoint x="1410" y="2780" as="sourcePoint" />
            <mxPoint x="1455" y="2610" as="targetPoint" />
          </mxGeometry>
        </mxCell>
        <mxCell id="6N-k74M5xbbgnaRkJVjt-17" value="" style="endArrow=classic;html=1;rounded=0;exitX=1;exitY=0.5;exitDx=0;exitDy=0;entryX=0;entryY=0.5;entryDx=0;entryDy=0;edgeStyle=entityRelationEdgeStyle;" parent="1" source="6N-k74M5xbbgnaRkJVjt-10" target="6N-k74M5xbbgnaRkJVjt-13" edge="1">
          <mxGeometry width="50" height="50" relative="1" as="geometry">
            <mxPoint x="1415" y="2775" as="sourcePoint" />
            <mxPoint x="1455" y="2830" as="targetPoint" />
          </mxGeometry>
        </mxCell>
        <mxCell id="6N-k74M5xbbgnaRkJVjt-18" value="" style="endArrow=classic;html=1;rounded=0;exitX=1;exitY=0.5;exitDx=0;exitDy=0;entryX=0;entryY=0.5;entryDx=0;entryDy=0;edgeStyle=entityRelationEdgeStyle;" parent="1" source="6N-k74M5xbbgnaRkJVjt-10" target="6N-k74M5xbbgnaRkJVjt-14" edge="1">
          <mxGeometry width="50" height="50" relative="1" as="geometry">
            <mxPoint x="1415" y="2775" as="sourcePoint" />
            <mxPoint x="1465" y="2830" as="targetPoint" />
          </mxGeometry>
        </mxCell>
        <mxCell id="6N-k74M5xbbgnaRkJVjt-19" value="" style="endArrow=classic;html=1;rounded=0;exitX=1;exitY=0.5;exitDx=0;exitDy=0;entryX=0;entryY=0.5;entryDx=0;entryDy=0;edgeStyle=entityRelationEdgeStyle;" parent="1" source="6N-k74M5xbbgnaRkJVjt-10" target="6N-k74M5xbbgnaRkJVjt-15" edge="1">
          <mxGeometry width="50" height="50" relative="1" as="geometry">
            <mxPoint x="1415" y="2775" as="sourcePoint" />
            <mxPoint x="1455" y="2850" as="targetPoint" />
          </mxGeometry>
        </mxCell>
        <mxCell id="6N-k74M5xbbgnaRkJVjt-20" value="&lt;font color=&quot;#050505&quot;&gt;Можно выбрать другую дату&lt;/font&gt;" style="rounded=1;whiteSpace=wrap;html=1;arcSize=22;labelBackgroundColor=none;fillColor=#f5f5f5;gradientColor=#b3b3b3;strokeColor=#666666;" parent="1" vertex="1">
          <mxGeometry x="1555" y="2970" width="200" height="40" as="geometry" />
        </mxCell>
        <mxCell id="6N-k74M5xbbgnaRkJVjt-22" value="&lt;font color=&quot;#050505&quot;&gt;На календаре открывается текущий месяц&lt;/font&gt;" style="rounded=1;whiteSpace=wrap;html=1;arcSize=22;labelBackgroundColor=none;fillColor=#f5f5f5;gradientColor=#b3b3b3;strokeColor=#666666;" parent="1" vertex="1">
          <mxGeometry x="1555" y="2730" width="200" height="40" as="geometry" />
        </mxCell>
        <mxCell id="6N-k74M5xbbgnaRkJVjt-23" value="" style="endArrow=classic;html=1;rounded=0;exitX=1;exitY=0.5;exitDx=0;exitDy=0;entryX=0;entryY=0.5;entryDx=0;entryDy=0;edgeStyle=entityRelationEdgeStyle;" parent="1" source="6N-k74M5xbbgnaRkJVjt-10" target="6N-k74M5xbbgnaRkJVjt-22" edge="1">
          <mxGeometry width="50" height="50" relative="1" as="geometry">
            <mxPoint x="1415" y="2775" as="sourcePoint" />
            <mxPoint x="1575" y="2710" as="targetPoint" />
          </mxGeometry>
        </mxCell>
        <mxCell id="6N-k74M5xbbgnaRkJVjt-24" value="" style="endArrow=classic;html=1;rounded=0;exitX=1;exitY=0.5;exitDx=0;exitDy=0;entryX=0;entryY=0.5;entryDx=0;entryDy=0;edgeStyle=entityRelationEdgeStyle;" parent="1" source="6N-k74M5xbbgnaRkJVjt-10" target="6N-k74M5xbbgnaRkJVjt-20" edge="1">
          <mxGeometry width="50" height="50" relative="1" as="geometry">
            <mxPoint x="1415" y="2775" as="sourcePoint" />
            <mxPoint x="1565" y="2910" as="targetPoint" />
          </mxGeometry>
        </mxCell>
        <mxCell id="6N-k74M5xbbgnaRkJVjt-27" value="" style="endArrow=classic;html=1;rounded=0;exitX=1;exitY=0.5;exitDx=0;exitDy=0;entryX=0;entryY=0.5;entryDx=0;entryDy=0;edgeStyle=entityRelationEdgeStyle;" parent="1" source="6N-k74M5xbbgnaRkJVjt-8" target="6N-k74M5xbbgnaRkJVjt-10" edge="1">
          <mxGeometry width="50" height="50" relative="1" as="geometry">
            <mxPoint x="1030" y="2880" as="sourcePoint" />
            <mxPoint x="1080" y="2830" as="targetPoint" />
          </mxGeometry>
        </mxCell>
        <mxCell id="6N-k74M5xbbgnaRkJVjt-28" value="Поле &quot;Срок аренды&quot;&lt;br&gt;(выпадающий список)" style="rounded=1;whiteSpace=wrap;html=1;arcSize=22;labelBackgroundColor=none;fillColor=#f5f5f5;gradientColor=#b3b3b3;strokeColor=#666666;" parent="1" vertex="1">
          <mxGeometry x="1185" y="3230" width="240" height="60" as="geometry" />
        </mxCell>
        <mxCell id="6N-k74M5xbbgnaRkJVjt-29" value="&lt;font color=&quot;#050505&quot;&gt;Обязательное поле для заполнения&lt;/font&gt;" style="rounded=1;whiteSpace=wrap;html=1;arcSize=22;labelBackgroundColor=none;fillColor=#f5f5f5;gradientColor=#b3b3b3;strokeColor=#666666;" parent="1" vertex="1">
          <mxGeometry x="1565" y="3190" width="200" height="40" as="geometry" />
        </mxCell>
        <mxCell id="6N-k74M5xbbgnaRkJVjt-33" value="" style="endArrow=classic;html=1;rounded=0;entryX=0;entryY=0.5;entryDx=0;entryDy=0;edgeStyle=entityRelationEdgeStyle;exitX=1;exitY=0.5;exitDx=0;exitDy=0;" parent="1" source="6N-k74M5xbbgnaRkJVjt-28" target="6N-k74M5xbbgnaRkJVjt-29" edge="1">
          <mxGeometry width="50" height="50" relative="1" as="geometry">
            <mxPoint x="1420" y="3240" as="sourcePoint" />
            <mxPoint x="1465" y="3070" as="targetPoint" />
          </mxGeometry>
        </mxCell>
        <mxCell id="6N-k74M5xbbgnaRkJVjt-38" value="&lt;font color=&quot;#050505&quot;&gt;Можно выбрать от 1 до 7 суток&lt;/font&gt;" style="rounded=1;whiteSpace=wrap;html=1;arcSize=22;labelBackgroundColor=none;fillColor=#f5f5f5;gradientColor=#b3b3b3;strokeColor=#666666;" parent="1" vertex="1">
          <mxGeometry x="1560" y="3300" width="200" height="40" as="geometry" />
        </mxCell>
        <mxCell id="6N-k74M5xbbgnaRkJVjt-42" value="" style="endArrow=classic;html=1;rounded=0;exitX=1;exitY=0.5;exitDx=0;exitDy=0;entryX=0;entryY=0.5;entryDx=0;entryDy=0;edgeStyle=entityRelationEdgeStyle;" parent="1" source="6N-k74M5xbbgnaRkJVjt-28" target="6N-k74M5xbbgnaRkJVjt-38" edge="1">
          <mxGeometry width="50" height="50" relative="1" as="geometry">
            <mxPoint x="1360" y="3270" as="sourcePoint" />
            <mxPoint x="1520" y="3540" as="targetPoint" />
          </mxGeometry>
        </mxCell>
        <mxCell id="6N-k74M5xbbgnaRkJVjt-43" value="" style="endArrow=classic;html=1;rounded=0;exitX=1;exitY=0.5;exitDx=0;exitDy=0;entryX=0;entryY=0.5;entryDx=0;entryDy=0;edgeStyle=entityRelationEdgeStyle;" parent="1" source="6N-k74M5xbbgnaRkJVjt-8" target="6N-k74M5xbbgnaRkJVjt-28" edge="1">
          <mxGeometry width="50" height="50" relative="1" as="geometry">
            <mxPoint x="980" y="3260" as="sourcePoint" />
            <mxPoint x="1030" y="3210" as="targetPoint" />
          </mxGeometry>
        </mxCell>
        <mxCell id="6N-k74M5xbbgnaRkJVjt-44" value="&lt;font color=&quot;#050505&quot;&gt;сутки&lt;/font&gt;" style="rounded=1;whiteSpace=wrap;html=1;arcSize=22;labelBackgroundColor=none;fillColor=#f5f5f5;gradientColor=#b3b3b3;strokeColor=#666666;" parent="1" vertex="1">
          <mxGeometry x="1910" y="3080" width="200" height="40" as="geometry" />
        </mxCell>
        <mxCell id="6N-k74M5xbbgnaRkJVjt-45" value="семеро суток" style="rounded=1;whiteSpace=wrap;html=1;arcSize=22;labelBackgroundColor=none;fillColor=#f5f5f5;gradientColor=#b3b3b3;strokeColor=#666666;" parent="1" vertex="1">
          <mxGeometry x="1910" y="3520" width="200" height="40" as="geometry" />
        </mxCell>
        <mxCell id="6N-k74M5xbbgnaRkJVjt-46" value="шестеро суток" style="rounded=1;whiteSpace=wrap;html=1;arcSize=22;labelBackgroundColor=none;fillColor=#f5f5f5;gradientColor=#b3b3b3;strokeColor=#666666;" parent="1" vertex="1">
          <mxGeometry x="1910" y="3445" width="200" height="40" as="geometry" />
        </mxCell>
        <mxCell id="6N-k74M5xbbgnaRkJVjt-47" value="пятеро суток" style="rounded=1;whiteSpace=wrap;html=1;arcSize=22;labelBackgroundColor=none;fillColor=#f5f5f5;gradientColor=#b3b3b3;strokeColor=#666666;" parent="1" vertex="1">
          <mxGeometry x="1910" y="3375" width="200" height="40" as="geometry" />
        </mxCell>
        <mxCell id="6N-k74M5xbbgnaRkJVjt-48" value="четверо суток" style="rounded=1;whiteSpace=wrap;html=1;arcSize=22;labelBackgroundColor=none;fillColor=#f5f5f5;gradientColor=#b3b3b3;strokeColor=#666666;" parent="1" vertex="1">
          <mxGeometry x="1910" y="3305" width="200" height="40" as="geometry" />
        </mxCell>
        <mxCell id="6N-k74M5xbbgnaRkJVjt-49" value="трое суток" style="rounded=1;whiteSpace=wrap;html=1;arcSize=22;labelBackgroundColor=none;fillColor=#f5f5f5;gradientColor=#b3b3b3;strokeColor=#666666;" parent="1" vertex="1">
          <mxGeometry x="1910" y="3232" width="200" height="40" as="geometry" />
        </mxCell>
        <mxCell id="6N-k74M5xbbgnaRkJVjt-50" value="двое суток" style="rounded=1;whiteSpace=wrap;html=1;arcSize=22;labelBackgroundColor=none;fillColor=#f5f5f5;gradientColor=#b3b3b3;strokeColor=#666666;" parent="1" vertex="1">
          <mxGeometry x="1910" y="3155" width="200" height="40" as="geometry" />
        </mxCell>
        <mxCell id="6N-k74M5xbbgnaRkJVjt-51" value="" style="endArrow=classic;html=1;rounded=0;exitX=1;exitY=0.5;exitDx=0;exitDy=0;entryX=0;entryY=0.5;entryDx=0;entryDy=0;edgeStyle=entityRelationEdgeStyle;" parent="1" source="6N-k74M5xbbgnaRkJVjt-38" target="6N-k74M5xbbgnaRkJVjt-44" edge="1">
          <mxGeometry width="50" height="50" relative="1" as="geometry">
            <mxPoint x="1780" y="3320" as="sourcePoint" />
            <mxPoint x="1830" y="3270" as="targetPoint" />
          </mxGeometry>
        </mxCell>
        <mxCell id="6N-k74M5xbbgnaRkJVjt-52" value="" style="endArrow=classic;html=1;rounded=0;exitX=1;exitY=0.5;exitDx=0;exitDy=0;entryX=0;entryY=0.5;entryDx=0;entryDy=0;edgeStyle=entityRelationEdgeStyle;" parent="1" source="6N-k74M5xbbgnaRkJVjt-38" target="6N-k74M5xbbgnaRkJVjt-50" edge="1">
          <mxGeometry width="50" height="50" relative="1" as="geometry">
            <mxPoint x="1890" y="3340" as="sourcePoint" />
            <mxPoint x="1940" y="3290" as="targetPoint" />
          </mxGeometry>
        </mxCell>
        <mxCell id="6N-k74M5xbbgnaRkJVjt-53" value="" style="endArrow=classic;html=1;rounded=0;exitX=1;exitY=0.5;exitDx=0;exitDy=0;entryX=0;entryY=0.5;entryDx=0;entryDy=0;edgeStyle=entityRelationEdgeStyle;" parent="1" source="6N-k74M5xbbgnaRkJVjt-38" target="6N-k74M5xbbgnaRkJVjt-49" edge="1">
          <mxGeometry width="50" height="50" relative="1" as="geometry">
            <mxPoint x="1930" y="3370" as="sourcePoint" />
            <mxPoint x="1980" y="3320" as="targetPoint" />
          </mxGeometry>
        </mxCell>
        <mxCell id="6N-k74M5xbbgnaRkJVjt-54" value="" style="endArrow=classic;html=1;rounded=0;exitX=1;exitY=0.5;exitDx=0;exitDy=0;entryX=0;entryY=0.5;entryDx=0;entryDy=0;edgeStyle=entityRelationEdgeStyle;" parent="1" source="6N-k74M5xbbgnaRkJVjt-38" target="6N-k74M5xbbgnaRkJVjt-48" edge="1">
          <mxGeometry width="50" height="50" relative="1" as="geometry">
            <mxPoint x="1920" y="3420" as="sourcePoint" />
            <mxPoint x="1970" y="3370" as="targetPoint" />
          </mxGeometry>
        </mxCell>
        <mxCell id="6N-k74M5xbbgnaRkJVjt-55" value="" style="endArrow=classic;html=1;rounded=0;exitX=1;exitY=0.5;exitDx=0;exitDy=0;entryX=0;entryY=0.5;entryDx=0;entryDy=0;edgeStyle=entityRelationEdgeStyle;" parent="1" source="6N-k74M5xbbgnaRkJVjt-38" target="6N-k74M5xbbgnaRkJVjt-47" edge="1">
          <mxGeometry width="50" height="50" relative="1" as="geometry">
            <mxPoint x="1960" y="3480" as="sourcePoint" />
            <mxPoint x="2010" y="3430" as="targetPoint" />
          </mxGeometry>
        </mxCell>
        <mxCell id="6N-k74M5xbbgnaRkJVjt-56" value="" style="endArrow=classic;html=1;rounded=0;exitX=1;exitY=0.5;exitDx=0;exitDy=0;entryX=0;entryY=0.5;entryDx=0;entryDy=0;edgeStyle=entityRelationEdgeStyle;" parent="1" source="6N-k74M5xbbgnaRkJVjt-38" target="6N-k74M5xbbgnaRkJVjt-46" edge="1">
          <mxGeometry width="50" height="50" relative="1" as="geometry">
            <mxPoint x="1980" y="3480" as="sourcePoint" />
            <mxPoint x="2030" y="3430" as="targetPoint" />
          </mxGeometry>
        </mxCell>
        <mxCell id="6N-k74M5xbbgnaRkJVjt-57" value="" style="endArrow=classic;html=1;rounded=0;exitX=1;exitY=0.5;exitDx=0;exitDy=0;entryX=0;entryY=0.5;entryDx=0;entryDy=0;edgeStyle=entityRelationEdgeStyle;" parent="1" source="6N-k74M5xbbgnaRkJVjt-38" target="6N-k74M5xbbgnaRkJVjt-45" edge="1">
          <mxGeometry width="50" height="50" relative="1" as="geometry">
            <mxPoint x="1920" y="3530" as="sourcePoint" />
            <mxPoint x="1970" y="3480" as="targetPoint" />
          </mxGeometry>
        </mxCell>
        <mxCell id="6N-k74M5xbbgnaRkJVjt-58" value="Полке &quot;Цвет&quot;&lt;br&gt;(чекбокс)" style="rounded=1;whiteSpace=wrap;html=1;arcSize=22;labelBackgroundColor=none;fillColor=#f5f5f5;gradientColor=#b3b3b3;strokeColor=#666666;" parent="1" vertex="1">
          <mxGeometry x="1160" y="3780" width="240" height="60" as="geometry" />
        </mxCell>
        <mxCell id="6N-k74M5xbbgnaRkJVjt-59" value="&lt;font color=&quot;#050505&quot;&gt;Выбрать цвет&lt;/font&gt;" style="rounded=1;whiteSpace=wrap;html=1;arcSize=22;labelBackgroundColor=none;fillColor=#f5f5f5;gradientColor=#b3b3b3;strokeColor=#666666;" parent="1" vertex="1">
          <mxGeometry x="1540" y="3702.5" width="200" height="40" as="geometry" />
        </mxCell>
        <mxCell id="6N-k74M5xbbgnaRkJVjt-60" value="" style="endArrow=classic;html=1;rounded=0;entryX=0;entryY=0.5;entryDx=0;entryDy=0;edgeStyle=entityRelationEdgeStyle;exitX=1;exitY=0.5;exitDx=0;exitDy=0;" parent="1" source="6N-k74M5xbbgnaRkJVjt-58" target="6N-k74M5xbbgnaRkJVjt-59" edge="1">
          <mxGeometry width="50" height="50" relative="1" as="geometry">
            <mxPoint x="1410" y="3790" as="sourcePoint" />
            <mxPoint x="1455" y="3620" as="targetPoint" />
          </mxGeometry>
        </mxCell>
        <mxCell id="6N-k74M5xbbgnaRkJVjt-61" value="&lt;font color=&quot;#050505&quot;&gt;Варианты выбора&lt;/font&gt;" style="rounded=1;whiteSpace=wrap;html=1;arcSize=22;labelBackgroundColor=none;fillColor=#f5f5f5;gradientColor=#b3b3b3;strokeColor=#666666;" parent="1" vertex="1">
          <mxGeometry x="1540" y="3912.5" width="200" height="40" as="geometry" />
        </mxCell>
        <mxCell id="6N-k74M5xbbgnaRkJVjt-62" value="" style="endArrow=classic;html=1;rounded=0;exitX=1;exitY=0.5;exitDx=0;exitDy=0;entryX=0;entryY=0.5;entryDx=0;entryDy=0;edgeStyle=entityRelationEdgeStyle;" parent="1" source="6N-k74M5xbbgnaRkJVjt-58" target="6N-k74M5xbbgnaRkJVjt-61" edge="1">
          <mxGeometry width="50" height="50" relative="1" as="geometry">
            <mxPoint x="1350" y="3820" as="sourcePoint" />
            <mxPoint x="1510" y="4090" as="targetPoint" />
          </mxGeometry>
        </mxCell>
        <mxCell id="6N-k74M5xbbgnaRkJVjt-66" value="Сразу два" style="rounded=1;whiteSpace=wrap;html=1;arcSize=22;labelBackgroundColor=none;fillColor=#f5f5f5;gradientColor=#b3b3b3;strokeColor=#666666;" parent="1" vertex="1">
          <mxGeometry x="1902.5" y="3962" width="200" height="40" as="geometry" />
        </mxCell>
        <mxCell id="6N-k74M5xbbgnaRkJVjt-68" value="Один вариант" style="rounded=1;whiteSpace=wrap;html=1;arcSize=22;labelBackgroundColor=none;fillColor=#f5f5f5;gradientColor=#b3b3b3;strokeColor=#666666;" parent="1" vertex="1">
          <mxGeometry x="1902.5" y="3880" width="200" height="40" as="geometry" />
        </mxCell>
        <mxCell id="6N-k74M5xbbgnaRkJVjt-72" value="" style="endArrow=classic;html=1;rounded=0;exitX=1;exitY=0.5;exitDx=0;exitDy=0;entryX=0;entryY=0.5;entryDx=0;entryDy=0;edgeStyle=entityRelationEdgeStyle;" parent="1" source="6N-k74M5xbbgnaRkJVjt-61" target="6N-k74M5xbbgnaRkJVjt-68" edge="1">
          <mxGeometry width="50" height="50" relative="1" as="geometry">
            <mxPoint x="1915" y="3882.5" as="sourcePoint" />
            <mxPoint x="1965" y="3832.5" as="targetPoint" />
          </mxGeometry>
        </mxCell>
        <mxCell id="6N-k74M5xbbgnaRkJVjt-74" value="" style="endArrow=classic;html=1;rounded=0;exitX=1;exitY=0.5;exitDx=0;exitDy=0;entryX=0;entryY=0.5;entryDx=0;entryDy=0;edgeStyle=entityRelationEdgeStyle;" parent="1" source="6N-k74M5xbbgnaRkJVjt-61" target="6N-k74M5xbbgnaRkJVjt-66" edge="1">
          <mxGeometry width="50" height="50" relative="1" as="geometry">
            <mxPoint x="1945" y="3992.5" as="sourcePoint" />
            <mxPoint x="1995" y="3942.5" as="targetPoint" />
          </mxGeometry>
        </mxCell>
        <mxCell id="6N-k74M5xbbgnaRkJVjt-77" value="Цвет &quot;серая безисходность&quot;" style="rounded=1;whiteSpace=wrap;html=1;arcSize=22;labelBackgroundColor=none;fillColor=#f5f5f5;gradientColor=#b3b3b3;strokeColor=#666666;" parent="1" vertex="1">
          <mxGeometry x="1900" y="3770" width="200" height="40" as="geometry" />
        </mxCell>
        <mxCell id="6N-k74M5xbbgnaRkJVjt-78" value="Цвет &quot;черный жемчуг&quot;" style="rounded=1;whiteSpace=wrap;html=1;arcSize=22;labelBackgroundColor=none;fillColor=#f5f5f5;gradientColor=#b3b3b3;strokeColor=#666666;" parent="1" vertex="1">
          <mxGeometry x="1900" y="3670" width="200" height="40" as="geometry" />
        </mxCell>
        <mxCell id="6N-k74M5xbbgnaRkJVjt-79" value="" style="endArrow=classic;html=1;rounded=0;exitX=1;exitY=0.5;exitDx=0;exitDy=0;entryX=0;entryY=0.5;entryDx=0;entryDy=0;edgeStyle=entityRelationEdgeStyle;" parent="1" source="6N-k74M5xbbgnaRkJVjt-59" target="6N-k74M5xbbgnaRkJVjt-78" edge="1">
          <mxGeometry width="50" height="50" relative="1" as="geometry">
            <mxPoint x="1752.5" y="3732.5" as="sourcePoint" />
            <mxPoint x="1892.5" y="3582.5" as="targetPoint" />
          </mxGeometry>
        </mxCell>
        <mxCell id="6N-k74M5xbbgnaRkJVjt-80" value="" style="endArrow=classic;html=1;rounded=0;exitX=1;exitY=0.5;exitDx=0;exitDy=0;entryX=0;entryY=0.5;entryDx=0;entryDy=0;edgeStyle=entityRelationEdgeStyle;" parent="1" source="6N-k74M5xbbgnaRkJVjt-59" target="6N-k74M5xbbgnaRkJVjt-77" edge="1">
          <mxGeometry width="50" height="50" relative="1" as="geometry">
            <mxPoint x="1892.5" y="3832.5" as="sourcePoint" />
            <mxPoint x="1942.5" y="3782.5" as="targetPoint" />
          </mxGeometry>
        </mxCell>
        <mxCell id="6N-k74M5xbbgnaRkJVjt-83" value="" style="endArrow=classic;html=1;rounded=0;entryX=0;entryY=0.5;entryDx=0;entryDy=0;exitX=1;exitY=0.5;exitDx=0;exitDy=0;edgeStyle=entityRelationEdgeStyle;" parent="1" source="6N-k74M5xbbgnaRkJVjt-8" target="6N-k74M5xbbgnaRkJVjt-58" edge="1">
          <mxGeometry width="50" height="50" relative="1" as="geometry">
            <mxPoint x="1020" y="3720" as="sourcePoint" />
            <mxPoint x="1070" y="3670" as="targetPoint" />
          </mxGeometry>
        </mxCell>
        <mxCell id="6N-k74M5xbbgnaRkJVjt-97" value="Полке &quot;Комментарий&quot;&lt;br style=&quot;border-color: var(--border-color);&quot;&gt;(текстовое поле)&lt;font color=&quot;#050505&quot;&gt;&lt;br&gt;&lt;/font&gt;" style="rounded=1;whiteSpace=wrap;html=1;arcSize=22;labelBackgroundColor=none;fillColor=#f5f5f5;gradientColor=#b3b3b3;strokeColor=#666666;" parent="1" vertex="1">
          <mxGeometry x="1160" y="4252" width="240" height="60" as="geometry" />
        </mxCell>
        <mxCell id="6N-k74M5xbbgnaRkJVjt-99" value="&lt;font color=&quot;#050505&quot;&gt;Только русский алфовит&lt;/font&gt;" style="rounded=1;whiteSpace=wrap;html=1;arcSize=22;labelBackgroundColor=none;fillColor=#f5f5f5;gradientColor=#b3b3b3;strokeColor=#666666;" parent="1" vertex="1">
          <mxGeometry x="1540" y="4092" width="200" height="40" as="geometry" />
        </mxCell>
        <mxCell id="6N-k74M5xbbgnaRkJVjt-100" value="Длинна до 24 символов" style="rounded=1;whiteSpace=wrap;html=1;arcSize=22;labelBackgroundColor=none;fillColor=#f5f5f5;gradientColor=#b3b3b3;strokeColor=#666666;" parent="1" vertex="1">
          <mxGeometry x="1540" y="4232" width="200" height="40" as="geometry" />
        </mxCell>
        <mxCell id="6N-k74M5xbbgnaRkJVjt-101" value="&lt;font color=&quot;#050505&quot;&gt;Тире&lt;/font&gt;" style="rounded=1;whiteSpace=wrap;html=1;arcSize=22;labelBackgroundColor=none;fillColor=#f5f5f5;gradientColor=#b3b3b3;strokeColor=#666666;" parent="1" vertex="1">
          <mxGeometry x="1540" y="4442" width="200" height="40" as="geometry" />
        </mxCell>
        <mxCell id="6N-k74M5xbbgnaRkJVjt-102" value="Пробел" style="rounded=1;whiteSpace=wrap;html=1;arcSize=22;labelBackgroundColor=none;fillColor=#f5f5f5;gradientColor=#b3b3b3;strokeColor=#666666;" parent="1" vertex="1">
          <mxGeometry x="1540" y="4512" width="200" height="40" as="geometry" />
        </mxCell>
        <mxCell id="6N-k74M5xbbgnaRkJVjt-104" value="" style="endArrow=classic;html=1;rounded=0;exitX=1;exitY=0.5;exitDx=0;exitDy=0;entryX=0;entryY=0.5;entryDx=0;entryDy=0;edgeStyle=entityRelationEdgeStyle;" parent="1" source="6N-k74M5xbbgnaRkJVjt-97" target="6N-k74M5xbbgnaRkJVjt-99" edge="1">
          <mxGeometry width="50" height="50" relative="1" as="geometry">
            <mxPoint x="1390" y="4382" as="sourcePoint" />
            <mxPoint x="1440" y="4332" as="targetPoint" />
          </mxGeometry>
        </mxCell>
        <mxCell id="6N-k74M5xbbgnaRkJVjt-105" value="" style="endArrow=classic;html=1;rounded=0;exitX=1;exitY=0.5;exitDx=0;exitDy=0;entryX=0;entryY=0.5;entryDx=0;entryDy=0;edgeStyle=entityRelationEdgeStyle;" parent="1" source="6N-k74M5xbbgnaRkJVjt-97" target="6N-k74M5xbbgnaRkJVjt-100" edge="1">
          <mxGeometry width="50" height="50" relative="1" as="geometry">
            <mxPoint x="1400" y="4382" as="sourcePoint" />
            <mxPoint x="1450" y="4332" as="targetPoint" />
          </mxGeometry>
        </mxCell>
        <mxCell id="6N-k74M5xbbgnaRkJVjt-106" value="" style="endArrow=classic;html=1;rounded=0;exitX=1;exitY=0.5;exitDx=0;exitDy=0;entryX=0;entryY=0.5;entryDx=0;entryDy=0;edgeStyle=entityRelationEdgeStyle;" parent="1" source="6N-k74M5xbbgnaRkJVjt-97" target="6N-k74M5xbbgnaRkJVjt-101" edge="1">
          <mxGeometry width="50" height="50" relative="1" as="geometry">
            <mxPoint x="1390" y="4402" as="sourcePoint" />
            <mxPoint x="1440" y="4352" as="targetPoint" />
          </mxGeometry>
        </mxCell>
        <mxCell id="6N-k74M5xbbgnaRkJVjt-107" value="" style="endArrow=classic;html=1;rounded=0;exitX=1;exitY=0.5;exitDx=0;exitDy=0;entryX=0;entryY=0.5;entryDx=0;entryDy=0;edgeStyle=entityRelationEdgeStyle;" parent="1" source="6N-k74M5xbbgnaRkJVjt-97" target="6N-k74M5xbbgnaRkJVjt-102" edge="1">
          <mxGeometry width="50" height="50" relative="1" as="geometry">
            <mxPoint x="1400" y="4412" as="sourcePoint" />
            <mxPoint x="1450" y="4362" as="targetPoint" />
          </mxGeometry>
        </mxCell>
        <mxCell id="6N-k74M5xbbgnaRkJVjt-108" value="&lt;font color=&quot;#050505&quot;&gt;Точка&lt;/font&gt;" style="rounded=1;whiteSpace=wrap;html=1;arcSize=22;labelBackgroundColor=none;fillColor=#f5f5f5;gradientColor=#b3b3b3;strokeColor=#666666;" parent="1" vertex="1">
          <mxGeometry x="1540" y="4302" width="200" height="40" as="geometry" />
        </mxCell>
        <mxCell id="6N-k74M5xbbgnaRkJVjt-109" value="&lt;font color=&quot;#050505&quot;&gt;Запятая&lt;/font&gt;" style="rounded=1;whiteSpace=wrap;html=1;arcSize=22;labelBackgroundColor=none;fillColor=#f5f5f5;gradientColor=#b3b3b3;strokeColor=#666666;" parent="1" vertex="1">
          <mxGeometry x="1540" y="4372" width="200" height="40" as="geometry" />
        </mxCell>
        <mxCell id="6N-k74M5xbbgnaRkJVjt-110" value="&lt;font color=&quot;#050505&quot;&gt;Цифры&lt;/font&gt;" style="rounded=1;whiteSpace=wrap;html=1;arcSize=22;labelBackgroundColor=none;fillColor=#f5f5f5;gradientColor=#b3b3b3;strokeColor=#666666;" parent="1" vertex="1">
          <mxGeometry x="1540" y="4162" width="200" height="40" as="geometry" />
        </mxCell>
        <mxCell id="6N-k74M5xbbgnaRkJVjt-111" value="" style="endArrow=classic;html=1;rounded=0;exitX=1;exitY=0.5;exitDx=0;exitDy=0;entryX=0;entryY=0.5;entryDx=0;entryDy=0;edgeStyle=entityRelationEdgeStyle;" parent="1" source="6N-k74M5xbbgnaRkJVjt-97" target="6N-k74M5xbbgnaRkJVjt-110" edge="1">
          <mxGeometry width="50" height="50" relative="1" as="geometry">
            <mxPoint x="1510" y="4262" as="sourcePoint" />
            <mxPoint x="1560" y="4212" as="targetPoint" />
          </mxGeometry>
        </mxCell>
        <mxCell id="6N-k74M5xbbgnaRkJVjt-114" value="" style="endArrow=classic;html=1;rounded=0;exitX=1;exitY=0.5;exitDx=0;exitDy=0;entryX=0;entryY=0.5;entryDx=0;entryDy=0;edgeStyle=entityRelationEdgeStyle;" parent="1" source="6N-k74M5xbbgnaRkJVjt-97" target="6N-k74M5xbbgnaRkJVjt-108" edge="1">
          <mxGeometry width="50" height="50" relative="1" as="geometry">
            <mxPoint x="1500" y="4462" as="sourcePoint" />
            <mxPoint x="1550" y="4412" as="targetPoint" />
          </mxGeometry>
        </mxCell>
        <mxCell id="6N-k74M5xbbgnaRkJVjt-115" value="" style="endArrow=classic;html=1;rounded=0;exitX=1;exitY=0.5;exitDx=0;exitDy=0;entryX=0;entryY=0.5;entryDx=0;entryDy=0;edgeStyle=entityRelationEdgeStyle;" parent="1" source="6N-k74M5xbbgnaRkJVjt-97" target="6N-k74M5xbbgnaRkJVjt-109" edge="1">
          <mxGeometry width="50" height="50" relative="1" as="geometry">
            <mxPoint x="1800" y="4512" as="sourcePoint" />
            <mxPoint x="1850" y="4462" as="targetPoint" />
          </mxGeometry>
        </mxCell>
        <mxCell id="6N-k74M5xbbgnaRkJVjt-117" value="" style="endArrow=classic;html=1;rounded=0;entryX=0;entryY=0.5;entryDx=0;entryDy=0;exitX=1;exitY=0.5;exitDx=0;exitDy=0;edgeStyle=entityRelationEdgeStyle;" parent="1" source="6N-k74M5xbbgnaRkJVjt-8" target="6N-k74M5xbbgnaRkJVjt-97" edge="1">
          <mxGeometry width="50" height="50" relative="1" as="geometry">
            <mxPoint x="840" y="4210" as="sourcePoint" />
            <mxPoint x="890" y="4160" as="targetPoint" />
          </mxGeometry>
        </mxCell>
        <mxCell id="6N-k74M5xbbgnaRkJVjt-118" value="&lt;font color=&quot;#050505&quot;&gt;Кнопка &quot;Назад&quot;&lt;br&gt;&lt;/font&gt;" style="rounded=1;whiteSpace=wrap;html=1;arcSize=22;labelBackgroundColor=none;fillColor=#f5f5f5;gradientColor=#b3b3b3;strokeColor=#666666;" parent="1" vertex="1">
          <mxGeometry x="1150" y="4710" width="240" height="60" as="geometry" />
        </mxCell>
        <mxCell id="6N-k74M5xbbgnaRkJVjt-119" value="Кнопка &quot;Заказать&quot;&lt;font color=&quot;#050505&quot;&gt;&lt;br&gt;&lt;/font&gt;" style="rounded=1;whiteSpace=wrap;html=1;arcSize=22;labelBackgroundColor=none;fillColor=#f5f5f5;gradientColor=#b3b3b3;strokeColor=#666666;" parent="1" vertex="1">
          <mxGeometry x="1150" y="5030" width="240" height="60" as="geometry" />
        </mxCell>
        <mxCell id="6N-k74M5xbbgnaRkJVjt-120" value="При клике пользователь переходит на форму &quot;Для кого самокат&quot;&lt;br&gt;(при переключении между формами введённая информация сохраняется)&lt;font color=&quot;#050505&quot;&gt;&lt;br&gt;&lt;/font&gt;" style="rounded=1;whiteSpace=wrap;html=1;arcSize=22;labelBackgroundColor=none;fillColor=#f5f5f5;gradientColor=#b3b3b3;strokeColor=#666666;" parent="1" vertex="1">
          <mxGeometry x="1540" y="4710" width="445" height="60" as="geometry" />
        </mxCell>
        <mxCell id="6N-k74M5xbbgnaRkJVjt-121" value="" style="endArrow=classic;html=1;rounded=0;exitX=1;exitY=0.5;exitDx=0;exitDy=0;entryX=0;entryY=0.5;entryDx=0;entryDy=0;" parent="1" source="6N-k74M5xbbgnaRkJVjt-118" target="6N-k74M5xbbgnaRkJVjt-120" edge="1">
          <mxGeometry width="50" height="50" relative="1" as="geometry">
            <mxPoint x="1470" y="4800" as="sourcePoint" />
            <mxPoint x="1520" y="4750" as="targetPoint" />
          </mxGeometry>
        </mxCell>
        <mxCell id="6N-k74M5xbbgnaRkJVjt-122" value="" style="endArrow=classic;html=1;rounded=0;exitX=1;exitY=0.5;exitDx=0;exitDy=0;entryX=0;entryY=0.5;entryDx=0;entryDy=0;edgeStyle=entityRelationEdgeStyle;" parent="1" source="6N-k74M5xbbgnaRkJVjt-8" target="6N-k74M5xbbgnaRkJVjt-118" edge="1">
          <mxGeometry width="50" height="50" relative="1" as="geometry">
            <mxPoint x="910" y="3230" as="sourcePoint" />
            <mxPoint x="980" y="4300" as="targetPoint" />
          </mxGeometry>
        </mxCell>
        <mxCell id="6N-k74M5xbbgnaRkJVjt-123" value="&lt;font color=&quot;#050505&quot;&gt;Клик по кнопке, оформляется заказ&lt;br&gt;(если все обязательные поля заполнены корректно)&lt;br&gt;&lt;/font&gt;" style="rounded=1;whiteSpace=wrap;html=1;arcSize=22;labelBackgroundColor=none;fillColor=#f5f5f5;gradientColor=#b3b3b3;strokeColor=#666666;" parent="1" vertex="1">
          <mxGeometry x="1470" y="4990" width="295" height="50" as="geometry" />
        </mxCell>
        <mxCell id="6N-k74M5xbbgnaRkJVjt-124" value="Клик по кнопке, заказ не оформляется&lt;br style=&quot;border-color: var(--border-color); color: rgb(5, 5, 5);&quot;&gt;&lt;span style=&quot;color: rgb(5, 5, 5);&quot;&gt;(если не все обязательные поля заполнены корректно)&lt;/span&gt;&lt;font color=&quot;#050505&quot;&gt;&lt;br&gt;&lt;/font&gt;" style="rounded=1;whiteSpace=wrap;html=1;arcSize=22;labelBackgroundColor=none;fillColor=#f5f5f5;gradientColor=#b3b3b3;strokeColor=#666666;" parent="1" vertex="1">
          <mxGeometry x="1475" y="5190" width="290" height="50" as="geometry" />
        </mxCell>
        <mxCell id="6N-k74M5xbbgnaRkJVjt-125" value="" style="endArrow=classic;html=1;rounded=0;exitX=1;exitY=0.5;exitDx=0;exitDy=0;entryX=0;entryY=0.5;entryDx=0;entryDy=0;edgeStyle=entityRelationEdgeStyle;" parent="1" source="6N-k74M5xbbgnaRkJVjt-119" target="6N-k74M5xbbgnaRkJVjt-123" edge="1">
          <mxGeometry width="50" height="50" relative="1" as="geometry">
            <mxPoint x="1410" y="5000" as="sourcePoint" />
            <mxPoint x="1460" y="4950" as="targetPoint" />
          </mxGeometry>
        </mxCell>
        <mxCell id="6N-k74M5xbbgnaRkJVjt-126" value="Кнопка &quot;Посмотреть статус &quot;&lt;font color=&quot;#050505&quot;&gt;&lt;br&gt;&lt;/font&gt;" style="rounded=1;whiteSpace=wrap;html=1;arcSize=22;labelBackgroundColor=none;fillColor=#f5f5f5;gradientColor=#b3b3b3;strokeColor=#666666;" parent="1" vertex="1">
          <mxGeometry x="1860" y="5030" width="165" height="40" as="geometry" />
        </mxCell>
        <mxCell id="6N-k74M5xbbgnaRkJVjt-127" value="&amp;nbsp;Появится всплывающее окно с текстом&amp;nbsp; &quot;Номер заказа NNNNN. Запишите его: пригодится, чтобы отслеживать статус&quot;&lt;font color=&quot;#050505&quot;&gt;&lt;br&gt;&lt;/font&gt;" style="rounded=1;whiteSpace=wrap;html=1;arcSize=22;labelBackgroundColor=none;fillColor=#f5f5f5;gradientColor=#b3b3b3;strokeColor=#666666;" parent="1" vertex="1">
          <mxGeometry x="1860" y="4930" width="615" height="40" as="geometry" />
        </mxCell>
        <mxCell id="6N-k74M5xbbgnaRkJVjt-130" value="При клике переводит на экран &quot;Статус заказа&quot; (в нём уже заполнено поле &quot;Номер заказа&quot;)&lt;font color=&quot;#050505&quot;&gt;&lt;br&gt;&lt;/font&gt;" style="rounded=1;whiteSpace=wrap;html=1;arcSize=22;labelBackgroundColor=none;fillColor=#f5f5f5;gradientColor=#b3b3b3;strokeColor=#666666;" parent="1" vertex="1">
          <mxGeometry x="2085" y="5030" width="390" height="40" as="geometry" />
        </mxCell>
        <mxCell id="6N-k74M5xbbgnaRkJVjt-131" value="" style="endArrow=classic;html=1;rounded=0;exitX=1;exitY=0.5;exitDx=0;exitDy=0;entryX=0;entryY=0.5;entryDx=0;entryDy=0;" parent="1" source="6N-k74M5xbbgnaRkJVjt-126" target="6N-k74M5xbbgnaRkJVjt-130" edge="1">
          <mxGeometry width="50" height="50" relative="1" as="geometry">
            <mxPoint x="2085" y="5190" as="sourcePoint" />
            <mxPoint x="2135" y="5140" as="targetPoint" />
          </mxGeometry>
        </mxCell>
        <mxCell id="6N-k74M5xbbgnaRkJVjt-132" value="" style="endArrow=classic;html=1;rounded=0;entryX=0;entryY=0.5;entryDx=0;entryDy=0;exitX=1;exitY=0.5;exitDx=0;exitDy=0;edgeStyle=entityRelationEdgeStyle;" parent="1" source="6N-k74M5xbbgnaRkJVjt-8" target="6N-k74M5xbbgnaRkJVjt-119" edge="1">
          <mxGeometry width="50" height="50" relative="1" as="geometry">
            <mxPoint x="910" y="3760" as="sourcePoint" />
            <mxPoint x="990" y="5070" as="targetPoint" />
          </mxGeometry>
        </mxCell>
        <mxCell id="6N-k74M5xbbgnaRkJVjt-133" value="" style="endArrow=classic;html=1;rounded=0;exitX=1;exitY=0.5;exitDx=0;exitDy=0;entryX=0;entryY=0.5;entryDx=0;entryDy=0;edgeStyle=entityRelationEdgeStyle;" parent="1" source="6N-k74M5xbbgnaRkJVjt-119" target="6N-k74M5xbbgnaRkJVjt-124" edge="1">
          <mxGeometry width="50" height="50" relative="1" as="geometry">
            <mxPoint x="1340" y="5230" as="sourcePoint" />
            <mxPoint x="1390" y="5180" as="targetPoint" />
          </mxGeometry>
        </mxCell>
        <mxCell id="6N-k74M5xbbgnaRkJVjt-134" value="&lt;font color=&quot;#050505&quot;&gt;Ошибка &quot;Введите корректный&amp;nbsp; &amp;lt;Имя поля&amp;gt;&quot;&amp;nbsp;&lt;br&gt;&lt;/font&gt;" style="rounded=1;whiteSpace=wrap;html=1;arcSize=22;labelBackgroundColor=none;fillColor=#f5f5f5;gradientColor=#b3b3b3;strokeColor=#666666;" parent="1" vertex="1">
          <mxGeometry x="1840" y="5190" width="290" height="50" as="geometry" />
        </mxCell>
        <mxCell id="6N-k74M5xbbgnaRkJVjt-135" value="" style="endArrow=classic;html=1;rounded=0;exitX=1;exitY=0.5;exitDx=0;exitDy=0;entryX=0;entryY=0.5;entryDx=0;entryDy=0;edgeStyle=entityRelationEdgeStyle;" parent="1" source="6N-k74M5xbbgnaRkJVjt-124" target="6N-k74M5xbbgnaRkJVjt-134" edge="1">
          <mxGeometry width="50" height="50" relative="1" as="geometry">
            <mxPoint x="1770" y="5320" as="sourcePoint" />
            <mxPoint x="1820" y="5270" as="targetPoint" />
          </mxGeometry>
        </mxCell>
        <mxCell id="6N-k74M5xbbgnaRkJVjt-136" value="" style="endArrow=classic;html=1;rounded=0;exitX=1;exitY=0.5;exitDx=0;exitDy=0;entryX=0;entryY=0.5;entryDx=0;entryDy=0;edgeStyle=entityRelationEdgeStyle;" parent="1" source="6N-k74M5xbbgnaRkJVjt-123" target="6N-k74M5xbbgnaRkJVjt-127" edge="1">
          <mxGeometry width="50" height="50" relative="1" as="geometry">
            <mxPoint x="1780" y="4930" as="sourcePoint" />
            <mxPoint x="1830" y="4880" as="targetPoint" />
          </mxGeometry>
        </mxCell>
        <mxCell id="6N-k74M5xbbgnaRkJVjt-137" value="" style="endArrow=classic;html=1;rounded=0;exitX=1;exitY=0.5;exitDx=0;exitDy=0;entryX=0;entryY=0.5;entryDx=0;entryDy=0;edgeStyle=entityRelationEdgeStyle;" parent="1" source="6N-k74M5xbbgnaRkJVjt-123" target="6N-k74M5xbbgnaRkJVjt-126" edge="1">
          <mxGeometry width="50" height="50" relative="1" as="geometry">
            <mxPoint x="1790" y="5160" as="sourcePoint" />
            <mxPoint x="1840" y="5110" as="targetPoint" />
          </mxGeometry>
        </mxCell>
        <mxCell id="8qORFBvdMXtc1hidTJIK-1" value="&lt;font color=&quot;#0d0d0d&quot;&gt;При выборе появляется галочка черного цвета с лева от текста, цвет текста становится черным&lt;br&gt;&lt;/font&gt;" style="rounded=1;whiteSpace=wrap;html=1;arcSize=22;labelBackgroundColor=none;fillColor=#dae8fc;gradientColor=#7ea6e0;strokeColor=#6c8ebf;" vertex="1" parent="1">
          <mxGeometry x="-1520" y="3210" width="290" height="40" as="geometry" />
        </mxCell>
        <mxCell id="8qORFBvdMXtc1hidTJIK-2" value="При выборе появляется галочка черного цвета с лева от текста, цвет текста становится черным&lt;font color=&quot;#0d0d0d&quot;&gt;&lt;br&gt;&lt;/font&gt;" style="rounded=1;whiteSpace=wrap;html=1;arcSize=22;labelBackgroundColor=none;fillColor=#dae8fc;gradientColor=#7ea6e0;strokeColor=#6c8ebf;" vertex="1" parent="1">
          <mxGeometry x="-1520" y="3310" width="290" height="40" as="geometry" />
        </mxCell>
        <mxCell id="8qORFBvdMXtc1hidTJIK-3" value="" style="endArrow=classic;html=1;rounded=0;exitX=0;exitY=0.5;exitDx=0;exitDy=0;entryX=1;entryY=0.5;entryDx=0;entryDy=0;" edge="1" parent="1" source="_SnUvuW7pjR6wicyARaL-203" target="8qORFBvdMXtc1hidTJIK-1">
          <mxGeometry width="50" height="50" relative="1" as="geometry">
            <mxPoint x="-1260" y="3200" as="sourcePoint" />
            <mxPoint x="-1230" y="3230" as="targetPoint" />
          </mxGeometry>
        </mxCell>
        <mxCell id="8qORFBvdMXtc1hidTJIK-4" value="" style="endArrow=classic;html=1;rounded=0;exitX=0;exitY=0.5;exitDx=0;exitDy=0;entryX=1;entryY=0.5;entryDx=0;entryDy=0;" edge="1" parent="1" source="_SnUvuW7pjR6wicyARaL-202" target="8qORFBvdMXtc1hidTJIK-2">
          <mxGeometry width="50" height="50" relative="1" as="geometry">
            <mxPoint x="-1290" y="3420" as="sourcePoint" />
            <mxPoint x="-1230" y="3330" as="targetPoint" />
          </mxGeometry>
        </mxCell>
        <mxCell id="8qORFBvdMXtc1hidTJIK-5" value="&lt;font color=&quot;#0d0d0d&quot;&gt;Цвет текста черный&lt;/font&gt;" style="rounded=1;whiteSpace=wrap;html=1;arcSize=22;labelBackgroundColor=none;fillColor=#dae8fc;gradientColor=#7ea6e0;strokeColor=#6c8ebf;" vertex="1" parent="1">
          <mxGeometry x="-960" y="-190" width="180" height="40" as="geometry" />
        </mxCell>
        <mxCell id="8qORFBvdMXtc1hidTJIK-6" value="" style="endArrow=classic;html=1;rounded=0;exitX=0;exitY=0.5;exitDx=0;exitDy=0;entryX=1;entryY=0.5;entryDx=0;entryDy=0;edgeStyle=orthogonalEdgeStyle;curved=1;" edge="1" parent="1" source="_SnUvuW7pjR6wicyARaL-60" target="8qORFBvdMXtc1hidTJIK-5">
          <mxGeometry width="50" height="50" relative="1" as="geometry">
            <mxPoint x="-700" y="-80" as="sourcePoint" />
            <mxPoint x="-650" y="-130" as="targetPoint" />
          </mxGeometry>
        </mxCell>
        <mxCell id="8qORFBvdMXtc1hidTJIK-7" value="" style="endArrow=classic;html=1;rounded=0;exitX=0;exitY=0.5;exitDx=0;exitDy=0;entryX=1;entryY=0.5;entryDx=0;entryDy=0;edgeStyle=orthogonalEdgeStyle;curved=1;" edge="1" parent="1" source="_SnUvuW7pjR6wicyARaL-58" target="_SnUvuW7pjR6wicyARaL-60">
          <mxGeometry width="50" height="50" relative="1" as="geometry">
            <mxPoint x="-250" as="sourcePoint" />
            <mxPoint x="-200" y="-50" as="targetPoint" />
            <Array as="points">
              <mxPoint x="-240" y="300" />
              <mxPoint x="-240" y="-200" />
            </Array>
          </mxGeometry>
        </mxCell>
        <mxCell id="8qORFBvdMXtc1hidTJIK-8" value="&lt;font color=&quot;#0d0d0d&quot;&gt;Цвет текста черный&lt;/font&gt;" style="rounded=1;whiteSpace=wrap;html=1;arcSize=22;labelBackgroundColor=none;fillColor=#dae8fc;gradientColor=#7ea6e0;strokeColor=#6c8ebf;" vertex="1" parent="1">
          <mxGeometry x="-955" y="50" width="180" height="40" as="geometry" />
        </mxCell>
        <mxCell id="8qORFBvdMXtc1hidTJIK-9" value="&lt;font color=&quot;#0d0d0d&quot;&gt;Цвет текста тлейсхолдера серый&lt;/font&gt;" style="rounded=1;whiteSpace=wrap;html=1;arcSize=22;labelBackgroundColor=none;fillColor=#dae8fc;gradientColor=#7ea6e0;strokeColor=#6c8ebf;" vertex="1" parent="1">
          <mxGeometry x="-955" y="-10" width="180" height="40" as="geometry" />
        </mxCell>
        <mxCell id="8qORFBvdMXtc1hidTJIK-10" value="" style="endArrow=classic;html=1;rounded=0;exitX=0;exitY=0.5;exitDx=0;exitDy=0;entryX=1;entryY=0.5;entryDx=0;entryDy=0;edgeStyle=orthogonalEdgeStyle;curved=1;" edge="1" parent="1" source="_SnUvuW7pjR6wicyARaL-61" target="8qORFBvdMXtc1hidTJIK-9">
          <mxGeometry width="50" height="50" relative="1" as="geometry">
            <mxPoint x="-725" y="120" as="sourcePoint" />
            <mxPoint x="-675" y="70" as="targetPoint" />
          </mxGeometry>
        </mxCell>
        <mxCell id="8qORFBvdMXtc1hidTJIK-11" value="" style="endArrow=classic;html=1;rounded=0;exitX=0;exitY=0.5;exitDx=0;exitDy=0;entryX=1;entryY=0.5;entryDx=0;entryDy=0;edgeStyle=orthogonalEdgeStyle;curved=1;" edge="1" parent="1" source="_SnUvuW7pjR6wicyARaL-61" target="8qORFBvdMXtc1hidTJIK-8">
          <mxGeometry width="50" height="50" relative="1" as="geometry">
            <mxPoint x="-725" y="80" as="sourcePoint" />
            <mxPoint x="-675" y="30" as="targetPoint" />
          </mxGeometry>
        </mxCell>
        <mxCell id="8qORFBvdMXtc1hidTJIK-12" value="" style="endArrow=classic;html=1;rounded=0;exitX=0;exitY=0.5;exitDx=0;exitDy=0;entryX=1;entryY=0.5;entryDx=0;entryDy=0;edgeStyle=orthogonalEdgeStyle;curved=1;" edge="1" parent="1" source="_SnUvuW7pjR6wicyARaL-58" target="_SnUvuW7pjR6wicyARaL-61">
          <mxGeometry width="50" height="50" relative="1" as="geometry">
            <mxPoint x="-430" y="190" as="sourcePoint" />
            <mxPoint x="-380" y="140" as="targetPoint" />
          </mxGeometry>
        </mxCell>
        <mxCell id="8qORFBvdMXtc1hidTJIK-13" value="&lt;font color=&quot;#0d0d0d&quot;&gt;Цвет текста черный&lt;/font&gt;" style="rounded=1;whiteSpace=wrap;html=1;arcSize=22;labelBackgroundColor=none;fillColor=#dae8fc;gradientColor=#7ea6e0;strokeColor=#6c8ebf;" vertex="1" parent="1">
          <mxGeometry x="-955" y="330" width="180" height="40" as="geometry" />
        </mxCell>
        <mxCell id="8qORFBvdMXtc1hidTJIK-14" value="&lt;font color=&quot;#0d0d0d&quot;&gt;Цвет текста тлейсхолдера серый&lt;/font&gt;" style="rounded=1;whiteSpace=wrap;html=1;arcSize=22;labelBackgroundColor=none;fillColor=#dae8fc;gradientColor=#7ea6e0;strokeColor=#6c8ebf;" vertex="1" parent="1">
          <mxGeometry x="-955" y="250" width="180" height="40" as="geometry" />
        </mxCell>
        <mxCell id="8qORFBvdMXtc1hidTJIK-15" value="" style="endArrow=classic;html=1;rounded=0;exitX=0;exitY=0.5;exitDx=0;exitDy=0;entryX=1;entryY=0.5;entryDx=0;entryDy=0;edgeStyle=orthogonalEdgeStyle;curved=1;" edge="1" parent="1" source="_SnUvuW7pjR6wicyARaL-62" target="8qORFBvdMXtc1hidTJIK-14">
          <mxGeometry width="50" height="50" relative="1" as="geometry">
            <mxPoint x="-685" y="430" as="sourcePoint" />
            <mxPoint x="-635" y="380" as="targetPoint" />
          </mxGeometry>
        </mxCell>
        <mxCell id="8qORFBvdMXtc1hidTJIK-16" value="" style="endArrow=classic;html=1;rounded=0;exitX=0;exitY=0.5;exitDx=0;exitDy=0;entryX=1;entryY=0.5;entryDx=0;entryDy=0;edgeStyle=orthogonalEdgeStyle;curved=1;" edge="1" parent="1" source="_SnUvuW7pjR6wicyARaL-62" target="8qORFBvdMXtc1hidTJIK-13">
          <mxGeometry width="50" height="50" relative="1" as="geometry">
            <mxPoint x="-1125" y="340" as="sourcePoint" />
            <mxPoint x="-1075" y="290" as="targetPoint" />
          </mxGeometry>
        </mxCell>
        <mxCell id="8qORFBvdMXtc1hidTJIK-17" value="&lt;font color=&quot;#0d0d0d&quot;&gt;Цвет текста черный&lt;/font&gt;" style="rounded=1;whiteSpace=wrap;html=1;arcSize=22;labelBackgroundColor=none;fillColor=#dae8fc;gradientColor=#7ea6e0;strokeColor=#6c8ebf;" vertex="1" parent="1">
          <mxGeometry x="-960" y="650" width="180" height="40" as="geometry" />
        </mxCell>
        <mxCell id="8qORFBvdMXtc1hidTJIK-18" value="&lt;font color=&quot;#0d0d0d&quot;&gt;Цвет текста тлейсхолдера серый&lt;/font&gt;" style="rounded=1;whiteSpace=wrap;html=1;arcSize=22;labelBackgroundColor=none;fillColor=#dae8fc;gradientColor=#7ea6e0;strokeColor=#6c8ebf;" vertex="1" parent="1">
          <mxGeometry x="-960" y="564.5" width="180" height="40" as="geometry" />
        </mxCell>
        <mxCell id="8qORFBvdMXtc1hidTJIK-19" value="" style="endArrow=classic;html=1;rounded=0;exitX=0;exitY=0.5;exitDx=0;exitDy=0;entryX=1;entryY=0.5;entryDx=0;entryDy=0;edgeStyle=orthogonalEdgeStyle;curved=1;" edge="1" parent="1" source="_SnUvuW7pjR6wicyARaL-63" target="8qORFBvdMXtc1hidTJIK-18">
          <mxGeometry width="50" height="50" relative="1" as="geometry">
            <mxPoint x="-750" y="690" as="sourcePoint" />
            <mxPoint x="-700" y="640" as="targetPoint" />
          </mxGeometry>
        </mxCell>
        <mxCell id="8qORFBvdMXtc1hidTJIK-20" value="" style="endArrow=classic;html=1;rounded=0;exitX=0;exitY=0.5;exitDx=0;exitDy=0;entryX=1;entryY=0.5;entryDx=0;entryDy=0;edgeStyle=orthogonalEdgeStyle;curved=1;" edge="1" parent="1" source="_SnUvuW7pjR6wicyARaL-63" target="8qORFBvdMXtc1hidTJIK-17">
          <mxGeometry width="50" height="50" relative="1" as="geometry">
            <mxPoint x="-690" y="690" as="sourcePoint" />
            <mxPoint x="-640" y="640" as="targetPoint" />
          </mxGeometry>
        </mxCell>
        <mxCell id="8qORFBvdMXtc1hidTJIK-21" value="&lt;font color=&quot;#0d0d0d&quot;&gt;Цвет текста тлейсхолдера серый&lt;/font&gt;" style="rounded=1;whiteSpace=wrap;html=1;arcSize=22;labelBackgroundColor=none;fillColor=#dae8fc;gradientColor=#7ea6e0;strokeColor=#6c8ebf;" vertex="1" parent="1">
          <mxGeometry x="-960" y="860" width="180" height="40" as="geometry" />
        </mxCell>
        <mxCell id="8qORFBvdMXtc1hidTJIK-22" value="" style="endArrow=classic;html=1;rounded=0;exitX=0;exitY=0.5;exitDx=0;exitDy=0;entryX=1;entryY=0.5;entryDx=0;entryDy=0;edgeStyle=orthogonalEdgeStyle;curved=1;" edge="1" parent="1" source="_SnUvuW7pjR6wicyARaL-64" target="8qORFBvdMXtc1hidTJIK-21">
          <mxGeometry width="50" height="50" relative="1" as="geometry">
            <mxPoint x="-740" y="970" as="sourcePoint" />
            <mxPoint x="-690" y="920" as="targetPoint" />
          </mxGeometry>
        </mxCell>
        <mxCell id="8qORFBvdMXtc1hidTJIK-23" value="" style="endArrow=classic;html=1;rounded=0;exitX=0;exitY=0.5;exitDx=0;exitDy=0;entryX=1;entryY=0.5;entryDx=0;entryDy=0;edgeStyle=orthogonalEdgeStyle;curved=1;" edge="1" parent="1" source="_SnUvuW7pjR6wicyARaL-64" target="_SnUvuW7pjR6wicyARaL-82">
          <mxGeometry width="50" height="50" relative="1" as="geometry">
            <mxPoint x="-750" y="800" as="sourcePoint" />
            <mxPoint x="-700" y="750" as="targetPoint" />
          </mxGeometry>
        </mxCell>
        <mxCell id="8qORFBvdMXtc1hidTJIK-24" value="" style="endArrow=classic;html=1;rounded=0;exitX=0;exitY=0.5;exitDx=0;exitDy=0;entryX=1;entryY=0.5;entryDx=0;entryDy=0;edgeStyle=orthogonalEdgeStyle;curved=1;" edge="1" parent="1" source="_SnUvuW7pjR6wicyARaL-64" target="_SnUvuW7pjR6wicyARaL-86">
          <mxGeometry width="50" height="50" relative="1" as="geometry">
            <mxPoint x="-740" y="990" as="sourcePoint" />
            <mxPoint x="-690" y="940" as="targetPoint" />
          </mxGeometry>
        </mxCell>
        <mxCell id="8qORFBvdMXtc1hidTJIK-25" value="" style="endArrow=classic;html=1;rounded=0;exitX=0;exitY=0.5;exitDx=0;exitDy=0;entryX=1;entryY=0.5;entryDx=0;entryDy=0;edgeStyle=orthogonalEdgeStyle;curved=1;" edge="1" parent="1" source="_SnUvuW7pjR6wicyARaL-64" target="_SnUvuW7pjR6wicyARaL-85">
          <mxGeometry width="50" height="50" relative="1" as="geometry">
            <mxPoint x="-740" y="970" as="sourcePoint" />
            <mxPoint x="-690" y="920" as="targetPoint" />
          </mxGeometry>
        </mxCell>
        <mxCell id="8qORFBvdMXtc1hidTJIK-26" value="" style="endArrow=classic;html=1;rounded=0;entryX=1;entryY=0.5;entryDx=0;entryDy=0;exitX=0;exitY=0.5;exitDx=0;exitDy=0;edgeStyle=orthogonalEdgeStyle;curved=1;" edge="1" parent="1" source="_SnUvuW7pjR6wicyARaL-58" target="_SnUvuW7pjR6wicyARaL-64">
          <mxGeometry width="50" height="50" relative="1" as="geometry">
            <mxPoint x="-350" y="810" as="sourcePoint" />
            <mxPoint x="-300" y="760" as="targetPoint" />
            <Array as="points">
              <mxPoint x="-290" y="300" />
              <mxPoint x="-290" y="857" />
              <mxPoint x="-470" y="857" />
              <mxPoint x="-470" y="855" />
            </Array>
          </mxGeometry>
        </mxCell>
        <mxCell id="8qORFBvdMXtc1hidTJIK-29" value="&lt;font color=&quot;#0d0d0d&quot;&gt;Цвет текста черный&lt;/font&gt;" style="rounded=1;whiteSpace=wrap;html=1;arcSize=22;labelBackgroundColor=none;fillColor=#dae8fc;gradientColor=#7ea6e0;strokeColor=#6c8ebf;" vertex="1" parent="1">
          <mxGeometry x="-955" y="1210" width="180" height="40" as="geometry" />
        </mxCell>
        <mxCell id="8qORFBvdMXtc1hidTJIK-30" value="&lt;font color=&quot;#0d0d0d&quot;&gt;Цвет текста тлейсхолдера серый&lt;/font&gt;" style="rounded=1;whiteSpace=wrap;html=1;arcSize=22;labelBackgroundColor=none;fillColor=#dae8fc;gradientColor=#7ea6e0;strokeColor=#6c8ebf;" vertex="1" parent="1">
          <mxGeometry x="-955" y="1150" width="180" height="40" as="geometry" />
        </mxCell>
        <mxCell id="8qORFBvdMXtc1hidTJIK-31" value="" style="endArrow=classic;html=1;rounded=0;exitX=0;exitY=0.5;exitDx=0;exitDy=0;entryX=1;entryY=0.5;entryDx=0;entryDy=0;edgeStyle=orthogonalEdgeStyle;curved=1;" edge="1" parent="1" source="_SnUvuW7pjR6wicyARaL-65" target="8qORFBvdMXtc1hidTJIK-30">
          <mxGeometry width="50" height="50" relative="1" as="geometry">
            <mxPoint x="-740" y="1290" as="sourcePoint" />
            <mxPoint x="-690" y="1240" as="targetPoint" />
          </mxGeometry>
        </mxCell>
        <mxCell id="8qORFBvdMXtc1hidTJIK-32" value="" style="endArrow=classic;html=1;rounded=0;exitX=0;exitY=0.5;exitDx=0;exitDy=0;entryX=1;entryY=0.5;entryDx=0;entryDy=0;edgeStyle=orthogonalEdgeStyle;curved=1;" edge="1" parent="1" source="_SnUvuW7pjR6wicyARaL-65" target="8qORFBvdMXtc1hidTJIK-29">
          <mxGeometry width="50" height="50" relative="1" as="geometry">
            <mxPoint x="-760" y="1270" as="sourcePoint" />
            <mxPoint x="-710" y="1220" as="targetPoint" />
          </mxGeometry>
        </mxCell>
        <mxCell id="8qORFBvdMXtc1hidTJIK-33" value="" style="endArrow=classic;html=1;rounded=0;exitX=0;exitY=0.5;exitDx=0;exitDy=0;entryX=1;entryY=0.5;entryDx=0;entryDy=0;edgeStyle=orthogonalEdgeStyle;curved=1;" edge="1" parent="1" source="_SnUvuW7pjR6wicyARaL-58" target="_SnUvuW7pjR6wicyARaL-65">
          <mxGeometry width="50" height="50" relative="1" as="geometry">
            <mxPoint x="-350" y="980" as="sourcePoint" />
            <mxPoint x="-300" y="930" as="targetPoint" />
            <Array as="points">
              <mxPoint x="-280" y="300" />
              <mxPoint x="-280" y="1163" />
            </Array>
          </mxGeometry>
        </mxCell>
        <mxCell id="8qORFBvdMXtc1hidTJIK-34" value="" style="endArrow=classic;html=1;rounded=0;exitX=0;exitY=0.5;exitDx=0;exitDy=0;entryX=1;entryY=0.5;entryDx=0;entryDy=0;edgeStyle=orthogonalEdgeStyle;curved=1;" edge="1" parent="1" source="_SnUvuW7pjR6wicyARaL-58" target="_SnUvuW7pjR6wicyARaL-66">
          <mxGeometry width="50" height="50" relative="1" as="geometry">
            <mxPoint x="-240" y="590" as="sourcePoint" />
            <mxPoint x="-250" y="1080" as="targetPoint" />
            <Array as="points">
              <mxPoint x="-260" y="300" />
              <mxPoint x="-260" y="1335" />
            </Array>
          </mxGeometry>
        </mxCell>
        <mxCell id="8qORFBvdMXtc1hidTJIK-35" value="&lt;font color=&quot;#0d0d0d&quot;&gt;Цвет текста черный&lt;/font&gt;" style="rounded=1;whiteSpace=wrap;html=1;arcSize=22;labelBackgroundColor=none;fillColor=#dae8fc;gradientColor=#7ea6e0;strokeColor=#6c8ebf;" vertex="1" parent="1">
          <mxGeometry x="-1090" y="1680" width="205" height="40" as="geometry" />
        </mxCell>
        <mxCell id="8qORFBvdMXtc1hidTJIK-36" value="" style="endArrow=classic;html=1;rounded=0;exitX=0;exitY=0.5;exitDx=0;exitDy=0;entryX=1;entryY=0.5;entryDx=0;entryDy=0;edgeStyle=orthogonalEdgeStyle;curved=1;" edge="1" parent="1" source="_SnUvuW7pjR6wicyARaL-192" target="8qORFBvdMXtc1hidTJIK-35">
          <mxGeometry width="50" height="50" relative="1" as="geometry">
            <mxPoint x="-780" y="1750" as="sourcePoint" />
            <mxPoint x="-730" y="1700" as="targetPoint" />
          </mxGeometry>
        </mxCell>
        <mxCell id="8qORFBvdMXtc1hidTJIK-37" value="&lt;font color=&quot;#0d0d0d&quot;&gt;Название месяца расположено вверху календаря,цвет текста черный жирный&lt;br&gt;&lt;/font&gt;" style="rounded=1;whiteSpace=wrap;html=1;arcSize=22;labelBackgroundColor=none;fillColor=#dae8fc;gradientColor=#7ea6e0;strokeColor=#6c8ebf;" vertex="1" parent="1">
          <mxGeometry x="-1740" y="1807.5" width="290" height="52.5" as="geometry" />
        </mxCell>
        <mxCell id="8qORFBvdMXtc1hidTJIK-38" value="&lt;font color=&quot;#0d0d0d&quot;&gt;Текст плейсхоодера выровнен по левому краю&lt;/font&gt;" style="rounded=1;whiteSpace=wrap;html=1;arcSize=22;labelBackgroundColor=none;fillColor=#dae8fc;gradientColor=#7ea6e0;strokeColor=#6c8ebf;" vertex="1" parent="1">
          <mxGeometry x="-1140" y="1820" width="180" height="40" as="geometry" />
        </mxCell>
        <mxCell id="8qORFBvdMXtc1hidTJIK-39" value="&lt;font color=&quot;#0d0d0d&quot;&gt;Цвет текста плейсхолдера серый&lt;/font&gt;" style="rounded=1;whiteSpace=wrap;html=1;arcSize=22;labelBackgroundColor=none;fillColor=#dae8fc;gradientColor=#7ea6e0;strokeColor=#6c8ebf;" vertex="1" parent="1">
          <mxGeometry x="-1135" y="1927.5" width="180" height="40" as="geometry" />
        </mxCell>
        <mxCell id="8qORFBvdMXtc1hidTJIK-40" value="" style="endArrow=classic;html=1;rounded=0;exitX=0;exitY=0.5;exitDx=0;exitDy=0;entryX=1;entryY=0.5;entryDx=0;entryDy=0;edgeStyle=orthogonalEdgeStyle;curved=1;" edge="1" parent="1" source="_SnUvuW7pjR6wicyARaL-194" target="8qORFBvdMXtc1hidTJIK-38">
          <mxGeometry width="50" height="50" relative="1" as="geometry">
            <mxPoint x="-900" y="2090" as="sourcePoint" />
            <mxPoint x="-850" y="2040" as="targetPoint" />
          </mxGeometry>
        </mxCell>
        <mxCell id="8qORFBvdMXtc1hidTJIK-41" value="" style="endArrow=classic;html=1;rounded=0;exitX=0;exitY=0.5;exitDx=0;exitDy=0;edgeStyle=orthogonalEdgeStyle;curved=1;" edge="1" parent="1" source="_SnUvuW7pjR6wicyARaL-194" target="8qORFBvdMXtc1hidTJIK-39">
          <mxGeometry width="50" height="50" relative="1" as="geometry">
            <mxPoint x="-930" y="1967.5" as="sourcePoint" />
            <mxPoint x="-950" y="1987.5" as="targetPoint" />
          </mxGeometry>
        </mxCell>
        <mxCell id="8qORFBvdMXtc1hidTJIK-42" value="" style="endArrow=classic;html=1;rounded=0;exitX=0;exitY=0.5;exitDx=0;exitDy=0;entryX=1;entryY=0.5;entryDx=0;entryDy=0;edgeStyle=orthogonalEdgeStyle;curved=1;" edge="1" parent="1" source="_SnUvuW7pjR6wicyARaL-194" target="_SnUvuW7pjR6wicyARaL-200">
          <mxGeometry width="50" height="50" relative="1" as="geometry">
            <mxPoint x="-930" y="1967.5" as="sourcePoint" />
            <mxPoint x="-1110" y="2067.5" as="targetPoint" />
          </mxGeometry>
        </mxCell>
        <mxCell id="8qORFBvdMXtc1hidTJIK-43" value="" style="endArrow=classic;html=1;rounded=0;exitX=0;exitY=0.5;exitDx=0;exitDy=0;entryX=1;entryY=0.5;entryDx=0;entryDy=0;edgeStyle=orthogonalEdgeStyle;curved=1;" edge="1" parent="1" source="_SnUvuW7pjR6wicyARaL-200" target="8qORFBvdMXtc1hidTJIK-37">
          <mxGeometry width="50" height="50" relative="1" as="geometry">
            <mxPoint x="-1370" y="2137.5" as="sourcePoint" />
            <mxPoint x="-1320" y="2087.5" as="targetPoint" />
            <Array as="points">
              <mxPoint x="-1360" y="2078" />
              <mxPoint x="-1360" y="1834" />
            </Array>
          </mxGeometry>
        </mxCell>
        <mxCell id="8qORFBvdMXtc1hidTJIK-44" value="&lt;font color=&quot;#0d0d0d&quot;&gt;Стрелки серого цвета для выбора месяца расположены с лева и с права под названием месяца, цвет серый&lt;br&gt;&lt;/font&gt;" style="rounded=1;whiteSpace=wrap;html=1;arcSize=22;labelBackgroundColor=none;fillColor=#dae8fc;gradientColor=#7ea6e0;strokeColor=#6c8ebf;" vertex="1" parent="1">
          <mxGeometry x="-1740" y="1921.25" width="290" height="52.5" as="geometry" />
        </mxCell>
        <mxCell id="8qORFBvdMXtc1hidTJIK-45" value="" style="endArrow=classic;html=1;rounded=0;exitX=0;exitY=0.5;exitDx=0;exitDy=0;entryX=1;entryY=0.5;entryDx=0;entryDy=0;edgeStyle=orthogonalEdgeStyle;curved=1;" edge="1" parent="1" source="_SnUvuW7pjR6wicyARaL-200" target="8qORFBvdMXtc1hidTJIK-44">
          <mxGeometry width="50" height="50" relative="1" as="geometry">
            <mxPoint x="-1350" y="2227.5" as="sourcePoint" />
            <mxPoint x="-1300" y="2177.5" as="targetPoint" />
          </mxGeometry>
        </mxCell>
        <mxCell id="8qORFBvdMXtc1hidTJIK-46" value="" style="endArrow=classic;html=1;rounded=0;exitX=0;exitY=0.5;exitDx=0;exitDy=0;entryX=1;entryY=0.5;entryDx=0;entryDy=0;edgeStyle=orthogonalEdgeStyle;curved=1;" edge="1" parent="1" source="_SnUvuW7pjR6wicyARaL-200" target="8qORFBvdMXtc1hidTJIK-47">
          <mxGeometry width="50" height="50" relative="1" as="geometry">
            <mxPoint x="-1580" y="2247.5" as="sourcePoint" />
            <mxPoint x="-1360" y="2187.5" as="targetPoint" />
          </mxGeometry>
        </mxCell>
        <mxCell id="8qORFBvdMXtc1hidTJIK-47" value="&lt;font color=&quot;#0d0d0d&quot;&gt;Дни недели расположены под стрелками с лева на право, цвет текста черный&lt;br&gt;&lt;/font&gt;" style="rounded=1;whiteSpace=wrap;html=1;arcSize=22;labelBackgroundColor=none;fillColor=#dae8fc;gradientColor=#7ea6e0;strokeColor=#6c8ebf;" vertex="1" parent="1">
          <mxGeometry x="-1740" y="2010" width="290" height="52.5" as="geometry" />
        </mxCell>
        <mxCell id="8qORFBvdMXtc1hidTJIK-48" value="&lt;font color=&quot;#0d0d0d&quot;&gt;Числа дней недели раположены в столбцах по 5 штук в 7 столбцов,цвет черный&lt;br&gt;&lt;/font&gt;" style="rounded=1;whiteSpace=wrap;html=1;arcSize=22;labelBackgroundColor=none;fillColor=#dae8fc;gradientColor=#7ea6e0;strokeColor=#6c8ebf;" vertex="1" parent="1">
          <mxGeometry x="-1740" y="2107.75" width="290" height="52.5" as="geometry" />
        </mxCell>
        <mxCell id="8qORFBvdMXtc1hidTJIK-50" value="&lt;font color=&quot;#0d0d0d&quot;&gt;Текущее число выделено синим квадратом с белой цифрой в нем&lt;br&gt;&lt;/font&gt;" style="rounded=1;whiteSpace=wrap;html=1;arcSize=22;labelBackgroundColor=none;fillColor=#dae8fc;gradientColor=#7ea6e0;strokeColor=#6c8ebf;" vertex="1" parent="1">
          <mxGeometry x="-1740" y="2240" width="290" height="52.5" as="geometry" />
        </mxCell>
        <mxCell id="8qORFBvdMXtc1hidTJIK-51" value="" style="endArrow=classic;html=1;rounded=0;exitX=0;exitY=0.5;exitDx=0;exitDy=0;entryX=1;entryY=0.5;entryDx=0;entryDy=0;edgeStyle=orthogonalEdgeStyle;curved=1;" edge="1" parent="1" source="_SnUvuW7pjR6wicyARaL-200" target="8qORFBvdMXtc1hidTJIK-50">
          <mxGeometry width="50" height="50" relative="1" as="geometry">
            <mxPoint x="-1300" y="2267.5" as="sourcePoint" />
            <mxPoint x="-1250" y="2217.5" as="targetPoint" />
          </mxGeometry>
        </mxCell>
        <mxCell id="8qORFBvdMXtc1hidTJIK-52" value="&lt;font color=&quot;#0d0d0d&quot;&gt;Числа выходных дней выделены красным&amp;nbsp;&lt;br&gt;&lt;/font&gt;" style="rounded=1;whiteSpace=wrap;html=1;arcSize=22;labelBackgroundColor=none;fillColor=#dae8fc;gradientColor=#7ea6e0;strokeColor=#6c8ebf;" vertex="1" parent="1">
          <mxGeometry x="-1740" y="2350" width="290" height="52.5" as="geometry" />
        </mxCell>
        <mxCell id="8qORFBvdMXtc1hidTJIK-53" value="" style="endArrow=classic;html=1;rounded=0;exitX=0;exitY=0.5;exitDx=0;exitDy=0;entryX=1;entryY=0.5;entryDx=0;entryDy=0;edgeStyle=orthogonalEdgeStyle;curved=1;" edge="1" parent="1" source="_SnUvuW7pjR6wicyARaL-200" target="8qORFBvdMXtc1hidTJIK-52">
          <mxGeometry width="50" height="50" relative="1" as="geometry">
            <mxPoint x="-1260" y="2407.5" as="sourcePoint" />
            <mxPoint x="-1210" y="2357.5" as="targetPoint" />
            <Array as="points">
              <mxPoint x="-1360" y="2078" />
              <mxPoint x="-1360" y="2376" />
            </Array>
          </mxGeometry>
        </mxCell>
        <mxCell id="8qORFBvdMXtc1hidTJIK-54" value="" style="endArrow=classic;html=1;rounded=0;exitX=0;exitY=0.5;exitDx=0;exitDy=0;entryX=1;entryY=0.5;entryDx=0;entryDy=0;edgeStyle=orthogonalEdgeStyle;curved=1;" edge="1" parent="1" source="_SnUvuW7pjR6wicyARaL-200" target="8qORFBvdMXtc1hidTJIK-48">
          <mxGeometry width="50" height="50" relative="1" as="geometry">
            <mxPoint x="-1280" y="2190" as="sourcePoint" />
            <mxPoint x="-1230" y="2140" as="targetPoint" />
          </mxGeometry>
        </mxCell>
        <mxCell id="8qORFBvdMXtc1hidTJIK-55" value="&lt;font color=&quot;#0d0d0d&quot;&gt;Текст плейсхоодера выровнен по левому краю&lt;/font&gt;" style="rounded=1;whiteSpace=wrap;html=1;arcSize=22;labelBackgroundColor=none;fillColor=#dae8fc;gradientColor=#7ea6e0;strokeColor=#6c8ebf;" vertex="1" parent="1">
          <mxGeometry x="-1140" y="2420" width="180" height="40" as="geometry" />
        </mxCell>
        <mxCell id="8qORFBvdMXtc1hidTJIK-56" value="&lt;font color=&quot;#0d0d0d&quot;&gt;Цвет текста плейсхолдера серый&lt;/font&gt;" style="rounded=1;whiteSpace=wrap;html=1;arcSize=22;labelBackgroundColor=none;fillColor=#dae8fc;gradientColor=#7ea6e0;strokeColor=#6c8ebf;" vertex="1" parent="1">
          <mxGeometry x="-1140" y="2520" width="180" height="40" as="geometry" />
        </mxCell>
        <mxCell id="8qORFBvdMXtc1hidTJIK-57" value="" style="endArrow=classic;html=1;rounded=0;exitX=0;exitY=0.5;exitDx=0;exitDy=0;entryX=1;entryY=0.5;entryDx=0;entryDy=0;edgeStyle=orthogonalEdgeStyle;curved=1;" edge="1" parent="1" source="_SnUvuW7pjR6wicyARaL-196" target="8qORFBvdMXtc1hidTJIK-55">
          <mxGeometry width="50" height="50" relative="1" as="geometry">
            <mxPoint x="-850" y="2440" as="sourcePoint" />
            <mxPoint x="-800" y="2390" as="targetPoint" />
          </mxGeometry>
        </mxCell>
        <mxCell id="8qORFBvdMXtc1hidTJIK-59" value="" style="endArrow=classic;html=1;rounded=0;exitX=0;exitY=0.5;exitDx=0;exitDy=0;entryX=1;entryY=0.5;entryDx=0;entryDy=0;edgeStyle=orthogonalEdgeStyle;curved=1;" edge="1" parent="1" source="_SnUvuW7pjR6wicyARaL-196" target="8qORFBvdMXtc1hidTJIK-56">
          <mxGeometry width="50" height="50" relative="1" as="geometry">
            <mxPoint x="-940" y="2770" as="sourcePoint" />
            <mxPoint x="-890" y="2720" as="targetPoint" />
          </mxGeometry>
        </mxCell>
        <mxCell id="8qORFBvdMXtc1hidTJIK-60" value="" style="endArrow=classic;html=1;rounded=0;exitX=0;exitY=0.5;exitDx=0;exitDy=0;entryX=1;entryY=0.5;entryDx=0;entryDy=0;edgeStyle=orthogonalEdgeStyle;curved=1;" edge="1" parent="1" source="_SnUvuW7pjR6wicyARaL-196" target="_SnUvuW7pjR6wicyARaL-205">
          <mxGeometry width="50" height="50" relative="1" as="geometry">
            <mxPoint x="-950" y="2730" as="sourcePoint" />
            <mxPoint x="-900" y="2680" as="targetPoint" />
          </mxGeometry>
        </mxCell>
        <mxCell id="8qORFBvdMXtc1hidTJIK-61" value="" style="endArrow=classic;html=1;rounded=0;exitX=0;exitY=0.5;exitDx=0;exitDy=0;entryX=1;entryY=0.5;entryDx=0;entryDy=0;edgeStyle=orthogonalEdgeStyle;curved=1;" edge="1" parent="1" source="_SnUvuW7pjR6wicyARaL-196" target="8qORFBvdMXtc1hidTJIK-62">
          <mxGeometry width="50" height="50" relative="1" as="geometry">
            <mxPoint x="-910" y="2615" as="sourcePoint" />
            <mxPoint x="-860" y="2565" as="targetPoint" />
          </mxGeometry>
        </mxCell>
        <mxCell id="8qORFBvdMXtc1hidTJIK-62" value="Кнопка выпадающего списка(стрелочка направленная вниз)расположена&amp;nbsp; с правого края&lt;font color=&quot;#0d0d0d&quot;&gt;&lt;br&gt;&lt;/font&gt;" style="rounded=1;whiteSpace=wrap;html=1;arcSize=22;labelBackgroundColor=none;fillColor=#dae8fc;gradientColor=#7ea6e0;strokeColor=#6c8ebf;" vertex="1" parent="1">
          <mxGeometry x="-1245" y="2610" width="290" height="40" as="geometry" />
        </mxCell>
        <mxCell id="8qORFBvdMXtc1hidTJIK-63" value="&lt;font color=&quot;#0d0d0d&quot;&gt;Элементы выпадающего списка раположены&amp;nbsp;&lt;br&gt;по левому краю&lt;br&gt;&lt;/font&gt;" style="rounded=1;whiteSpace=wrap;html=1;arcSize=22;labelBackgroundColor=none;fillColor=#dae8fc;gradientColor=#7ea6e0;strokeColor=#6c8ebf;" vertex="1" parent="1">
          <mxGeometry x="-1610" y="2700" width="290" height="40" as="geometry" />
        </mxCell>
        <mxCell id="8qORFBvdMXtc1hidTJIK-64" value="" style="endArrow=classic;html=1;rounded=0;exitX=0;exitY=0.5;exitDx=0;exitDy=0;entryX=1;entryY=0.5;entryDx=0;entryDy=0;edgeStyle=orthogonalEdgeStyle;curved=1;" edge="1" parent="1" source="_SnUvuW7pjR6wicyARaL-205" target="8qORFBvdMXtc1hidTJIK-63">
          <mxGeometry width="50" height="50" relative="1" as="geometry">
            <mxPoint x="-1340" y="2750" as="sourcePoint" />
            <mxPoint x="-1340" y="2710" as="targetPoint" />
          </mxGeometry>
        </mxCell>
        <mxCell id="8qORFBvdMXtc1hidTJIK-67" value="&lt;font color=&quot;#0d0d0d&quot;&gt;Цвет текста черный&lt;/font&gt;" style="rounded=1;whiteSpace=wrap;html=1;arcSize=22;labelBackgroundColor=none;fillColor=#dae8fc;gradientColor=#7ea6e0;strokeColor=#6c8ebf;" vertex="1" parent="1">
          <mxGeometry x="-1980" y="2540" width="205" height="30" as="geometry" />
        </mxCell>
        <mxCell id="8qORFBvdMXtc1hidTJIK-68" value="" style="endArrow=classic;html=1;rounded=0;exitX=0;exitY=0.5;exitDx=0;exitDy=0;entryX=1;entryY=0.5;entryDx=0;entryDy=0;edgeStyle=orthogonalEdgeStyle;curved=1;" edge="1" parent="1" source="8qORFBvdMXtc1hidTJIK-63" target="8qORFBvdMXtc1hidTJIK-67">
          <mxGeometry width="50" height="50" relative="1" as="geometry">
            <mxPoint x="-1650" y="2860" as="sourcePoint" />
            <mxPoint x="-1600" y="2810" as="targetPoint" />
          </mxGeometry>
        </mxCell>
        <mxCell id="8qORFBvdMXtc1hidTJIK-70" value="&lt;font color=&quot;#0d0d0d&quot;&gt;Сутки&lt;br&gt;&lt;/font&gt;" style="rounded=1;whiteSpace=wrap;html=1;arcSize=22;labelBackgroundColor=none;fillColor=#dae8fc;gradientColor=#7ea6e0;strokeColor=#6c8ebf;" vertex="1" parent="1">
          <mxGeometry x="-1890" y="2610" width="112.5" height="30" as="geometry" />
        </mxCell>
        <mxCell id="8qORFBvdMXtc1hidTJIK-71" value="&lt;font color=&quot;#0d0d0d&quot;&gt;Двое суток&lt;br&gt;&lt;/font&gt;" style="rounded=1;whiteSpace=wrap;html=1;arcSize=22;labelBackgroundColor=none;fillColor=#dae8fc;gradientColor=#7ea6e0;strokeColor=#6c8ebf;" vertex="1" parent="1">
          <mxGeometry x="-1887.5" y="2655" width="110" height="35" as="geometry" />
        </mxCell>
        <mxCell id="8qORFBvdMXtc1hidTJIK-78" value="&lt;font color=&quot;#0d0d0d&quot;&gt;Трое суток&lt;br&gt;&lt;/font&gt;" style="rounded=1;whiteSpace=wrap;html=1;arcSize=22;labelBackgroundColor=none;fillColor=#dae8fc;gradientColor=#7ea6e0;strokeColor=#6c8ebf;" vertex="1" parent="1">
          <mxGeometry x="-1887.5" y="2710" width="110" height="35" as="geometry" />
        </mxCell>
        <mxCell id="8qORFBvdMXtc1hidTJIK-79" value="&lt;font color=&quot;#0d0d0d&quot;&gt;Четверо суток&lt;br&gt;&lt;/font&gt;" style="rounded=1;whiteSpace=wrap;html=1;arcSize=22;labelBackgroundColor=none;fillColor=#dae8fc;gradientColor=#7ea6e0;strokeColor=#6c8ebf;" vertex="1" parent="1">
          <mxGeometry x="-1887.5" y="2768" width="110" height="35" as="geometry" />
        </mxCell>
        <mxCell id="8qORFBvdMXtc1hidTJIK-80" value="&lt;font color=&quot;#0d0d0d&quot;&gt;Пятеро суток&lt;br&gt;&lt;/font&gt;" style="rounded=1;whiteSpace=wrap;html=1;arcSize=22;labelBackgroundColor=none;fillColor=#dae8fc;gradientColor=#7ea6e0;strokeColor=#6c8ebf;" vertex="1" parent="1">
          <mxGeometry x="-1887.5" y="2830" width="110" height="35" as="geometry" />
        </mxCell>
        <mxCell id="8qORFBvdMXtc1hidTJIK-81" value="&lt;font color=&quot;#0d0d0d&quot;&gt;Шестеро суток суток&lt;br&gt;&lt;/font&gt;" style="rounded=1;whiteSpace=wrap;html=1;arcSize=22;labelBackgroundColor=none;fillColor=#dae8fc;gradientColor=#7ea6e0;strokeColor=#6c8ebf;" vertex="1" parent="1">
          <mxGeometry x="-1887.5" y="2890" width="110" height="35" as="geometry" />
        </mxCell>
        <mxCell id="8qORFBvdMXtc1hidTJIK-82" value="&lt;font color=&quot;#0d0d0d&quot;&gt;Семеро суток суток&lt;br&gt;&lt;/font&gt;" style="rounded=1;whiteSpace=wrap;html=1;arcSize=22;labelBackgroundColor=none;fillColor=#dae8fc;gradientColor=#7ea6e0;strokeColor=#6c8ebf;" vertex="1" parent="1">
          <mxGeometry x="-1888.75" y="2950" width="110" height="35" as="geometry" />
        </mxCell>
        <mxCell id="8qORFBvdMXtc1hidTJIK-83" value="" style="endArrow=classic;html=1;rounded=0;exitX=0;exitY=0.5;exitDx=0;exitDy=0;entryX=1;entryY=0.5;entryDx=0;entryDy=0;edgeStyle=orthogonalEdgeStyle;curved=1;" edge="1" parent="1" source="8qORFBvdMXtc1hidTJIK-63" target="8qORFBvdMXtc1hidTJIK-70">
          <mxGeometry width="50" height="50" relative="1" as="geometry">
            <mxPoint x="-1660" y="2850" as="sourcePoint" />
            <mxPoint x="-1610" y="2800" as="targetPoint" />
          </mxGeometry>
        </mxCell>
        <mxCell id="8qORFBvdMXtc1hidTJIK-84" value="" style="endArrow=classic;html=1;rounded=0;exitX=0;exitY=0.5;exitDx=0;exitDy=0;entryX=1;entryY=0.5;entryDx=0;entryDy=0;edgeStyle=orthogonalEdgeStyle;curved=1;" edge="1" parent="1" source="8qORFBvdMXtc1hidTJIK-63" target="8qORFBvdMXtc1hidTJIK-71">
          <mxGeometry width="50" height="50" relative="1" as="geometry">
            <mxPoint x="-1660" y="2830" as="sourcePoint" />
            <mxPoint x="-1610" y="2780" as="targetPoint" />
          </mxGeometry>
        </mxCell>
        <mxCell id="8qORFBvdMXtc1hidTJIK-85" value="" style="endArrow=classic;html=1;rounded=0;exitX=0;exitY=0.5;exitDx=0;exitDy=0;entryX=1;entryY=0.5;entryDx=0;entryDy=0;edgeStyle=orthogonalEdgeStyle;curved=1;" edge="1" parent="1" source="8qORFBvdMXtc1hidTJIK-63" target="8qORFBvdMXtc1hidTJIK-78">
          <mxGeometry width="50" height="50" relative="1" as="geometry">
            <mxPoint x="-1640" y="2830" as="sourcePoint" />
            <mxPoint x="-1590" y="2780" as="targetPoint" />
          </mxGeometry>
        </mxCell>
        <mxCell id="8qORFBvdMXtc1hidTJIK-86" value="" style="endArrow=classic;html=1;rounded=0;exitX=0;exitY=0.5;exitDx=0;exitDy=0;entryX=1;entryY=0.5;entryDx=0;entryDy=0;edgeStyle=orthogonalEdgeStyle;curved=1;" edge="1" parent="1" source="8qORFBvdMXtc1hidTJIK-63" target="8qORFBvdMXtc1hidTJIK-79">
          <mxGeometry width="50" height="50" relative="1" as="geometry">
            <mxPoint x="-1680" y="2830" as="sourcePoint" />
            <mxPoint x="-1630" y="2780" as="targetPoint" />
          </mxGeometry>
        </mxCell>
        <mxCell id="8qORFBvdMXtc1hidTJIK-87" value="" style="endArrow=classic;html=1;rounded=0;exitX=0;exitY=0.5;exitDx=0;exitDy=0;entryX=1;entryY=0.5;entryDx=0;entryDy=0;edgeStyle=orthogonalEdgeStyle;curved=1;" edge="1" parent="1" source="8qORFBvdMXtc1hidTJIK-63" target="8qORFBvdMXtc1hidTJIK-80">
          <mxGeometry width="50" height="50" relative="1" as="geometry">
            <mxPoint x="-1740" y="2870" as="sourcePoint" />
            <mxPoint x="-1690" y="2820" as="targetPoint" />
          </mxGeometry>
        </mxCell>
        <mxCell id="8qORFBvdMXtc1hidTJIK-88" value="" style="endArrow=classic;html=1;rounded=0;exitX=0;exitY=0.5;exitDx=0;exitDy=0;entryX=1;entryY=0.5;entryDx=0;entryDy=0;edgeStyle=orthogonalEdgeStyle;curved=1;" edge="1" parent="1" source="8qORFBvdMXtc1hidTJIK-63" target="8qORFBvdMXtc1hidTJIK-81">
          <mxGeometry width="50" height="50" relative="1" as="geometry">
            <mxPoint x="-1720" y="2880" as="sourcePoint" />
            <mxPoint x="-1670" y="2830" as="targetPoint" />
            <Array as="points">
              <mxPoint x="-1670" y="2720" />
              <mxPoint x="-1670" y="2908" />
            </Array>
          </mxGeometry>
        </mxCell>
        <mxCell id="8qORFBvdMXtc1hidTJIK-89" value="" style="endArrow=classic;html=1;rounded=0;exitX=0;exitY=0.5;exitDx=0;exitDy=0;entryX=1;entryY=0.5;entryDx=0;entryDy=0;edgeStyle=orthogonalEdgeStyle;curved=1;" edge="1" parent="1" source="8qORFBvdMXtc1hidTJIK-63" target="8qORFBvdMXtc1hidTJIK-82">
          <mxGeometry width="50" height="50" relative="1" as="geometry">
            <mxPoint x="-1690" y="2920" as="sourcePoint" />
            <mxPoint x="-1640" y="2870" as="targetPoint" />
            <Array as="points">
              <mxPoint x="-1660" y="2720" />
              <mxPoint x="-1660" y="2968" />
            </Array>
          </mxGeometry>
        </mxCell>
        <mxCell id="8qORFBvdMXtc1hidTJIK-90" value="" style="endArrow=classic;html=1;rounded=0;exitX=0;exitY=0.5;exitDx=0;exitDy=0;entryX=0.997;entryY=0.614;entryDx=0;entryDy=0;entryPerimeter=0;edgeStyle=orthogonalEdgeStyle;curved=1;" edge="1" parent="1" source="_SnUvuW7pjR6wicyARaL-57" target="_SnUvuW7pjR6wicyARaL-196">
          <mxGeometry width="50" height="50" relative="1" as="geometry">
            <mxPoint x="-310" y="2360" as="sourcePoint" />
            <mxPoint x="-260" y="2310" as="targetPoint" />
          </mxGeometry>
        </mxCell>
        <mxCell id="8qORFBvdMXtc1hidTJIK-91" value="&lt;font color=&quot;#0d0d0d&quot;&gt;Текст плейсхоодера выровнен по левому краю&lt;/font&gt;" style="rounded=1;whiteSpace=wrap;html=1;arcSize=22;labelBackgroundColor=none;fillColor=#dae8fc;gradientColor=#7ea6e0;strokeColor=#6c8ebf;" vertex="1" parent="1">
          <mxGeometry x="-1060" y="3020" width="180" height="40" as="geometry" />
        </mxCell>
        <mxCell id="8qORFBvdMXtc1hidTJIK-92" value="&lt;font color=&quot;#0d0d0d&quot;&gt;Цвет текста плейсхолдера серый&lt;/font&gt;" style="rounded=1;whiteSpace=wrap;html=1;arcSize=22;labelBackgroundColor=none;fillColor=#dae8fc;gradientColor=#7ea6e0;strokeColor=#6c8ebf;" vertex="1" parent="1">
          <mxGeometry x="-1060" y="3120" width="180" height="40" as="geometry" />
        </mxCell>
        <mxCell id="8qORFBvdMXtc1hidTJIK-93" value="" style="endArrow=classic;html=1;rounded=0;exitX=0;exitY=0.5;exitDx=0;exitDy=0;entryX=1;entryY=0.5;entryDx=0;entryDy=0;edgeStyle=orthogonalEdgeStyle;curved=1;" edge="1" parent="1" source="_SnUvuW7pjR6wicyARaL-198" target="8qORFBvdMXtc1hidTJIK-92">
          <mxGeometry width="50" height="50" relative="1" as="geometry">
            <mxPoint x="-790" y="3170" as="sourcePoint" />
            <mxPoint x="-740" y="3120" as="targetPoint" />
          </mxGeometry>
        </mxCell>
        <mxCell id="8qORFBvdMXtc1hidTJIK-94" value="" style="endArrow=classic;html=1;rounded=0;exitX=0;exitY=0.5;exitDx=0;exitDy=0;entryX=1;entryY=0.5;entryDx=0;entryDy=0;edgeStyle=orthogonalEdgeStyle;curved=1;" edge="1" parent="1" source="_SnUvuW7pjR6wicyARaL-198" target="8qORFBvdMXtc1hidTJIK-91">
          <mxGeometry width="50" height="50" relative="1" as="geometry">
            <mxPoint x="-770" y="3130" as="sourcePoint" />
            <mxPoint x="-720" y="3080" as="targetPoint" />
            <Array as="points">
              <mxPoint x="-820" y="3270" />
              <mxPoint x="-820" y="3040" />
            </Array>
          </mxGeometry>
        </mxCell>
        <mxCell id="8qORFBvdMXtc1hidTJIK-98" value="" style="endArrow=classic;html=1;rounded=0;exitX=0;exitY=0.5;exitDx=0;exitDy=0;entryX=1;entryY=0.5;entryDx=0;entryDy=0;edgeStyle=orthogonalEdgeStyle;curved=1;" edge="1" parent="1" source="_SnUvuW7pjR6wicyARaL-57" target="_SnUvuW7pjR6wicyARaL-198">
          <mxGeometry width="50" height="50" relative="1" as="geometry">
            <mxPoint x="-200" y="2310" as="sourcePoint" />
            <mxPoint x="-370" y="3120" as="targetPoint" />
          </mxGeometry>
        </mxCell>
        <mxCell id="8qORFBvdMXtc1hidTJIK-99" value="&lt;font color=&quot;#0d0d0d&quot;&gt;Текст плейсхоодера выровнен по левому краю&lt;/font&gt;" style="rounded=1;whiteSpace=wrap;html=1;arcSize=22;labelBackgroundColor=none;fillColor=#dae8fc;gradientColor=#7ea6e0;strokeColor=#6c8ebf;" vertex="1" parent="1">
          <mxGeometry x="-1135" y="3480" width="180" height="40" as="geometry" />
        </mxCell>
        <mxCell id="8qORFBvdMXtc1hidTJIK-100" value="&lt;font color=&quot;#0d0d0d&quot;&gt;Цвет текста плейсхолдера серый&lt;/font&gt;" style="rounded=1;whiteSpace=wrap;html=1;arcSize=22;labelBackgroundColor=none;fillColor=#dae8fc;gradientColor=#7ea6e0;strokeColor=#6c8ebf;" vertex="1" parent="1">
          <mxGeometry x="-1135" y="3560" width="180" height="40" as="geometry" />
        </mxCell>
        <mxCell id="8qORFBvdMXtc1hidTJIK-101" value="" style="endArrow=classic;html=1;rounded=0;exitX=0;exitY=0.5;exitDx=0;exitDy=0;entryX=1;entryY=0.5;entryDx=0;entryDy=0;edgeStyle=orthogonalEdgeStyle;curved=1;" edge="1" parent="1" source="_SnUvuW7pjR6wicyARaL-210" target="8qORFBvdMXtc1hidTJIK-100">
          <mxGeometry width="50" height="50" relative="1" as="geometry">
            <mxPoint x="-920" y="3740" as="sourcePoint" />
            <mxPoint x="-870" y="3690" as="targetPoint" />
          </mxGeometry>
        </mxCell>
        <mxCell id="8qORFBvdMXtc1hidTJIK-103" value="&lt;font color=&quot;#0d0d0d&quot;&gt;Цвет текста черный&lt;/font&gt;" style="rounded=1;whiteSpace=wrap;html=1;arcSize=22;labelBackgroundColor=none;fillColor=#dae8fc;gradientColor=#7ea6e0;strokeColor=#6c8ebf;" vertex="1" parent="1">
          <mxGeometry x="-1135" y="3630" width="180" height="40" as="geometry" />
        </mxCell>
        <mxCell id="8qORFBvdMXtc1hidTJIK-104" value="" style="endArrow=classic;html=1;rounded=0;exitX=0;exitY=0.5;exitDx=0;exitDy=0;entryX=1;entryY=0.5;entryDx=0;entryDy=0;edgeStyle=orthogonalEdgeStyle;curved=1;" edge="1" parent="1" source="_SnUvuW7pjR6wicyARaL-210" target="8qORFBvdMXtc1hidTJIK-103">
          <mxGeometry width="50" height="50" relative="1" as="geometry">
            <mxPoint x="-910" y="3680" as="sourcePoint" />
            <mxPoint x="-860" y="3630" as="targetPoint" />
          </mxGeometry>
        </mxCell>
        <mxCell id="8qORFBvdMXtc1hidTJIK-105" value="" style="endArrow=classic;html=1;rounded=0;entryX=1;entryY=0.5;entryDx=0;entryDy=0;exitX=0;exitY=0.5;exitDx=0;exitDy=0;edgeStyle=orthogonalEdgeStyle;curved=1;" edge="1" parent="1" source="_SnUvuW7pjR6wicyARaL-57" target="_SnUvuW7pjR6wicyARaL-210">
          <mxGeometry width="50" height="50" relative="1" as="geometry">
            <mxPoint x="-190" y="2470" as="sourcePoint" />
            <mxPoint x="-270" y="3460" as="targetPoint" />
            <Array as="points">
              <mxPoint x="-310" y="1960" />
              <mxPoint x="-310" y="3580" />
            </Array>
          </mxGeometry>
        </mxCell>
        <mxCell id="8qORFBvdMXtc1hidTJIK-106" value="" style="endArrow=classic;html=1;rounded=0;exitX=0;exitY=0.5;exitDx=0;exitDy=0;entryX=1;entryY=0.5;entryDx=0;entryDy=0;edgeStyle=orthogonalEdgeStyle;curved=1;" edge="1" parent="1" source="_SnUvuW7pjR6wicyARaL-212" target="8qORFBvdMXtc1hidTJIK-107">
          <mxGeometry width="50" height="50" relative="1" as="geometry">
            <mxPoint x="-765" y="3792.5" as="sourcePoint" />
            <mxPoint x="-715" y="3742.5" as="targetPoint" />
          </mxGeometry>
        </mxCell>
        <mxCell id="8qORFBvdMXtc1hidTJIK-107" value="&lt;font color=&quot;#0d0d0d&quot;&gt;Цвет текста черный&lt;/font&gt;" style="rounded=1;whiteSpace=wrap;html=1;arcSize=22;labelBackgroundColor=none;fillColor=#dae8fc;gradientColor=#7ea6e0;strokeColor=#6c8ebf;" vertex="1" parent="1">
          <mxGeometry x="-1060" y="3770" width="180" height="40" as="geometry" />
        </mxCell>
        <mxCell id="8qORFBvdMXtc1hidTJIK-108" value="&lt;font color=&quot;#0d0d0d&quot;&gt;Расположено под полем формы&lt;/font&gt;" style="rounded=1;whiteSpace=wrap;html=1;arcSize=22;labelBackgroundColor=none;fillColor=#dae8fc;gradientColor=#7ea6e0;strokeColor=#6c8ebf;" vertex="1" parent="1">
          <mxGeometry x="-1060" y="3910" width="180" height="40" as="geometry" />
        </mxCell>
        <mxCell id="8qORFBvdMXtc1hidTJIK-109" value="&lt;font color=&quot;#0d0d0d&quot;&gt;Фон кнопки белый&lt;/font&gt;" style="rounded=1;whiteSpace=wrap;html=1;arcSize=22;labelBackgroundColor=none;fillColor=#dae8fc;gradientColor=#7ea6e0;strokeColor=#6c8ebf;" vertex="1" parent="1">
          <mxGeometry x="-1060" y="3840" width="180" height="40" as="geometry" />
        </mxCell>
        <mxCell id="8qORFBvdMXtc1hidTJIK-110" value="" style="endArrow=classic;html=1;rounded=0;exitX=0;exitY=0.5;exitDx=0;exitDy=0;entryX=1;entryY=0.5;entryDx=0;entryDy=0;edgeStyle=orthogonalEdgeStyle;curved=1;" edge="1" parent="1" source="_SnUvuW7pjR6wicyARaL-212" target="8qORFBvdMXtc1hidTJIK-109">
          <mxGeometry width="50" height="50" relative="1" as="geometry">
            <mxPoint x="-810" y="3940" as="sourcePoint" />
            <mxPoint x="-730" y="3990" as="targetPoint" />
          </mxGeometry>
        </mxCell>
        <mxCell id="8qORFBvdMXtc1hidTJIK-111" value="&lt;font color=&quot;#0d0d0d&quot;&gt;При наведении фокуса фон меняется на серый&lt;/font&gt;" style="rounded=1;whiteSpace=wrap;html=1;arcSize=22;labelBackgroundColor=none;fillColor=#dae8fc;gradientColor=#7ea6e0;strokeColor=#6c8ebf;" vertex="1" parent="1">
          <mxGeometry x="-1060" y="3980" width="180" height="40" as="geometry" />
        </mxCell>
        <mxCell id="8qORFBvdMXtc1hidTJIK-112" value="" style="endArrow=classic;html=1;rounded=0;exitX=0;exitY=0.5;exitDx=0;exitDy=0;entryX=1;entryY=0.5;entryDx=0;entryDy=0;edgeStyle=orthogonalEdgeStyle;curved=1;" edge="1" parent="1" source="_SnUvuW7pjR6wicyARaL-212" target="8qORFBvdMXtc1hidTJIK-108">
          <mxGeometry width="50" height="50" relative="1" as="geometry">
            <mxPoint x="-800" y="4020" as="sourcePoint" />
            <mxPoint x="-750" y="3970" as="targetPoint" />
          </mxGeometry>
        </mxCell>
        <mxCell id="8qORFBvdMXtc1hidTJIK-113" value="" style="endArrow=classic;html=1;rounded=0;exitX=0;exitY=0.5;exitDx=0;exitDy=0;entryX=1;entryY=0.5;entryDx=0;entryDy=0;edgeStyle=orthogonalEdgeStyle;curved=1;" edge="1" parent="1" source="_SnUvuW7pjR6wicyARaL-212" target="8qORFBvdMXtc1hidTJIK-111">
          <mxGeometry width="50" height="50" relative="1" as="geometry">
            <mxPoint x="-830" y="4010" as="sourcePoint" />
            <mxPoint x="-780" y="3960" as="targetPoint" />
          </mxGeometry>
        </mxCell>
        <mxCell id="8qORFBvdMXtc1hidTJIK-115" value="" style="endArrow=classic;html=1;rounded=0;entryX=1;entryY=0.5;entryDx=0;entryDy=0;exitX=0;exitY=0.5;exitDx=0;exitDy=0;edgeStyle=orthogonalEdgeStyle;curved=1;" edge="1" parent="1" source="_SnUvuW7pjR6wicyARaL-57" target="_SnUvuW7pjR6wicyARaL-212">
          <mxGeometry width="50" height="50" relative="1" as="geometry">
            <mxPoint x="-50" y="2660" as="sourcePoint" />
            <mxPoint x="-300" y="3880" as="targetPoint" />
            <Array as="points">
              <mxPoint x="-270" y="1960" />
              <mxPoint x="-270" y="3891" />
            </Array>
          </mxGeometry>
        </mxCell>
        <mxCell id="8qORFBvdMXtc1hidTJIK-116" value="&lt;font color=&quot;#0d0d0d&quot;&gt;Цвет фона черный&lt;br&gt;&lt;/font&gt;" style="rounded=1;whiteSpace=wrap;html=1;arcSize=22;labelBackgroundColor=none;fillColor=#dae8fc;gradientColor=#7ea6e0;strokeColor=#6c8ebf;" vertex="1" parent="1">
          <mxGeometry x="-1070" y="4263" width="170" height="40" as="geometry" />
        </mxCell>
        <mxCell id="8qORFBvdMXtc1hidTJIK-117" style="edgeStyle=orthogonalEdgeStyle;rounded=0;orthogonalLoop=1;jettySize=auto;html=1;exitX=0.5;exitY=1;exitDx=0;exitDy=0;" edge="1" parent="1" source="8qORFBvdMXtc1hidTJIK-116" target="8qORFBvdMXtc1hidTJIK-116">
          <mxGeometry relative="1" as="geometry" />
        </mxCell>
        <mxCell id="8qORFBvdMXtc1hidTJIK-118" value="" style="endArrow=classic;html=1;rounded=0;exitX=0;exitY=0.5;exitDx=0;exitDy=0;entryX=1;entryY=0.5;entryDx=0;entryDy=0;edgeStyle=orthogonalEdgeStyle;curved=1;" edge="1" parent="1" source="_SnUvuW7pjR6wicyARaL-213" target="8qORFBvdMXtc1hidTJIK-116">
          <mxGeometry width="50" height="50" relative="1" as="geometry">
            <mxPoint x="-1080" y="4520" as="sourcePoint" />
            <mxPoint x="-1030" y="4470" as="targetPoint" />
          </mxGeometry>
        </mxCell>
        <mxCell id="8qORFBvdMXtc1hidTJIK-119" value="&lt;font color=&quot;#0d0d0d&quot;&gt;При наведении фокуса фон меняется на серый&lt;/font&gt;" style="rounded=1;whiteSpace=wrap;html=1;arcSize=22;labelBackgroundColor=none;fillColor=#dae8fc;gradientColor=#7ea6e0;strokeColor=#6c8ebf;" vertex="1" parent="1">
          <mxGeometry x="-1070" y="4351" width="170" height="40" as="geometry" />
        </mxCell>
        <mxCell id="8qORFBvdMXtc1hidTJIK-120" value="" style="endArrow=classic;html=1;rounded=0;exitX=0;exitY=0.5;exitDx=0;exitDy=0;entryX=1;entryY=0.5;entryDx=0;entryDy=0;edgeStyle=orthogonalEdgeStyle;curved=1;" edge="1" parent="1" source="_SnUvuW7pjR6wicyARaL-213" target="8qORFBvdMXtc1hidTJIK-119">
          <mxGeometry width="50" height="50" relative="1" as="geometry">
            <mxPoint x="-950" y="4480" as="sourcePoint" />
            <mxPoint x="-900" y="4430" as="targetPoint" />
          </mxGeometry>
        </mxCell>
        <mxCell id="8qORFBvdMXtc1hidTJIK-121" value="&lt;font color=&quot;#0d0d0d&quot;&gt;Окно &quot;Заказ оформлен&quot;&lt;/font&gt;" style="rounded=1;whiteSpace=wrap;html=1;arcSize=22;labelBackgroundColor=none;fillColor=#dae8fc;gradientColor=#7ea6e0;strokeColor=#6c8ebf;" vertex="1" parent="1">
          <mxGeometry x="-1076.25" y="4500" width="177.5" height="60" as="geometry" />
        </mxCell>
        <mxCell id="8qORFBvdMXtc1hidTJIK-122" value="" style="endArrow=classic;html=1;rounded=0;entryX=1;entryY=0.5;entryDx=0;entryDy=0;exitX=0;exitY=0.5;exitDx=0;exitDy=0;edgeStyle=orthogonalEdgeStyle;curved=1;" edge="1" parent="1" source="_SnUvuW7pjR6wicyARaL-213" target="8qORFBvdMXtc1hidTJIK-121">
          <mxGeometry width="50" height="50" relative="1" as="geometry">
            <mxPoint x="-850" y="4500" as="sourcePoint" />
            <mxPoint x="-800" y="4450" as="targetPoint" />
          </mxGeometry>
        </mxCell>
        <mxCell id="8qORFBvdMXtc1hidTJIK-123" value="" style="endArrow=classic;html=1;rounded=0;exitX=0;exitY=0.5;exitDx=0;exitDy=0;entryX=1;entryY=0.5;entryDx=0;entryDy=0;edgeStyle=orthogonalEdgeStyle;curved=1;" edge="1" parent="1" source="8qORFBvdMXtc1hidTJIK-121" target="8qORFBvdMXtc1hidTJIK-124">
          <mxGeometry width="50" height="50" relative="1" as="geometry">
            <mxPoint x="-1040" y="4660" as="sourcePoint" />
            <mxPoint x="-990" y="4610" as="targetPoint" />
          </mxGeometry>
        </mxCell>
        <mxCell id="8qORFBvdMXtc1hidTJIK-124" value="&lt;font color=&quot;#0d0d0d&quot;&gt;Цвет текста черный&lt;br&gt;&lt;/font&gt;" style="rounded=1;whiteSpace=wrap;html=1;arcSize=22;labelBackgroundColor=none;fillColor=#dae8fc;gradientColor=#7ea6e0;strokeColor=#6c8ebf;" vertex="1" parent="1">
          <mxGeometry x="-1360" y="4360" width="180" height="40" as="geometry" />
        </mxCell>
        <mxCell id="8qORFBvdMXtc1hidTJIK-125" value="&lt;font color=&quot;#0d0d0d&quot;&gt;Цвет фона белый&lt;br&gt;&lt;/font&gt;" style="rounded=1;whiteSpace=wrap;html=1;arcSize=22;labelBackgroundColor=none;fillColor=#dae8fc;gradientColor=#7ea6e0;strokeColor=#6c8ebf;" vertex="1" parent="1">
          <mxGeometry x="-1355" y="4442" width="170" height="40" as="geometry" />
        </mxCell>
        <mxCell id="8qORFBvdMXtc1hidTJIK-126" style="edgeStyle=orthogonalEdgeStyle;rounded=0;orthogonalLoop=1;jettySize=auto;html=1;exitX=0.5;exitY=1;exitDx=0;exitDy=0;" edge="1" parent="1" source="8qORFBvdMXtc1hidTJIK-125" target="8qORFBvdMXtc1hidTJIK-125">
          <mxGeometry relative="1" as="geometry" />
        </mxCell>
        <mxCell id="8qORFBvdMXtc1hidTJIK-127" value="" style="endArrow=classic;html=1;rounded=0;exitX=0;exitY=0.5;exitDx=0;exitDy=0;entryX=1;entryY=0.5;entryDx=0;entryDy=0;edgeStyle=orthogonalEdgeStyle;curved=1;" edge="1" parent="1" source="8qORFBvdMXtc1hidTJIK-121" target="8qORFBvdMXtc1hidTJIK-125">
          <mxGeometry width="50" height="50" relative="1" as="geometry">
            <mxPoint x="-1180" y="4690" as="sourcePoint" />
            <mxPoint x="-1130" y="4640" as="targetPoint" />
          </mxGeometry>
        </mxCell>
        <mxCell id="8qORFBvdMXtc1hidTJIK-128" value="" style="endArrow=classic;html=1;rounded=0;entryX=1;entryY=0.5;entryDx=0;entryDy=0;exitX=0;exitY=0.5;exitDx=0;exitDy=0;edgeStyle=orthogonalEdgeStyle;curved=1;" edge="1" parent="1" source="_SnUvuW7pjR6wicyARaL-57" target="_SnUvuW7pjR6wicyARaL-213">
          <mxGeometry width="50" height="50" relative="1" as="geometry">
            <mxPoint x="-140" y="2290" as="sourcePoint" />
            <mxPoint x="-460" y="4240" as="targetPoint" />
            <Array as="points">
              <mxPoint x="-260" y="1960" />
              <mxPoint x="-260" y="4322" />
            </Array>
          </mxGeometry>
        </mxCell>
        <mxCell id="8qORFBvdMXtc1hidTJIK-129" value="&lt;font color=&quot;#0d0d0d&quot;&gt;Текст выравнен по середине&lt;br&gt;&lt;/font&gt;" style="rounded=1;whiteSpace=wrap;html=1;arcSize=22;labelBackgroundColor=none;fillColor=#dae8fc;gradientColor=#7ea6e0;strokeColor=#6c8ebf;" vertex="1" parent="1">
          <mxGeometry x="-1360" y="4510" width="170" height="40" as="geometry" />
        </mxCell>
        <mxCell id="8qORFBvdMXtc1hidTJIK-130" value="" style="endArrow=classic;html=1;rounded=0;exitX=0;exitY=0.5;exitDx=0;exitDy=0;entryX=1;entryY=0.5;entryDx=0;entryDy=0;edgeStyle=orthogonalEdgeStyle;curved=1;" edge="1" parent="1" source="8qORFBvdMXtc1hidTJIK-121" target="8qORFBvdMXtc1hidTJIK-129">
          <mxGeometry width="50" height="50" relative="1" as="geometry">
            <mxPoint x="-1140" y="4650" as="sourcePoint" />
            <mxPoint x="-1090" y="4600" as="targetPoint" />
          </mxGeometry>
        </mxCell>
        <mxCell id="8qORFBvdMXtc1hidTJIK-131" value="&lt;font color=&quot;#0d0d0d&quot;&gt;Текст &quot;Номер заказа NNNNNN. Запишите его: &lt;br&gt;пригодится, чтоб отслежевать статус&amp;nbsp;&lt;br&gt;&lt;/font&gt;" style="rounded=1;whiteSpace=wrap;html=1;arcSize=22;labelBackgroundColor=none;fillColor=#dae8fc;gradientColor=#7ea6e0;strokeColor=#6c8ebf;" vertex="1" parent="1">
          <mxGeometry x="-1450" y="4790" width="260" height="104" as="geometry" />
        </mxCell>
        <mxCell id="8qORFBvdMXtc1hidTJIK-132" value="" style="endArrow=classic;html=1;rounded=0;exitX=0;exitY=0.5;exitDx=0;exitDy=0;entryX=1;entryY=0.615;entryDx=0;entryDy=0;entryPerimeter=0;edgeStyle=orthogonalEdgeStyle;curved=1;" edge="1" parent="1" source="8qORFBvdMXtc1hidTJIK-121" target="8qORFBvdMXtc1hidTJIK-131">
          <mxGeometry width="50" height="50" relative="1" as="geometry">
            <mxPoint x="-1010" y="4760" as="sourcePoint" />
            <mxPoint x="-960" y="4710" as="targetPoint" />
          </mxGeometry>
        </mxCell>
        <mxCell id="8qORFBvdMXtc1hidTJIK-133" value="&lt;font color=&quot;#0d0d0d&quot;&gt;Заголовок &quot;Заказ оформлен&quot;&lt;/font&gt;" style="rounded=1;whiteSpace=wrap;html=1;arcSize=22;labelBackgroundColor=none;fillColor=#dae8fc;gradientColor=#7ea6e0;strokeColor=#6c8ebf;" vertex="1" parent="1">
          <mxGeometry x="-1380" y="4600" width="177.5" height="60" as="geometry" />
        </mxCell>
        <mxCell id="8qORFBvdMXtc1hidTJIK-134" value="" style="endArrow=classic;html=1;rounded=0;exitX=0;exitY=0.5;exitDx=0;exitDy=0;entryX=1;entryY=0.5;entryDx=0;entryDy=0;edgeStyle=orthogonalEdgeStyle;curved=1;" edge="1" parent="1" source="8qORFBvdMXtc1hidTJIK-121" target="8qORFBvdMXtc1hidTJIK-133">
          <mxGeometry width="50" height="50" relative="1" as="geometry">
            <mxPoint x="-1100" y="4770" as="sourcePoint" />
            <mxPoint x="-1050" y="4720" as="targetPoint" />
          </mxGeometry>
        </mxCell>
        <mxCell id="8qORFBvdMXtc1hidTJIK-135" value="&lt;font color=&quot;#0d0d0d&quot;&gt;Текст выравнен по середине&lt;br&gt;&lt;/font&gt;" style="rounded=1;whiteSpace=wrap;html=1;arcSize=22;labelBackgroundColor=none;fillColor=#dae8fc;gradientColor=#7ea6e0;strokeColor=#6c8ebf;" vertex="1" parent="1">
          <mxGeometry x="-1620" y="4560" width="170" height="40" as="geometry" />
        </mxCell>
        <mxCell id="8qORFBvdMXtc1hidTJIK-136" value="Цвет текста черный&lt;font color=&quot;#0d0d0d&quot;&gt;&lt;br&gt;&lt;/font&gt;" style="rounded=1;whiteSpace=wrap;html=1;arcSize=22;labelBackgroundColor=none;fillColor=#dae8fc;gradientColor=#7ea6e0;strokeColor=#6c8ebf;" vertex="1" parent="1">
          <mxGeometry x="-1620" y="4636" width="170" height="40" as="geometry" />
        </mxCell>
        <mxCell id="8qORFBvdMXtc1hidTJIK-137" value="" style="endArrow=classic;html=1;rounded=0;exitX=0;exitY=0.5;exitDx=0;exitDy=0;entryX=1;entryY=0.5;entryDx=0;entryDy=0;edgeStyle=orthogonalEdgeStyle;curved=1;" edge="1" parent="1" source="8qORFBvdMXtc1hidTJIK-133" target="8qORFBvdMXtc1hidTJIK-135">
          <mxGeometry width="50" height="50" relative="1" as="geometry">
            <mxPoint x="-1460" y="4570" as="sourcePoint" />
            <mxPoint x="-1410" y="4520" as="targetPoint" />
          </mxGeometry>
        </mxCell>
        <mxCell id="8qORFBvdMXtc1hidTJIK-138" value="" style="endArrow=classic;html=1;rounded=0;exitX=0;exitY=0.5;exitDx=0;exitDy=0;entryX=1;entryY=0.5;entryDx=0;entryDy=0;edgeStyle=orthogonalEdgeStyle;curved=1;" edge="1" parent="1" source="8qORFBvdMXtc1hidTJIK-133" target="8qORFBvdMXtc1hidTJIK-136">
          <mxGeometry width="50" height="50" relative="1" as="geometry">
            <mxPoint x="-1500" y="4740" as="sourcePoint" />
            <mxPoint x="-1450" y="4690" as="targetPoint" />
          </mxGeometry>
        </mxCell>
        <mxCell id="8qORFBvdMXtc1hidTJIK-139" value="&lt;font color=&quot;#0d0d0d&quot;&gt;Текст выравнен по середине&lt;br&gt;&lt;/font&gt;" style="rounded=1;whiteSpace=wrap;html=1;arcSize=22;labelBackgroundColor=none;fillColor=#dae8fc;gradientColor=#7ea6e0;strokeColor=#6c8ebf;" vertex="1" parent="1">
          <mxGeometry x="-1700" y="4790" width="170" height="40" as="geometry" />
        </mxCell>
        <mxCell id="8qORFBvdMXtc1hidTJIK-140" value="Цвет текста черный&lt;font color=&quot;#0d0d0d&quot;&gt;&lt;br&gt;&lt;/font&gt;" style="rounded=1;whiteSpace=wrap;html=1;arcSize=22;labelBackgroundColor=none;fillColor=#dae8fc;gradientColor=#7ea6e0;strokeColor=#6c8ebf;" vertex="1" parent="1">
          <mxGeometry x="-1700" y="4866" width="170" height="40" as="geometry" />
        </mxCell>
        <mxCell id="8qORFBvdMXtc1hidTJIK-141" value="" style="endArrow=classic;html=1;rounded=0;exitX=0;exitY=0.5;exitDx=0;exitDy=0;entryX=1;entryY=0.5;entryDx=0;entryDy=0;edgeStyle=orthogonalEdgeStyle;curved=1;" edge="1" parent="1" source="8qORFBvdMXtc1hidTJIK-131" target="8qORFBvdMXtc1hidTJIK-139">
          <mxGeometry width="50" height="50" relative="1" as="geometry">
            <mxPoint x="-1580" y="4990" as="sourcePoint" />
            <mxPoint x="-1530" y="4940" as="targetPoint" />
          </mxGeometry>
        </mxCell>
        <mxCell id="8qORFBvdMXtc1hidTJIK-142" value="" style="endArrow=classic;html=1;rounded=0;exitX=0;exitY=0.5;exitDx=0;exitDy=0;entryX=1;entryY=0.5;entryDx=0;entryDy=0;edgeStyle=orthogonalEdgeStyle;curved=1;" edge="1" parent="1" source="8qORFBvdMXtc1hidTJIK-131" target="8qORFBvdMXtc1hidTJIK-140">
          <mxGeometry width="50" height="50" relative="1" as="geometry">
            <mxPoint x="-1530" y="4980" as="sourcePoint" />
            <mxPoint x="-1480" y="4930" as="targetPoint" />
          </mxGeometry>
        </mxCell>
        <mxCell id="8qORFBvdMXtc1hidTJIK-143" value="Кнопка &quot;Посмотреть статус&quot;&lt;font color=&quot;#0d0d0d&quot;&gt;&lt;br&gt;&lt;/font&gt;" style="rounded=1;whiteSpace=wrap;html=1;arcSize=22;labelBackgroundColor=none;fillColor=#dae8fc;gradientColor=#7ea6e0;strokeColor=#6c8ebf;" vertex="1" parent="1">
          <mxGeometry x="-1340" y="5110" width="170" height="40" as="geometry" />
        </mxCell>
        <mxCell id="8qORFBvdMXtc1hidTJIK-144" value="" style="endArrow=classic;html=1;rounded=0;exitX=0;exitY=0.5;exitDx=0;exitDy=0;entryX=1;entryY=0.5;entryDx=0;entryDy=0;edgeStyle=orthogonalEdgeStyle;curved=1;" edge="1" parent="1" source="8qORFBvdMXtc1hidTJIK-121" target="8qORFBvdMXtc1hidTJIK-143">
          <mxGeometry width="50" height="50" relative="1" as="geometry">
            <mxPoint x="-1210" y="5010" as="sourcePoint" />
            <mxPoint x="-1160" y="4960" as="targetPoint" />
            <Array as="points">
              <mxPoint x="-1100" y="4530" />
              <mxPoint x="-1100" y="5130" />
            </Array>
          </mxGeometry>
        </mxCell>
        <mxCell id="8qORFBvdMXtc1hidTJIK-146" value="&lt;font color=&quot;#0d0d0d&quot;&gt;Цвет текста черный&lt;br&gt;&lt;/font&gt;" style="rounded=1;whiteSpace=wrap;html=1;arcSize=22;labelBackgroundColor=none;fillColor=#dae8fc;gradientColor=#7ea6e0;strokeColor=#6c8ebf;" vertex="1" parent="1">
          <mxGeometry x="-1600" y="5080" width="180" height="40" as="geometry" />
        </mxCell>
        <mxCell id="8qORFBvdMXtc1hidTJIK-147" value="&lt;font color=&quot;#0d0d0d&quot;&gt;Цвет фона белый&lt;br&gt;&lt;/font&gt;" style="rounded=1;whiteSpace=wrap;html=1;arcSize=22;labelBackgroundColor=none;fillColor=#dae8fc;gradientColor=#7ea6e0;strokeColor=#6c8ebf;" vertex="1" parent="1">
          <mxGeometry x="-1595" y="5162" width="170" height="40" as="geometry" />
        </mxCell>
        <mxCell id="8qORFBvdMXtc1hidTJIK-148" style="edgeStyle=orthogonalEdgeStyle;rounded=0;orthogonalLoop=1;jettySize=auto;html=1;exitX=0.5;exitY=1;exitDx=0;exitDy=0;" edge="1" parent="1" source="8qORFBvdMXtc1hidTJIK-147" target="8qORFBvdMXtc1hidTJIK-147">
          <mxGeometry relative="1" as="geometry" />
        </mxCell>
        <mxCell id="8qORFBvdMXtc1hidTJIK-150" value="" style="endArrow=classic;html=1;rounded=0;exitX=0;exitY=0.5;exitDx=0;exitDy=0;entryX=1;entryY=0.5;entryDx=0;entryDy=0;edgeStyle=orthogonalEdgeStyle;curved=1;" edge="1" parent="1" source="8qORFBvdMXtc1hidTJIK-143" target="8qORFBvdMXtc1hidTJIK-146">
          <mxGeometry width="50" height="50" relative="1" as="geometry">
            <mxPoint x="-1360" y="5100" as="sourcePoint" />
            <mxPoint x="-1310" y="5050" as="targetPoint" />
          </mxGeometry>
        </mxCell>
        <mxCell id="8qORFBvdMXtc1hidTJIK-151" value="" style="endArrow=classic;html=1;rounded=0;exitX=0;exitY=0.5;exitDx=0;exitDy=0;entryX=1;entryY=0.5;entryDx=0;entryDy=0;edgeStyle=orthogonalEdgeStyle;curved=1;" edge="1" parent="1" source="8qORFBvdMXtc1hidTJIK-143" target="8qORFBvdMXtc1hidTJIK-147">
          <mxGeometry width="50" height="50" relative="1" as="geometry">
            <mxPoint x="-1380" y="5220" as="sourcePoint" />
            <mxPoint x="-1330" y="5170" as="targetPoint" />
          </mxGeometry>
        </mxCell>
        <mxCell id="8qORFBvdMXtc1hidTJIK-152" value="&lt;font color=&quot;#0d0d0d&quot;&gt;При наведении фокуса фон меняется на серый&lt;/font&gt;" style="rounded=1;whiteSpace=wrap;html=1;arcSize=22;labelBackgroundColor=none;fillColor=#dae8fc;gradientColor=#7ea6e0;strokeColor=#6c8ebf;" vertex="1" parent="1">
          <mxGeometry x="-1590" y="5240.5" width="170" height="40" as="geometry" />
        </mxCell>
        <mxCell id="8qORFBvdMXtc1hidTJIK-153" value="" style="endArrow=classic;html=1;rounded=0;exitX=0;exitY=0.5;exitDx=0;exitDy=0;entryX=1;entryY=0.5;entryDx=0;entryDy=0;edgeStyle=orthogonalEdgeStyle;curved=1;" edge="1" parent="1" source="8qORFBvdMXtc1hidTJIK-143" target="8qORFBvdMXtc1hidTJIK-152">
          <mxGeometry width="50" height="50" relative="1" as="geometry">
            <mxPoint x="-1300" y="5310" as="sourcePoint" />
            <mxPoint x="-1250" y="5260" as="targetPoint" />
          </mxGeometry>
        </mxCell>
        <mxCell id="8qORFBvdMXtc1hidTJIK-154" value="&lt;font color=&quot;#0d0d0d&quot;&gt;Цвет текста жирный черный&lt;/font&gt;" style="rounded=1;whiteSpace=wrap;html=1;arcSize=22;labelBackgroundColor=none;fillColor=#dae8fc;gradientColor=#7ea6e0;strokeColor=#6c8ebf;" vertex="1" parent="1">
          <mxGeometry x="-885" y="-590" width="120" height="40" as="geometry" />
        </mxCell>
        <mxCell id="8qORFBvdMXtc1hidTJIK-155" value="&lt;font color=&quot;#0d0d0d&quot;&gt;Цвет текста черный&lt;/font&gt;" style="rounded=1;whiteSpace=wrap;html=1;arcSize=22;labelBackgroundColor=none;fillColor=#dae8fc;gradientColor=#7ea6e0;strokeColor=#6c8ebf;" vertex="1" parent="1">
          <mxGeometry x="-870" y="-490" width="100" height="40" as="geometry" />
        </mxCell>
        <mxCell id="8qORFBvdMXtc1hidTJIK-156" value="" style="endArrow=classic;html=1;rounded=0;exitX=0;exitY=0.5;exitDx=0;exitDy=0;entryX=1;entryY=0.5;entryDx=0;entryDy=0;edgeStyle=orthogonalEdgeStyle;elbow=vertical;curved=1;" edge="1" parent="1" source="_SnUvuW7pjR6wicyARaL-26" target="8qORFBvdMXtc1hidTJIK-154">
          <mxGeometry width="50" height="50" relative="1" as="geometry">
            <mxPoint x="-920" y="-660" as="sourcePoint" />
            <mxPoint x="-740" y="-570" as="targetPoint" />
          </mxGeometry>
        </mxCell>
        <mxCell id="8qORFBvdMXtc1hidTJIK-157" value="" style="endArrow=classic;html=1;rounded=0;exitX=0;exitY=0.5;exitDx=0;exitDy=0;entryX=1;entryY=0.5;entryDx=0;entryDy=0;edgeStyle=orthogonalEdgeStyle;curved=1;" edge="1" parent="1" source="_SnUvuW7pjR6wicyARaL-25" target="8qORFBvdMXtc1hidTJIK-155">
          <mxGeometry width="50" height="50" relative="1" as="geometry">
            <mxPoint x="-970" y="-490" as="sourcePoint" />
            <mxPoint x="-920" y="-540" as="targetPoint" />
          </mxGeometry>
        </mxCell>
        <mxCell id="8qORFBvdMXtc1hidTJIK-158" value="&lt;font color=&quot;#0d0d0d&quot;&gt;Цвет текста черный&lt;/font&gt;" style="rounded=1;whiteSpace=wrap;html=1;arcSize=22;labelBackgroundColor=none;fillColor=#dae8fc;gradientColor=#7ea6e0;strokeColor=#6c8ebf;" vertex="1" parent="1">
          <mxGeometry x="-690" y="-390" width="100" height="40" as="geometry" />
        </mxCell>
        <mxCell id="8qORFBvdMXtc1hidTJIK-159" value="" style="endArrow=classic;html=1;rounded=0;exitX=0;exitY=0.5;exitDx=0;exitDy=0;entryX=1;entryY=0.5;entryDx=0;entryDy=0;edgeStyle=orthogonalEdgeStyle;curved=1;" edge="1" parent="1" source="_SnUvuW7pjR6wicyARaL-19" target="8qORFBvdMXtc1hidTJIK-158">
          <mxGeometry width="50" height="50" relative="1" as="geometry">
            <mxPoint x="-550" y="-410" as="sourcePoint" />
            <mxPoint x="-500" y="-460" as="targetPoint" />
          </mxGeometry>
        </mxCell>
        <mxCell id="8qORFBvdMXtc1hidTJIK-160" value="&lt;font color=&quot;#0d0d0d&quot;&gt;Цвет текста белый&lt;/font&gt;" style="rounded=1;whiteSpace=wrap;html=1;arcSize=22;labelBackgroundColor=none;fillColor=#dae8fc;gradientColor=#7ea6e0;strokeColor=#6c8ebf;" vertex="1" parent="1">
          <mxGeometry x="-890" y="-1390" width="130" height="40" as="geometry" />
        </mxCell>
        <mxCell id="8qORFBvdMXtc1hidTJIK-161" value="&lt;font color=&quot;#0d0d0d&quot;&gt;Фон кнопки черный&lt;/font&gt;" style="rounded=1;whiteSpace=wrap;html=1;arcSize=22;labelBackgroundColor=none;fillColor=#dae8fc;gradientColor=#7ea6e0;strokeColor=#6c8ebf;" vertex="1" parent="1">
          <mxGeometry x="-890" y="-1310" width="130" height="40" as="geometry" />
        </mxCell>
        <mxCell id="8qORFBvdMXtc1hidTJIK-162" value="&lt;font color=&quot;#0d0d0d&quot;&gt;Выравнена по правому краю&lt;/font&gt;" style="rounded=1;whiteSpace=wrap;html=1;arcSize=22;labelBackgroundColor=none;fillColor=#dae8fc;gradientColor=#7ea6e0;strokeColor=#6c8ebf;" vertex="1" parent="1">
          <mxGeometry x="-885" y="-1220" width="130" height="40" as="geometry" />
        </mxCell>
        <mxCell id="8qORFBvdMXtc1hidTJIK-163" value="" style="endArrow=classic;html=1;rounded=0;exitX=0;exitY=0.5;exitDx=0;exitDy=0;entryX=1;entryY=0.5;entryDx=0;entryDy=0;edgeStyle=orthogonalEdgeStyle;curved=1;" edge="1" parent="1" source="_SnUvuW7pjR6wicyARaL-13" target="8qORFBvdMXtc1hidTJIK-160">
          <mxGeometry width="50" height="50" relative="1" as="geometry">
            <mxPoint x="-680" y="-1380" as="sourcePoint" />
            <mxPoint x="-630" y="-1430" as="targetPoint" />
          </mxGeometry>
        </mxCell>
        <mxCell id="8qORFBvdMXtc1hidTJIK-164" value="" style="endArrow=classic;html=1;rounded=0;exitX=0;exitY=0.5;exitDx=0;exitDy=0;entryX=1;entryY=0.5;entryDx=0;entryDy=0;edgeStyle=orthogonalEdgeStyle;curved=1;" edge="1" parent="1" source="_SnUvuW7pjR6wicyARaL-13" target="8qORFBvdMXtc1hidTJIK-161">
          <mxGeometry width="50" height="50" relative="1" as="geometry">
            <mxPoint x="-720" y="-1210" as="sourcePoint" />
            <mxPoint x="-670" y="-1260" as="targetPoint" />
          </mxGeometry>
        </mxCell>
        <mxCell id="8qORFBvdMXtc1hidTJIK-165" value="" style="endArrow=classic;html=1;rounded=0;exitX=0;exitY=0.5;exitDx=0;exitDy=0;entryX=1;entryY=0.5;entryDx=0;entryDy=0;edgeStyle=orthogonalEdgeStyle;curved=1;" edge="1" parent="1" source="_SnUvuW7pjR6wicyARaL-13" target="8qORFBvdMXtc1hidTJIK-162">
          <mxGeometry width="50" height="50" relative="1" as="geometry">
            <mxPoint x="-680" y="-1190" as="sourcePoint" />
            <mxPoint x="-630" y="-1240" as="targetPoint" />
          </mxGeometry>
        </mxCell>
        <mxCell id="8qORFBvdMXtc1hidTJIK-166" value="&lt;font color=&quot;#0d0d0d&quot;&gt;При наведении фокуса цвет фона меняется на серый&lt;/font&gt;" style="rounded=1;whiteSpace=wrap;html=1;arcSize=22;labelBackgroundColor=none;fillColor=#dae8fc;gradientColor=#7ea6e0;strokeColor=#6c8ebf;" vertex="1" parent="1">
          <mxGeometry x="-895" y="-1470" width="135" height="50" as="geometry" />
        </mxCell>
        <mxCell id="8qORFBvdMXtc1hidTJIK-167" value="" style="endArrow=classic;html=1;rounded=0;exitX=0;exitY=0.5;exitDx=0;exitDy=0;entryX=1;entryY=0.5;entryDx=0;entryDy=0;edgeStyle=orthogonalEdgeStyle;curved=1;" edge="1" parent="1" source="_SnUvuW7pjR6wicyARaL-13" target="8qORFBvdMXtc1hidTJIK-166">
          <mxGeometry width="50" height="50" relative="1" as="geometry">
            <mxPoint x="-690" y="-1160" as="sourcePoint" />
            <mxPoint x="-640" y="-1210" as="targetPoint" />
          </mxGeometry>
        </mxCell>
        <mxCell id="8qORFBvdMXtc1hidTJIK-168" value="&lt;font color=&quot;#0d0d0d&quot;&gt;Цвет текста белый&lt;/font&gt;" style="rounded=1;whiteSpace=wrap;html=1;arcSize=22;labelBackgroundColor=none;fillColor=#dae8fc;gradientColor=#7ea6e0;strokeColor=#6c8ebf;" vertex="1" parent="1">
          <mxGeometry x="-930" y="-950" width="130" height="40" as="geometry" />
        </mxCell>
        <mxCell id="8qORFBvdMXtc1hidTJIK-169" value="&lt;font color=&quot;#0d0d0d&quot;&gt;Фона нет&lt;/font&gt;" style="rounded=1;whiteSpace=wrap;html=1;arcSize=22;labelBackgroundColor=none;fillColor=#dae8fc;gradientColor=#7ea6e0;strokeColor=#6c8ebf;" vertex="1" parent="1">
          <mxGeometry x="-932.5" y="-880" width="130" height="40" as="geometry" />
        </mxCell>
        <mxCell id="8qORFBvdMXtc1hidTJIK-170" value="&lt;font color=&quot;#0d0d0d&quot;&gt;Выравнена по правому краю&lt;/font&gt;" style="rounded=1;whiteSpace=wrap;html=1;arcSize=22;labelBackgroundColor=none;fillColor=#dae8fc;gradientColor=#7ea6e0;strokeColor=#6c8ebf;" vertex="1" parent="1">
          <mxGeometry x="-932.5" y="-1030" width="130" height="40" as="geometry" />
        </mxCell>
        <mxCell id="8qORFBvdMXtc1hidTJIK-171" value="&lt;font color=&quot;#0d0d0d&quot;&gt;Границ у кнопки нет&lt;/font&gt;" style="rounded=1;whiteSpace=wrap;html=1;arcSize=22;labelBackgroundColor=none;fillColor=#dae8fc;gradientColor=#7ea6e0;strokeColor=#6c8ebf;" vertex="1" parent="1">
          <mxGeometry x="-930" y="-810" width="130" height="40" as="geometry" />
        </mxCell>
        <mxCell id="8qORFBvdMXtc1hidTJIK-173" value="" style="endArrow=classic;html=1;rounded=0;exitX=0;exitY=0.5;exitDx=0;exitDy=0;entryX=1;entryY=0.5;entryDx=0;entryDy=0;edgeStyle=orthogonalEdgeStyle;curved=1;" edge="1" parent="1" source="_SnUvuW7pjR6wicyARaL-14" target="8qORFBvdMXtc1hidTJIK-170">
          <mxGeometry width="50" height="50" relative="1" as="geometry">
            <mxPoint x="-715" y="-900" as="sourcePoint" />
            <mxPoint x="-645" y="-1080" as="targetPoint" />
          </mxGeometry>
        </mxCell>
        <mxCell id="8qORFBvdMXtc1hidTJIK-174" value="" style="endArrow=classic;html=1;rounded=0;exitX=0;exitY=0.5;exitDx=0;exitDy=0;entryX=1;entryY=0.5;entryDx=0;entryDy=0;edgeStyle=orthogonalEdgeStyle;curved=1;" edge="1" parent="1" source="_SnUvuW7pjR6wicyARaL-14" target="8qORFBvdMXtc1hidTJIK-168">
          <mxGeometry width="50" height="50" relative="1" as="geometry">
            <mxPoint x="-720" y="-810" as="sourcePoint" />
            <mxPoint x="-670" y="-860" as="targetPoint" />
          </mxGeometry>
        </mxCell>
        <mxCell id="8qORFBvdMXtc1hidTJIK-175" value="" style="endArrow=classic;html=1;rounded=0;exitX=0;exitY=0.5;exitDx=0;exitDy=0;entryX=1;entryY=0.5;entryDx=0;entryDy=0;edgeStyle=orthogonalEdgeStyle;curved=1;" edge="1" parent="1" source="_SnUvuW7pjR6wicyARaL-14" target="8qORFBvdMXtc1hidTJIK-169">
          <mxGeometry width="50" height="50" relative="1" as="geometry">
            <mxPoint x="-680" y="-770" as="sourcePoint" />
            <mxPoint x="-630" y="-820" as="targetPoint" />
          </mxGeometry>
        </mxCell>
        <mxCell id="8qORFBvdMXtc1hidTJIK-176" value="" style="endArrow=classic;html=1;rounded=0;exitX=0;exitY=0.5;exitDx=0;exitDy=0;entryX=1;entryY=0.5;entryDx=0;entryDy=0;edgeStyle=orthogonalEdgeStyle;curved=1;" edge="1" parent="1" source="_SnUvuW7pjR6wicyARaL-14" target="8qORFBvdMXtc1hidTJIK-171">
          <mxGeometry width="50" height="50" relative="1" as="geometry">
            <mxPoint x="-700" y="-720" as="sourcePoint" />
            <mxPoint x="-650" y="-770" as="targetPoint" />
          </mxGeometry>
        </mxCell>
      </root>
    </mxGraphModel>
  </diagram>
</mxfile>
